<?xml version="1.0" standalone="no"?>
<!DOCTYPE svg PUBLIC "-//W3C//DTD SVG 20010904//EN"
 "http://www.w3.org/TR/2001/REC-SVG-20010904/DTD/svg10.dtd">
<svg version="1.0" xmlns="http://www.w3.org/2000/svg"
 width="2255.000000pt" height="2255.000000pt" viewBox="0 0 2255.000000 2255.000000"
 preserveAspectRatio="xMidYMid meet">
<metadata>
Created by potrace 1.14, written by Peter Selinger 2001-2017
</metadata>
<g transform="translate(0.000000,2255.000000) scale(0.100000,-0.100000)"
fill="#000000" stroke="none">
<path d="M2185 22535 c-228 -11 -415 -26 -1100 -90 -88 -8 -320 -36 -516 -62
l-357 -47 -7 -70 c-3 -38 -13 -110 -20 -160 -52 -338 -121 -988 -146 -1371
-33 -509 -50 -1632 -30 -2025 24 -481 41 -742 65 -990 14 -140 33 -334 42
-430 9 -96 24 -227 35 -290 10 -63 37 -254 59 -425 57 -429 163 -1018 241
-1345 22 -91 67 -280 100 -420 74 -318 281 -1039 399 -1390 49 -146 107 -321
129 -390 21 -69 48 -147 60 -175 55 -135 161 -415 161 -425 0 -17 109 -297
136 -350 33 -66 164 -368 179 -415 7 -22 47 -116 89 -210 l77 -170 -80 -185
c-44 -102 -114 -266 -157 -365 -42 -99 -88 -202 -101 -230 -25 -49 -88 -213
-144 -370 -27 -78 -71 -195 -143 -385 -67 -175 -315 -933 -371 -1135 -31 -110
-81 -283 -111 -385 -54 -184 -183 -708 -250 -1015 -63 -284 -174 -922 -214
-1225 -22 -162 -49 -353 -59 -425 -11 -71 -27 -204 -36 -295 -8 -91 -27 -284
-41 -430 -52 -537 -65 -808 -72 -1485 -10 -1040 44 -1924 174 -2831 19 -133
34 -255 34 -271 l0 -29 283 -32 c155 -18 359 -44 452 -57 728 -103 2172 -153
3025 -105 195 11 398 20 450 20 182 0 1228 117 1715 191 72 11 326 56 565 100
804 149 1845 415 2480 634 184 64 365 125 402 136 157 46 924 349 1285 508
215 94 397 171 403 171 6 0 187 -77 402 -171 346 -151 1128 -458 1278 -502 30
-9 210 -70 400 -137 626 -218 1629 -476 2460 -631 479 -90 619 -112 1045 -168
497 -66 1130 -131 1276 -131 52 0 254 -9 449 -20 852 -48 2295 2 3025 105 94
13 295 38 447 56 193 23 279 37 282 46 3 7 13 79 21 161 9 81 32 269 51 417
43 331 49 391 69 675 9 124 21 250 26 280 18 104 40 706 46 1296 5 490 3 636
-11 855 -9 145 -20 352 -26 459 -8 175 -23 345 -75 890 -9 91 -27 239 -41 330
-13 91 -37 269 -54 395 -34 261 -27 221 -121 705 -97 506 -198 976 -268 1246
-182 713 -480 1638 -705 2189 -30 72 -72 182 -96 245 -23 63 -82 207 -132 320
-50 113 -126 290 -169 395 l-80 189 65 156 c36 85 106 247 156 360 51 113 99
223 107 245 9 22 38 99 65 170 28 72 88 227 135 345 93 234 95 240 271 765
133 396 349 1132 412 1404 68 290 137 616 216 1011 99 499 98 490 144 840 23
168 49 359 60 425 10 66 26 194 35 285 56 594 67 725 75 900 6 107 17 312 26
455 14 215 16 362 11 855 -6 589 -27 1189 -46 1298 -5 32 -17 154 -26 272 -20
279 -29 365 -59 599 -14 107 -37 295 -51 417 -14 123 -28 230 -30 237 -8 18
-632 101 -1040 137 -181 16 -427 38 -545 49 -118 11 -334 25 -480 31 -335 13
-1481 13 -1700 0 -91 -5 -248 -14 -350 -20 -102 -7 -340 -27 -530 -45 -190
-19 -390 -37 -445 -41 -55 -3 -246 -28 -425 -54 -179 -26 -372 -53 -430 -60
-151 -17 -851 -155 -1374 -271 -530 -118 -1152 -292 -1691 -473 -455 -152
-1172 -426 -1652 -630 -215 -91 -397 -166 -403 -166 -6 0 -188 75 -403 166
-1179 501 -2260 860 -3297 1094 -493 112 -1253 262 -1410 280 -58 7 -251 34
-430 60 -179 26 -372 51 -430 55 -58 3 -258 21 -445 40 -187 19 -421 39 -520
44 -99 6 -257 16 -352 21 -232 13 -1474 10 -1798 -5z"/>
</g>
</svg>
