<svg width="1251" height="77" viewBox="0 0 1251 77" fill="none" xmlns="http://www.w3.org/2000/svg">
<g id="Divisorio">
<g id="rettangolone">
<rect id="stondatone" y="5" width="1251" height="72" fill="#131313"/>
</g>
<g id="slashoni">
<path id=".&#226;&#128;&#153;\/\/\/\/\/\/\/\/\/\/\/\/\/\/\/\/\/\/\/\/\/\/\/\/\/\/&#226;&#128;&#153;." d="M10.3485 62.3636C9.2273 62.3636 8.26518 61.9621 7.46215 61.1591C6.65912 60.3561 6.25761 59.3939 6.25761 58.2727C6.25761 57.1515 6.65912 56.1894 7.46215 55.3864C8.26518 54.5833 9.2273 54.1818 10.3485 54.1818C11.4697 54.1818 12.4318 54.5833 13.2349 55.3864C14.0379 56.1894 14.4394 57.1515 14.4394 58.2727C14.4394 59.0152 14.25 59.697 13.8712 60.3182C13.5076 60.9394 13.0152 61.4394 12.394 61.8182C11.7879 62.1818 11.1061 62.3636 10.3485 62.3636ZM25.3267 15.4545V19.5455C25.3267 20.7879 25.0994 22.1136 24.6449 23.5227C24.2055 24.9167 23.554 26.2727 22.6903 27.5909C21.8418 28.8939 20.8115 30.0303 19.5994 31L16.6903 28.6364C17.6449 27.2727 18.4706 25.8561 19.1676 24.3864C19.8797 22.9015 20.2358 21.3182 20.2358 19.6364V15.4545H25.3267ZM44.1174 69L29.1174 13.2727H34.0265L49.0265 69H44.1174ZM71.999 13.2727L56.999 69H52.0899L67.0899 13.2727H71.999ZM90.0624 69L75.0624 13.2727H79.9715L94.9715 69H90.0624ZM117.944 13.2727L102.944 69H98.0349L113.035 13.2727H117.944ZM136.007 69L121.007 13.2727H125.916L140.916 69H136.007ZM163.889 13.2727L148.889 69H143.98L158.98 13.2727H163.889ZM181.952 69L166.952 13.2727H171.861L186.861 69H181.952ZM209.834 13.2727L194.834 69H189.925L204.925 13.2727H209.834ZM227.897 69L212.897 13.2727H217.806L232.806 69H227.897ZM255.779 13.2727L240.779 69H235.87L250.87 13.2727H255.779ZM273.842 69L258.842 13.2727H263.751L278.751 69H273.842ZM301.724 13.2727L286.724 69H281.815L296.815 13.2727H301.724ZM319.787 69L304.787 13.2727H309.696L324.696 69H319.787ZM347.669 13.2727L332.669 69H327.76L342.76 13.2727H347.669ZM365.732 69L350.732 13.2727H355.641L370.641 69H365.732ZM393.614 13.2727L378.614 69H373.705L388.705 13.2727H393.614ZM411.677 69L396.677 13.2727H401.586L416.586 69H411.677ZM439.559 13.2727L424.559 69H419.65L434.65 13.2727H439.559ZM457.622 69L442.622 13.2727H447.531L462.531 69H457.622ZM485.504 13.2727L470.504 69H465.595L480.595 13.2727H485.504ZM503.567 69L488.567 13.2727H493.476L508.476 69H503.567ZM531.449 13.2727L516.449 69H511.54L526.54 13.2727H531.449ZM549.512 69L534.512 13.2727H539.421L554.421 69H549.512ZM577.394 13.2727L562.394 69H557.485L572.485 13.2727H577.394ZM595.457 69L580.457 13.2727H585.366L600.366 69H595.457ZM623.339 13.2727L608.339 69H603.43L618.43 13.2727H623.339ZM641.402 69L626.402 13.2727H631.311L646.311 69H641.402ZM669.284 13.2727L654.284 69H649.375L664.375 13.2727H669.284ZM687.347 69L672.347 13.2727H677.256L692.256 69H687.347ZM715.229 13.2727L700.229 69H695.32L710.32 13.2727H715.229ZM733.292 69L718.292 13.2727H723.201L738.201 69H733.292ZM761.174 13.2727L746.174 69H741.265L756.265 13.2727H761.174ZM779.237 69L764.237 13.2727H769.146L784.146 69H779.237ZM807.119 13.2727L792.119 69H787.21L802.21 13.2727H807.119ZM825.182 69L810.182 13.2727H815.091L830.091 69H825.182ZM853.064 13.2727L838.064 69H833.155L848.155 13.2727H853.064ZM871.127 69L856.127 13.2727H861.036L876.036 69H871.127ZM899.009 13.2727L884.009 69H879.1L894.1 13.2727H899.009ZM917.072 69L902.072 13.2727H906.981L921.981 69H917.072ZM944.954 13.2727L929.954 69H925.045L940.045 13.2727H944.954ZM963.017 69L948.017 13.2727H952.926L967.926 69H963.017ZM990.899 13.2727L975.899 69H970.99L985.99 13.2727H990.899ZM1008.96 69L993.962 13.2727H998.871L1013.87 69H1008.96ZM1036.84 13.2727L1021.84 69H1016.93L1031.93 13.2727H1036.84ZM1054.91 69L1039.91 13.2727H1044.82L1059.82 69H1054.91ZM1082.79 13.2727L1067.79 69H1062.88L1077.88 13.2727H1082.79ZM1100.85 69L1085.85 13.2727H1090.76L1105.76 69H1100.85ZM1128.73 13.2727L1113.73 69H1108.82L1123.82 13.2727H1128.73ZM1146.8 69L1131.8 13.2727H1136.71L1151.71 69H1146.8ZM1174.68 13.2727L1159.68 69H1154.77L1169.77 13.2727H1174.68ZM1192.74 69L1177.74 13.2727H1182.65L1197.65 69H1192.74ZM1220.62 13.2727L1205.62 69H1200.71L1215.71 13.2727H1220.62ZM1231.87 15.4545V19.5455C1231.87 20.7879 1231.64 22.1136 1231.19 23.5227C1230.75 24.9167 1230.1 26.2727 1229.23 27.5909C1228.38 28.8939 1227.35 30.0303 1226.14 31L1223.23 28.6364C1224.19 27.2727 1225.01 25.8561 1225.71 24.3864C1226.42 22.9015 1226.78 21.3182 1226.78 19.6364V15.4545H1231.87ZM1236.65 62.3636C1235.53 62.3636 1234.57 61.9621 1233.76 61.1591C1232.96 60.3561 1232.56 59.3939 1232.56 58.2727C1232.56 57.1515 1232.96 56.1894 1233.76 55.3864C1234.57 54.5833 1235.53 54.1818 1236.65 54.1818C1237.77 54.1818 1238.73 54.5833 1239.53 55.3864C1240.34 56.1894 1240.74 57.1515 1240.74 58.2727C1240.74 59.0152 1240.55 59.697 1240.17 60.3182C1239.81 60.9394 1239.32 61.4394 1238.69 61.8182C1238.09 62.1818 1237.41 62.3636 1236.65 62.3636Z" fill="#FFFEFE"/>
</g>
</g>
</svg>
