<svg width="1075" height="1028" viewBox="0 0 1075 1028" fill="none" xmlns="http://www.w3.org/2000/svg">
<g id="freccia">
<g id="arrow">
<path d="M449.096 608.618C228.552 590.033 270.557 680.81 296.228 749.777L21.019 544.699L431.971 380.588C432.549 380.339 433.104 380.117 433.637 379.923L431.971 380.588C407.649 391.052 344.385 448.41 296.228 498C246.926 548.768 377.597 592.899 449.096 608.618C562.112 527.551 800 352.7 820 419.5C840 486.3 977 465 1043 446V510C975.167 545.667 835.6 598.7 820 525.5C800.5 434 567.5 683 532 656.5C503.6 635.3 462.612 625.551 449.096 608.618Z" fill="#D9D9D9"/>
<path d="M449.096 608.618C228.552 590.033 270.557 680.81 296.228 749.777L21.019 544.699L433.637 379.923C410.662 388.323 345.529 447.232 296.228 498C246.926 548.768 377.597 592.899 449.096 608.618ZM449.096 608.618C562.112 527.551 800 352.7 820 419.5C840 486.3 977 465 1043 446V510C975.167 545.667 835.6 598.7 820 525.5C800.5 434 567.5 683 532 656.5C503.6 635.3 462.612 625.551 449.096 608.618Z" stroke="black" stroke-width="20"/>
</g>
</g>
</svg>
