<svg xmlns="http://www.w3.org/2000/svg" xmlns:xlink="http://www.w3.org/1999/xlink" xmlns:lucid="lucid" width="1316.69" height="468.05"><g transform="translate(1247.4497164808004 -145.86255590166365)" lucid:page-tab-id="0_0"><path d="M-1500 0H500v1000h-2000z" fill="#f2f3f5"/><path d="M-929.64 437.14a40 40 0 0 1 40-40h160a40 40 0 0 1 40 40 40 40 0 0 1-40 40h-160a40 40 0 0 1-40-40z" fill="#fff"/><use xlink:href="#a" transform="matrix(1,0,0,1,-924.6397164808004,402.14380590166365) translate(46.27777777777777 40.0625)"/><use xlink:href="#b" transform="matrix(1,0,0,1,-924.6397164808004,402.14380590166365) translate(138.38888888888889 40.0625)"/><path d="M-35.67 257.47h84.9v61.6h-84.9z" fill="none"/><use xlink:href="#c" transform="matrix(1,0,0,1,-15.669716480800389,280.47255590166367) translate(0 14.6)"/><path d="M-261.68 211.67h66v61.6h-66z" fill="none"/><use xlink:href="#d" transform="matrix(1,0,0,1,-241.67971648080038,234.66755590166366) translate(0 14.6)"/><path d="M-1227.45 314.73h137.8v61.6h-137.8z" fill="none"/><use xlink:href="#e" transform="matrix(1,0,0,1,-1207.4497164808004,337.7288059016637) translate(0 14.6)"/><path d="M-1172.65 406.34h83v61.6h-83z" fill="none"/><use xlink:href="#f" transform="matrix(1,0,0,1,-1152.6497164808004,429.3388059016636) translate(0 14.6)"/><path d="M-419.18 311.23l3.1.06 5.1.32 4.74.5 4.42.64 4.17.8 3.96.93 3.8 1.05 3.7 1.2 3.6 1.33 3.56 1.5 3.57 1.68 3.63 1.9 3.77 2.18 4.04 2.57 4.54 3.16 5.64 4.3 30 24.64 4.53 3.16 4.04 2.57 3.78 2.18 3.63 1.9 3.58 1.7 3.56 1.48 3.6 1.34 3.7 1.2 3.8 1.06 3.95.93 4.16.8 4.42.65 4.73.5 5.13.32 3.1.07" stroke="#635dff" stroke-width="5" stroke-linejoin="round" fill="none"/><path d="M-419.06 308.76l-.1 4.95-2.52-.04v-4.96zM-261.68 377.4v4.96h-2.56v-4.95z" stroke="#635dff" stroke-width=".05" fill="#635dff"/><path d="M-35.67 165.86h75.9v61.6h-75.9z" fill="none"/><use xlink:href="#g" transform="matrix(1,0,0,1,-15.669716480800389,188.86255590166365) translate(0 14.6)"/><path d="M-529.64 280.38h107.96v61.6h-107.96z" fill="none"/><use xlink:href="#h" transform="matrix(1,0,0,1,-509.6397164808004,303.3750559016637) translate(0 14.6)"/><use xlink:href="#i" transform="matrix(1,0,0,1,-509.6397164808004,303.3750559016637) translate(41.95 14.6)"/><path d="M-1207.55 497.95h117.9v61.6h-117.9z" fill="none"/><use xlink:href="#j" transform="matrix(1,0,0,1,-1187.5497164808003,520.9488059016637) translate(0 14.6)"/><path d="M-932.14 437.2l-1.74.03-3.97.25-3.74.4-3.54.52-3.4.64-3.25.77-3.14.9-3.08 1-3 1.1-2.98 1.26-2.95 1.4-2.97 1.54-3 1.73-3.06 1.94-3.17 2.2-3.35 2.55-3.6 3-4.05 3.64-4.87 4.77-7.17 7.67-22.06 24.57-4.87 4.77-4.04 3.65-3.6 2.98-3.36 2.54-3.17 2.2-3.07 1.95-3 1.73-2.96 1.55-2.95 1.4-2.97 1.24-3 1.1-3.1 1-3.14.9-3.25.75-3.4.65-3.54.52-3.73.4-3.97.25-1.74.03" stroke="#ffe342" stroke-width="5" stroke-linejoin="round" fill="none"/><path d="M-929.64 437.14l.2 2.48-2.7.05-.12-4.95 2.8-.06zM-1087.08 531.23h-2.56v-4.95h2.56z" stroke="#ffe342" stroke-width=".05" fill="#ffe342"/><path d="M-193.17 242.52l5.7.12 7.2.45 6.46.67 5.86.86 5.43 1.04 5.1 1.2 4.9 1.37 4.8 1.56 4.85 1.8 5.07 2.13 5.72 2.7 7.78 4.08 25 13.83 5.72 2.7 5.07 2.12 4.85 1.8 4.8 1.56 4.9 1.38 5.12 1.2 5.43 1.04 5.88.86 6.45.68 7.2.45 5.7.13" stroke="#635dff" stroke-width="5" stroke-linejoin="round" fill="none"/><path d="M-193.05 240.05l-.1 4.95-2.52-.05V240zM-35.67 285.8v4.95h-2.56v-4.95z" stroke="#635dff" stroke-width=".05" fill="#635dff"/><path d="M-529.64 440.7h116.56v61.6h-116.56z" fill="none"/><use xlink:href="#k" transform="matrix(1,0,0,1,-509.6397164808004,463.6925559016636) translate(0 14.6)"/><use xlink:href="#l" transform="matrix(1,0,0,1,-509.6397164808004,463.6925559016636) translate(40.550000000000004 14.6)"/><path d="M-529.64 532.3h114.86v61.6h-114.86z" fill="none"/><use xlink:href="#m" transform="matrix(1,0,0,1,-509.6397164808004,555.3025559016637) translate(0 14.6)"/><path d="M-261.68 349.08h117.96v61.6h-117.96z" fill="none"/><use xlink:href="#h" transform="matrix(1,0,0,1,-241.67971648080038,372.0825559016637) translate(0 14.6)"/><use xlink:href="#n" transform="matrix(1,0,0,1,-241.67971648080038,372.0825559016637) translate(41.95 14.6)"/><path d="M-419.18 311.13l3.1-.06 5.1-.33 4.74-.5 4.42-.64 4.17-.8 3.96-.93 3.8-1.06 3.7-1.2 3.6-1.32 3.56-1.5 3.57-1.68 3.63-1.9 3.77-2.18 4.04-2.57 4.54-3.15 5.64-4.3 30-24.64 4.53-3.16 4.04-2.56 3.78-2.2 3.63-1.9 3.58-1.67 3.56-1.5 3.6-1.33 3.7-1.2 3.8-1.06 3.95-.93 4.16-.8 4.42-.65 4.73-.5 5.13-.3 3.1-.08" stroke="#635dff" stroke-width="5" stroke-linejoin="round" fill="none"/><path d="M-419.06 313.6l-2.62.06v-4.96l2.5-.05zM-261.68 244.95h-2.56V240h2.56z" stroke="#635dff" stroke-width=".05" fill="#635dff"/><path d="M-687.14 437.2h.6l2.98.2 2.84.3 2.74.4 2.66.5 2.58.6 2.52.7 2.48.82 2.45.9 2.43 1.03 2.43 1.14 2.43 1.26 2.44 1.42 2.48 1.57 2.54 1.77 2.62 2 2.72 2.24 2.85 2.57 3.04 2.98 3.3 3.52 3.66 4.26 4.28 5.42 5.5 7.58 31.34 47.07 4.28 5.42 3.67 4.26 3.3 3.5 3.04 3 2.85 2.56 2.72 2.24 2.62 2 2.54 1.76 2.48 1.57 2.45 1.42 2.43 1.26 2.43 1.14 2.4 1.02 2.46.9 2.48.82 2.52.7 2.58.6 2.66.5 2.74.42 2.84.3 2.97.18.6.02" stroke="#e81313" stroke-width="5" stroke-linejoin="round" fill="none"/><path d="M-687.02 434.72l-.1 4.95-2.7-.06.18-2.46-.2-2.48zM-529.64 560.63v4.95h-2.56v-4.95z" stroke="#e81313" stroke-width=".05" fill="#e81313"/><path d="M-193.17 242.42l5.7-.1 7.2-.47 6.46-.67 5.86-.87 5.43-1.02 5.1-1.2 4.9-1.37 4.8-1.55 4.85-1.8 5.07-2.14 5.72-2.68 7.78-4.1 25-13.8 5.72-2.7 5.07-2.13 4.85-1.8 4.8-1.57 4.9-1.37 5.12-1.2 5.43-1.03 5.88-.87 6.45-.67 7.2-.47 5.7-.1" stroke="#635dff" stroke-width="5" stroke-linejoin="round" fill="none"/><path d="M-193.05 244.9l-2.62.05V240l2.52-.05zM-35.67 199.14h-2.56v-4.95h2.56z" stroke="#635dff" stroke-width=".05" fill="#635dff"/><path d="M-687.14 437.2l8.2.16 9.05.57 7.9.82 7.06 1.04 6.5 1.23 6.18 1.45 6.1 1.7 6.46 2.1 7.8 2.92 32.32 13.16 6.45 2.1 6.1 1.7 6.2 1.45 6.5 1.25 7.05 1.04 7.9.8 9.05.58 8.2.17" stroke="#fc9432" stroke-width="5" stroke-linejoin="round" fill="none"/><path d="M-687.02 434.72l-.1 4.95-2.7-.06.18-2.46-.2-2.48zM-529.64 469.02v4.95h-2.56v-4.95z" stroke="#fc9432" stroke-width=".05" fill="#fc9432"/><path d="M-932.14 437.14h-155" stroke="#d916a8" stroke-width="5" stroke-linejoin="round" fill="none"/><path d="M-929.64 437.14l.2 2.48h-2.77v-4.95h2.75zM-1087.08 439.62h-2.56v-4.95h2.56z" stroke="#d916a8" stroke-width=".05" fill="#d916a8"/><path d="M-932.14 437.1l-1.74-.04-3.97-.25-3.74-.38-3.54-.53-3.4-.66-3.25-.76-3.14-.88-3.08-1-3-1.12-2.98-1.25-2.95-1.4-2.97-1.54-3-1.74-3.06-1.94-3.17-2.2-3.35-2.55-3.6-3-4.05-3.64-4.87-4.77-7.17-7.67-22.06-24.58-4.87-4.77-4.04-3.65-3.6-3-3.36-2.53-3.17-2.2-3.07-1.95-3-1.73-2.96-1.56-2.95-1.4-2.97-1.24-3-1.12-3.1-1-3.14-.88-3.25-.77-3.4-.64-3.54-.54-3.73-.4-3.97-.24-1.74-.03" stroke="#ba23f6" stroke-width="5" stroke-linejoin="round" fill="none"/><path d="M-929.45 434.67l-.2 2.47.2 2.48-2.8-.06.1-4.94zM-1087.08 343.06V348h-2.56v-4.94z" stroke="#ba23f6" stroke-width=".05" fill="#ba23f6"/><path d="M-687.14 437.1l.6-.02 2.98-.2 2.84-.3 2.74-.4 2.66-.5 2.58-.6 2.52-.7 2.48-.8 2.45-.92 2.43-1.02 2.43-1.14 2.43-1.27 2.44-1.42 2.48-1.57 2.54-1.76 2.62-2 2.72-2.24 2.85-2.57 3.04-2.98 3.3-3.5 3.66-4.28 4.28-5.4 5.5-7.6 31.34-47.07 4.28-5.4 3.67-4.27 3.3-3.52 3.04-2.97 2.85-2.58 2.72-2.26 2.62-1.98 2.54-1.77 2.48-1.6 2.45-1.4 2.43-1.27 2.43-1.14 2.4-1.03 2.46-.92 2.48-.8 2.52-.7 2.58-.6 2.66-.52 2.74-.4 2.84-.3 2.97-.2h.6" stroke="#635dff" stroke-width="5" stroke-linejoin="round" fill="none"/><path d="M-687.02 439.56l-2.82.06.2-2.48-.2-2.47 2.72-.05zM-529.64 313.65h-2.56v-4.94h2.56z" stroke="#635dff" stroke-width=".05" fill="#635dff"/><path d="M-929.64 437.14a40 40 0 0 1 40-40h160a40 40 0 0 1 40 40 40 40 0 0 1-40 40h-160a40 40 0 0 1-40-40z" fill="#fff"/><use xlink:href="#a" transform="matrix(1,0,0,1,-924.6397164808004,402.14380590166365) translate(46.27777777777777 40.0625)"/><use xlink:href="#b" transform="matrix(1,0,0,1,-924.6397164808004,402.14380590166365) translate(138.38888888888889 40.0625)"/><path d="M-35.67 257.47h84.9v61.6h-84.9z" fill="none"/><use xlink:href="#c" transform="matrix(1,0,0,1,-15.669716480800389,280.47255590166367) translate(0 14.6)"/><path d="M-261.68 211.67h66v61.6h-66z" fill="none"/><use xlink:href="#d" transform="matrix(1,0,0,1,-241.67971648080038,234.66755590166366) translate(0 14.6)"/><path d="M-1227.45 314.73h137.8v61.6h-137.8z" fill="none"/><use xlink:href="#e" transform="matrix(1,0,0,1,-1207.4497164808004,337.7288059016637) translate(0 14.6)"/><path d="M-1172.65 406.34h83v61.6h-83z" fill="none"/><use xlink:href="#f" transform="matrix(1,0,0,1,-1152.6497164808004,429.3388059016636) translate(0 14.6)"/><path d="M-419.18 311.23l3.1.06 5.1.32 4.74.5 4.42.64 4.17.8 3.96.93 3.8 1.05 3.7 1.2 3.6 1.33 3.56 1.5 3.57 1.68 3.63 1.9 3.77 2.18 4.04 2.57 4.54 3.16 5.64 4.3 30 24.64 4.53 3.16 4.04 2.57 3.78 2.18 3.63 1.9 3.58 1.7 3.56 1.48 3.6 1.34 3.7 1.2 3.8 1.06 3.95.93 4.16.8 4.42.65 4.73.5 5.13.32 3.1.07" stroke="#635dff" stroke-width="5" stroke-linejoin="round" fill="none"/><path d="M-419.06 308.76l-.1 4.95-2.52-.04v-4.96zM-261.68 377.4v4.96h-2.56v-4.95z" stroke="#635dff" stroke-width=".05" fill="#635dff"/><path d="M-35.67 165.86h75.9v61.6h-75.9z" fill="none"/><use xlink:href="#g" transform="matrix(1,0,0,1,-15.669716480800389,188.86255590166365) translate(0 14.6)"/><path d="M-529.64 280.38h107.96v61.6h-107.96z" fill="none"/><use xlink:href="#h" transform="matrix(1,0,0,1,-509.6397164808004,303.3750559016637) translate(0 14.6)"/><use xlink:href="#i" transform="matrix(1,0,0,1,-509.6397164808004,303.3750559016637) translate(41.95 14.6)"/><path d="M-1207.55 497.95h117.9v61.6h-117.9z" fill="none"/><use xlink:href="#j" transform="matrix(1,0,0,1,-1187.5497164808003,520.9488059016637) translate(0 14.6)"/><path d="M-932.14 437.2l-1.74.03-3.97.25-3.74.4-3.54.52-3.4.64-3.25.77-3.14.9-3.08 1-3 1.1-2.98 1.26-2.95 1.4-2.97 1.54-3 1.73-3.06 1.94-3.17 2.2-3.35 2.55-3.6 3-4.05 3.64-4.87 4.77-7.17 7.67-22.06 24.57-4.87 4.77-4.04 3.65-3.6 2.98-3.36 2.54-3.17 2.2-3.07 1.95-3 1.73-2.96 1.55-2.95 1.4-2.97 1.24-3 1.1-3.1 1-3.14.9-3.25.75-3.4.65-3.54.52-3.73.4-3.97.25-1.74.03" stroke="#ffe342" stroke-width="5" stroke-linejoin="round" fill="none"/><path d="M-929.64 437.14l.2 2.48-2.7.05-.12-4.95 2.8-.06zM-1087.08 531.23h-2.56v-4.95h2.56z" stroke="#ffe342" stroke-width=".05" fill="#ffe342"/><path d="M-193.17 242.52l5.7.12 7.2.45 6.46.67 5.86.86 5.43 1.04 5.1 1.2 4.9 1.37 4.8 1.56 4.85 1.8 5.07 2.13 5.72 2.7 7.78 4.08 25 13.83 5.72 2.7 5.07 2.12 4.85 1.8 4.8 1.56 4.9 1.38 5.12 1.2 5.43 1.04 5.88.86 6.45.68 7.2.45 5.7.13" stroke="#635dff" stroke-width="5" stroke-linejoin="round" fill="none"/><path d="M-193.05 240.05l-.1 4.95-2.52-.05V240zM-35.67 285.8v4.95h-2.56v-4.95z" stroke="#635dff" stroke-width=".05" fill="#635dff"/><path d="M-529.64 440.7h116.56v61.6h-116.56z" fill="none"/><use xlink:href="#k" transform="matrix(1,0,0,1,-509.6397164808004,463.6925559016636) translate(0 14.6)"/><use xlink:href="#l" transform="matrix(1,0,0,1,-509.6397164808004,463.6925559016636) translate(40.550000000000004 14.6)"/><path d="M-529.64 532.3h114.86v61.6h-114.86z" fill="none"/><use xlink:href="#m" transform="matrix(1,0,0,1,-509.6397164808004,555.3025559016637) translate(0 14.6)"/><path d="M-261.68 349.08h117.96v61.6h-117.96z" fill="none"/><use xlink:href="#h" transform="matrix(1,0,0,1,-241.67971648080038,372.0825559016637) translate(0 14.6)"/><use xlink:href="#n" transform="matrix(1,0,0,1,-241.67971648080038,372.0825559016637) translate(41.95 14.6)"/><path d="M-419.18 311.13l3.1-.06 5.1-.33 4.74-.5 4.42-.64 4.17-.8 3.96-.93 3.8-1.06 3.7-1.2 3.6-1.32 3.56-1.5 3.57-1.68 3.63-1.9 3.77-2.18 4.04-2.57 4.54-3.15 5.64-4.3 30-24.64 4.53-3.16 4.04-2.56 3.78-2.2 3.63-1.9 3.58-1.67 3.56-1.5 3.6-1.33 3.7-1.2 3.8-1.06 3.95-.93 4.16-.8 4.42-.65 4.73-.5 5.13-.3 3.1-.08" stroke="#635dff" stroke-width="5" stroke-linejoin="round" fill="none"/><path d="M-419.06 313.6l-2.62.06v-4.96l2.5-.05zM-261.68 244.95h-2.56V240h2.56z" stroke="#635dff" stroke-width=".05" fill="#635dff"/><path d="M-687.14 437.2h.6l2.98.2 2.84.3 2.74.4 2.66.5 2.58.6 2.52.7 2.48.82 2.45.9 2.43 1.03 2.43 1.14 2.43 1.26 2.44 1.42 2.48 1.57 2.54 1.77 2.62 2 2.72 2.24 2.85 2.57 3.04 2.98 3.3 3.52 3.66 4.26 4.28 5.42 5.5 7.58 31.34 47.07 4.28 5.42 3.67 4.26 3.3 3.5 3.04 3 2.85 2.56 2.72 2.24 2.62 2 2.54 1.76 2.48 1.57 2.45 1.42 2.43 1.26 2.43 1.14 2.4 1.02 2.46.9 2.48.82 2.52.7 2.58.6 2.66.5 2.74.42 2.84.3 2.97.18.6.02" stroke="#e81313" stroke-width="5" stroke-linejoin="round" fill="none"/><path d="M-687.02 434.72l-.1 4.95-2.7-.06.18-2.46-.2-2.48zM-529.64 560.63v4.95h-2.56v-4.95z" stroke="#e81313" stroke-width=".05" fill="#e81313"/><path d="M-193.17 242.42l5.7-.1 7.2-.47 6.46-.67 5.86-.87 5.43-1.02 5.1-1.2 4.9-1.37 4.8-1.55 4.85-1.8 5.07-2.14 5.72-2.68 7.78-4.1 25-13.8 5.72-2.7 5.07-2.13 4.85-1.8 4.8-1.57 4.9-1.37 5.12-1.2 5.43-1.03 5.88-.87 6.45-.67 7.2-.47 5.7-.1" stroke="#635dff" stroke-width="5" stroke-linejoin="round" fill="none"/><path d="M-193.05 244.9l-2.62.05V240l2.52-.05zM-35.67 199.14h-2.56v-4.95h2.56z" stroke="#635dff" stroke-width=".05" fill="#635dff"/><path d="M-687.14 437.2l8.2.16 9.05.57 7.9.82 7.06 1.04 6.5 1.23 6.18 1.45 6.1 1.7 6.46 2.1 7.8 2.92 32.32 13.16 6.45 2.1 6.1 1.7 6.2 1.45 6.5 1.25 7.05 1.04 7.9.8 9.05.58 8.2.17" stroke="#fc9432" stroke-width="5" stroke-linejoin="round" fill="none"/><path d="M-687.02 434.72l-.1 4.95-2.7-.06.18-2.46-.2-2.48zM-529.64 469.02v4.95h-2.56v-4.95z" stroke="#fc9432" stroke-width=".05" fill="#fc9432"/><path d="M-932.14 437.14h-155" stroke="#d916a8" stroke-width="5" stroke-linejoin="round" fill="none"/><path d="M-929.64 437.14l.2 2.48h-2.77v-4.95h2.75zM-1087.08 439.62h-2.56v-4.95h2.56z" stroke="#d916a8" stroke-width=".05" fill="#d916a8"/><path d="M-932.14 437.1l-1.74-.04-3.97-.25-3.74-.38-3.54-.53-3.4-.66-3.25-.76-3.14-.88-3.08-1-3-1.12-2.98-1.25-2.95-1.4-2.97-1.54-3-1.74-3.06-1.94-3.17-2.2-3.35-2.55-3.6-3-4.05-3.64-4.87-4.77-7.17-7.67-22.06-24.58-4.87-4.77-4.04-3.65-3.6-3-3.36-2.53-3.17-2.2-3.07-1.95-3-1.73-2.96-1.56-2.95-1.4-2.97-1.24-3-1.12-3.1-1-3.14-.88-3.25-.77-3.4-.64-3.54-.54-3.73-.4-3.97-.24-1.74-.03" stroke="#ba23f6" stroke-width="5" stroke-linejoin="round" fill="none"/><path d="M-929.45 434.67l-.2 2.47.2 2.48-2.8-.06.1-4.94zM-1087.08 343.06V348h-2.56v-4.94z" stroke="#ba23f6" stroke-width=".05" fill="#ba23f6"/><path d="M-687.14 437.1l.6-.02 2.98-.2 2.84-.3 2.74-.4 2.66-.5 2.58-.6 2.52-.7 2.48-.8 2.45-.92 2.43-1.02 2.43-1.14 2.43-1.27 2.44-1.42 2.48-1.57 2.54-1.76 2.62-2 2.72-2.24 2.85-2.57 3.04-2.98 3.3-3.5 3.66-4.28 4.28-5.4 5.5-7.6 31.34-47.07 4.28-5.4 3.67-4.27 3.3-3.52 3.04-2.97 2.85-2.58 2.72-2.26 2.62-1.98 2.54-1.77 2.48-1.6 2.45-1.4 2.43-1.27 2.43-1.14 2.4-1.03 2.46-.92 2.48-.8 2.52-.7 2.58-.6 2.66-.52 2.74-.4 2.84-.3 2.97-.2h.6" stroke="#635dff" stroke-width="5" stroke-linejoin="round" fill="none"/><path d="M-687.02 439.56l-2.82.06.2-2.48-.2-2.47 2.72-.05zM-529.64 313.65h-2.56v-4.94h2.56z" stroke="#635dff" stroke-width=".05" fill="#635dff"/><defs><path d="M169-182c-1-43-94-46-97-3 18 66 151 10 154 114 3 95-165 93-204 36-6-8-10-19-12-30l50-8c3 46 112 56 116 5-17-69-150-10-154-114-4-87 153-88 188-35 5 8 8 18 10 28" id="o"/><path d="M146-102V0H94v-102L6-248h54l60 105 60-105h54" id="p"/><path d="M67-125c0 53 21 87 73 88 37 1 54-22 65-47l45 17C233-25 199 4 140 4 58 4 20-42 15-125 8-235 124-281 211-232c18 10 29 29 36 50l-46 12c-8-25-30-41-62-41-52 0-71 34-72 86" id="q"/><path d="M140-251c80 0 125 45 125 126S219 4 139 4C58 4 15-44 15-125s44-126 125-126zm-1 214c52 0 73-35 73-88 0-50-21-86-72-86-52 0-73 35-73 86s22 88 72 88" id="r"/><path d="M230 0l2-204L168 0h-37L68-204 70 0H24v-248h70l56 185 57-185h69V0h-46" id="s"/><g id="a"><use transform="matrix(0.05555555555555555,0,0,0.05555555555555555,0,0)" xlink:href="#o"/><use transform="matrix(0.05555555555555555,0,0,0.05555555555555555,13.333333333333332,0)" xlink:href="#p"/><use transform="matrix(0.05555555555555555,0,0,0.05555555555555555,26.666666666666664,0)" xlink:href="#o"/><use transform="matrix(0.05555555555555555,0,0,0.05555555555555555,40,0)" xlink:href="#q"/><use transform="matrix(0.05555555555555555,0,0,0.05555555555555555,54.388888888888886,0)" xlink:href="#r"/><use transform="matrix(0.05555555555555555,0,0,0.05555555555555555,69.94444444444444,0)" xlink:href="#s"/></g><path d="M67-93c0 74 22 123 53 168H70C40 30 18-18 18-93s22-123 52-168h50c-32 44-53 94-53 168" id="t"/><path d="M136-208V0H84v-208H4v-40h212v40h-80" id="u"/><path d="M238-95c0 69-44 99-111 99C63 4 22-25 22-93v-155h51v151c-1 38 19 59 55 60 90 1 49-130 58-211h52v153" id="v"/><path d="M24 0v-248h52V0H24" id="w"/><path d="M102-93c0 74-22 123-52 168H0C30 29 54-18 53-93c0-74-22-123-53-168h50c30 45 52 94 52 168" id="x"/><g id="b"><use transform="matrix(0.05555555555555555,0,0,0.05555555555555555,0,0)" xlink:href="#t"/><use transform="matrix(0.05555555555555555,0,0,0.05555555555555555,6.611111111111111,0)" xlink:href="#u"/><use transform="matrix(0.05555555555555555,0,0,0.05555555555555555,18.77777777777778,0)" xlink:href="#v"/><use transform="matrix(0.05555555555555555,0,0,0.05555555555555555,33.166666666666664,0)" xlink:href="#w"/><use transform="matrix(0.05555555555555555,0,0,0.05555555555555555,38.72222222222222,0)" xlink:href="#x"/></g><path d="M30-248c118-7 216 8 213 122C240-48 200 0 122 0H30v-248zM63-27c89 8 146-16 146-99s-60-101-146-95v194" id="y"/><path d="M33 0v-248h34V0H33" id="z"/><path d="M185-189c-5-48-123-54-124 2 14 75 158 14 163 119 3 78-121 87-175 55-17-10-28-26-33-46l33-7c5 56 141 63 141-1 0-78-155-14-162-118-5-82 145-84 179-34 5 7 8 16 11 25" id="A"/><path d="M240 0l2-218c-23 76-54 145-80 218h-23L58-218 59 0H30v-248h44l77 211c21-75 51-140 76-211h43V0h-30" id="B"/><g id="c"><use transform="matrix(0.05,0,0,0.05,0,0)" xlink:href="#y"/><use transform="matrix(0.05,0,0,0.05,12.950000000000001,0)" xlink:href="#z"/><use transform="matrix(0.05,0,0,0.05,17.950000000000003,0)" xlink:href="#A"/><use transform="matrix(0.05,0,0,0.05,29.950000000000003,0)" xlink:href="#B"/></g><path d="M140-251c81 0 123 46 123 126C263-46 219 4 140 4 59 4 17-45 17-125s42-126 123-126zm0 227c63 0 89-41 89-101s-29-99-89-99c-61 0-89 39-89 99S79-25 140-24" id="C"/><g id="d"><use transform="matrix(0.05,0,0,0.05,0,0)" xlink:href="#A"/><use transform="matrix(0.05,0,0,0.05,12,0)" xlink:href="#C"/></g><path d="M117-194c89-4 53 116 60 194h-32v-121c0-31-8-49-39-48C34-167 62-67 57 0H25l-1-190h30c1 10-1 24 2 32 11-22 29-35 61-36" id="D"/><path d="M101-234c-31-9-42 10-38 44h38v23H63V0H32v-167H5v-23h27c-7-52 17-82 69-68v24" id="E"/><path d="M100-194c62-1 85 37 85 99 1 63-27 99-86 99S16-35 15-95c0-66 28-99 85-99zM99-20c44 1 53-31 53-75 0-43-8-75-51-75s-53 32-53 75 10 74 51 75" id="F"/><path d="M114-163C36-179 61-72 57 0H25l-1-190h30c1 12-1 29 2 39 6-27 23-49 58-41v29" id="G"/><path d="M210-169c-67 3-38 105-44 169h-31v-121c0-29-5-50-35-48C34-165 62-65 56 0H25l-1-190h30c1 10-1 24 2 32 10-44 99-50 107 0 11-21 27-35 58-36 85-2 47 119 55 194h-31v-121c0-29-5-49-35-48" id="H"/><path d="M141-36C126-15 110 5 73 4 37 3 15-17 15-53c-1-64 63-63 125-63 3-35-9-54-41-54-24 1-41 7-42 31l-33-3c5-37 33-52 76-52 45 0 72 20 72 64v82c-1 20 7 32 28 27v20c-31 9-61-2-59-35zM48-53c0 20 12 33 32 33 41-3 63-29 60-74-43 2-92-5-92 41" id="I"/><path d="M9 0v-24l116-142H16v-24h144v24L44-24h123V0H9" id="J"/><path d="M24-231v-30h32v30H24zM24 0v-190h32V0H24" id="K"/><g id="e"><use transform="matrix(0.05,0,0,0.05,0,0)" xlink:href="#z"/><use transform="matrix(0.05,0,0,0.05,5,0)" xlink:href="#D"/><use transform="matrix(0.05,0,0,0.05,15,0)" xlink:href="#E"/><use transform="matrix(0.05,0,0,0.05,20,0)" xlink:href="#F"/><use transform="matrix(0.05,0,0,0.05,30,0)" xlink:href="#G"/><use transform="matrix(0.05,0,0,0.05,35.95,0)" xlink:href="#H"/><use transform="matrix(0.05,0,0,0.05,50.900000000000006,0)" xlink:href="#I"/><use transform="matrix(0.05,0,0,0.05,60.900000000000006,0)" xlink:href="#J"/><use transform="matrix(0.05,0,0,0.05,69.9,0)" xlink:href="#K"/><use transform="matrix(0.05,0,0,0.05,73.85000000000001,0)" xlink:href="#F"/><use transform="matrix(0.05,0,0,0.05,83.85000000000001,0)" xlink:href="#D"/><use transform="matrix(0.05,0,0,0.05,93.85000000000001,0)" xlink:href="#K"/></g><path d="M137 0h-34L2-248h35l83 218 83-218h36" id="L"/><g id="f"><use transform="matrix(0.05,0,0,0.05,0,0)" xlink:href="#L"/><use transform="matrix(0.05,0,0,0.05,12,0)" xlink:href="#z"/><use transform="matrix(0.05,0,0,0.05,17,0)" xlink:href="#A"/><use transform="matrix(0.05,0,0,0.05,29,0)" xlink:href="#C"/></g><path d="M63-220v92h138v28H63V0H30v-248h175v28H63" id="M"/><path d="M212-179c-10-28-35-45-73-45-59 0-87 40-87 99 0 60 29 101 89 101 43 0 62-24 78-52l27 14C228-24 195 4 139 4 59 4 22-46 18-125c-6-104 99-153 187-111 19 9 31 26 39 46" id="N"/><g id="g"><use transform="matrix(0.05,0,0,0.05,0,0)" xlink:href="#A"/><use transform="matrix(0.05,0,0,0.05,12,0)" xlink:href="#M"/><use transform="matrix(0.05,0,0,0.05,22.950000000000003,0)" xlink:href="#N"/></g><path d="M194 0L95-120 63-95V0H30v-248h33v124l119-124h40L117-140 236 0h-42" id="O"/><g id="h"><use transform="matrix(0.05,0,0,0.05,0,0)" xlink:href="#y"/><use transform="matrix(0.05,0,0,0.05,12.950000000000001,0)" xlink:href="#A"/><use transform="matrix(0.05,0,0,0.05,24.950000000000003,0)" xlink:href="#O"/></g><g id="i"><use transform="matrix(0.05,0,0,0.05,0,0)" xlink:href="#A"/><use transform="matrix(0.05,0,0,0.05,12,0)" xlink:href="#C"/></g><path d="M137-103V0h-34v-103L8-248h37l75 118 75-118h37" id="P"/><g id="j"><use transform="matrix(0.05,0,0,0.05,0,0)" xlink:href="#A"/><use transform="matrix(0.05,0,0,0.05,12,0)" xlink:href="#P"/><use transform="matrix(0.05,0,0,0.05,24,0)" xlink:href="#A"/><use transform="matrix(0.05,0,0,0.05,36,0)" xlink:href="#N"/><use transform="matrix(0.05,0,0,0.05,48.95,0)" xlink:href="#C"/><use transform="matrix(0.05,0,0,0.05,62.95,0)" xlink:href="#B"/></g><path d="M190 0L58-211 59 0H30v-248h39L202-35l-2-213h31V0h-41" id="Q"/><path d="M30 0v-248h187v28H63v79h144v27H63v87h162V0H30" id="R"/><path d="M127-220V0H93v-220H8v-28h204v28h-85" id="S"/><g id="k"><use transform="matrix(0.05,0,0,0.05,0,0)" xlink:href="#Q"/><use transform="matrix(0.05,0,0,0.05,12.950000000000001,0)" xlink:href="#R"/><use transform="matrix(0.05,0,0,0.05,24.950000000000003,0)" xlink:href="#S"/></g><path d="M205 0l-28-72H64L36 0H1l101-248h38L239 0h-34zm-38-99l-47-123c-12 45-31 82-46 123h93" id="T"/><path d="M30-248c87 1 191-15 191 75 0 78-77 80-158 76V0H30v-248zm33 125c57 0 124 11 124-50 0-59-68-47-124-48v98" id="U"/><g id="l"><use transform="matrix(0.05,0,0,0.05,0,0)" xlink:href="#T"/><use transform="matrix(0.05,0,0,0.05,12,0)" xlink:href="#U"/><use transform="matrix(0.05,0,0,0.05,24,0)" xlink:href="#U"/></g><path d="M232-93c-1 65-40 97-104 97C67 4 28-28 28-90v-158h33c8 89-33 224 67 224 102 0 64-133 71-224h33v155" id="V"/><path d="M233-177c-1 41-23 64-60 70L243 0h-38l-65-103H63V0H30v-248c88 3 205-21 203 71zM63-129c60-2 137 13 137-47 0-61-80-42-137-45v92" id="W"/><g id="m"><use transform="matrix(0.05,0,0,0.05,0,0)" xlink:href="#A"/><use transform="matrix(0.05,0,0,0.05,12,0)" xlink:href="#R"/><use transform="matrix(0.05,0,0,0.05,24,0)" xlink:href="#N"/><use transform="matrix(0.05,0,0,0.05,36.95,0)" xlink:href="#V"/><use transform="matrix(0.05,0,0,0.05,49.900000000000006,0)" xlink:href="#W"/><use transform="matrix(0.05,0,0,0.05,62.85,0)" xlink:href="#R"/></g><path d="M30 0v-248h33v221h125V0H30" id="X"/><g id="n"><use transform="matrix(0.05,0,0,0.05,0,0)" xlink:href="#L"/><use transform="matrix(0.05,0,0,0.05,12,0)" xlink:href="#C"/><use transform="matrix(0.05,0,0,0.05,26,0)" xlink:href="#X"/></g></defs></g></svg>