<svg xmlns="http://www.w3.org/2000/svg" xmlns:xlink="http://www.w3.org/1999/xlink" xmlns:lucid="lucid" width="1902.36" height="2071.22"><g transform="translate(1632.5829720058755 707.2805942838125)" lucid:page-tab-id="0_0"><path d="M-2000-1000H500v2500h-2500z" fill="#f2f3f5"/><path d="M-646.8-23.1h76.95v61.6h-76.96z" fill="none"/><use xlink:href="#a" transform="matrix(1,0,0,1,-626.8129720058755,-0.10809428381253383) translate(0 14.6)"/><path d="M-287.84 626.12l1.74.03 3.97.25 3.74.4 3.55.52 3.4.64 3.26.77 3.16.88 3.07 1 3 1.13 3 1.25 2.94 1.4 2.96 1.54 3 1.73 3.06 1.94 3.17 2.2 3.34 2.54 3.63 3 4.04 3.64 4.86 4.77 7.17 7.67 22.08 24.57 4.86 4.76 4.05 3.65 3.6 3 3.34 2.54 3.18 2.2 3.06 1.95 3 1.72 2.96 1.55 2.96 1.4 2.97 1.24 3 1.13 3.08 1 3.16.88 3.27.77 3.4.65 3.54.53 3.75.4 3.97.24 1.74.02" stroke="#fc9432" stroke-width="5" stroke-linejoin="round" fill="none"/><path d="M-287.73 623.64l-.1 4.95-2.5-.06v-4.95zM-130.34 715.2v4.95h-2.57v-4.95z" stroke="#fc9432" stroke-width=".05" fill="#fc9432"/><path d="M-638.2 1282.33h95.85v61.6h-95.86z" fill="none"/><use xlink:href="#b" transform="matrix(1,0,0,1,-618.2129720058756,1305.3344057161871) translate(0 14.6)"/><path d="M-402.3 1190.72h209.6v61.6h-209.6z" fill="none"/><use xlink:href="#c" transform="matrix(1,0,0,1,-382.30297200587574,1213.7244057161874) translate(0 14.6)"/><use xlink:href="#d" transform="matrix(1,0,0,1,-382.30297200587574,1213.7244057161874) translate(107.80000000000001 14.6)"/><path d="M-638.2 686.87h76v61.6h-76z" fill="none"/><use xlink:href="#e" transform="matrix(1,0,0,1,-618.2129720058756,709.8694057161874) translate(0 14.6)"/><path d="M83.07-504.06h135.9v61.6H83.08z" fill="none"/><use xlink:href="#f" transform="matrix(1,0,0,1,103.06702799412437,-481.0605942838125) translate(0 14.6)"/><use xlink:href="#g" transform="matrix(1,0,0,1,103.06702799412437,-481.0605942838125) translate(64.9 14.6)"/><path d="M-914.77 1076.2h114.86v61.62h-114.87z" fill="none"/><use xlink:href="#h" transform="matrix(1,0,0,1,-894.7729720058755,1099.2119057161872) translate(0 14.6)"/><path d="M-130.34 595.26H6.56v61.6h-136.9z" fill="none"/><use xlink:href="#i" transform="matrix(1,0,0,1,-110.34297200587571,618.2594057161873) translate(0 14.6)"/><path d="M83.07-595.67h166.7v61.6H83.08z" fill="none"/><use xlink:href="#j" transform="matrix(1,0,0,1,103.06702799412437,-572.6705942838125) translate(0 14.6)"/><use xlink:href="#k" transform="matrix(1,0,0,1,103.06702799412437,-572.6705942838125) translate(77.85 14.6)"/><path d="M-306.94 992.56l1.74.03 3.96.24 3.75.4 3.56.52 3.4.64 3.25.77 3.16.88 3.07 1 3 1.12 3 1.25 2.94 1.4 2.96 1.54 3 1.73 3.06 1.93 3.17 2.2 3.35 2.55 3.6 3 4.05 3.64 4.86 4.77 7.17 7.66 22.08 24.57 4.86 4.77 4.05 3.65 3.6 3 3.34 2.53 3.18 2.2 3.06 1.95 3 1.73 2.96 1.55 2.96 1.4 2.97 1.25 3 1.12 3.08 1 3.16.88 3.27.76 3.4.66 3.54.53 3.75.38 3.97.25 1.74.03" stroke="#fc9432" stroke-width="5" stroke-linejoin="round" fill="none"/><path d="M-306.83 990.08l-.1 4.95-2.5-.05v-4.95zM-149.44 1081.64v4.95H-152v-4.96z" stroke="#fc9432" stroke-width=".05" fill="#fc9432"/><path d="M-402.2 595.26h111.86v61.6H-402.2z" fill="none"/><use xlink:href="#l" transform="matrix(1,0,0,1,-382.2029720058756,618.2594057161873) translate(0 14.6)"/><path d="M83.07-687.28h139.46v61.6H83.07z" fill="none"/><use xlink:href="#m" transform="matrix(1,0,0,1,103.06702799412437,-664.2805942838125) translate(0 14.6)"/><use xlink:href="#n" transform="matrix(1,0,0,1,103.06702799412437,-664.2805942838125) translate(36 14.6)"/><path d="M-804.32-118.12l.3.03.92.14.92.18.92.22.92.25.94.3.94.35.97.4 1 .47 1 .52 1.03.6 1.07.68 1.1.77 1.16.87 1.22 1 1.27 1.15 1.35 1.32 1.43 1.53 1.54 1.78 1.65 2.1 1.8 2.46 1.96 2.97 2.16 3.58 2.42 4.4 2.73 5.5 3.12 7.06 3.66 9.3 4.4 12.7 5.56 18.48L-747.22-7-731 71.5l24.6 122.66 7.64 30.03 5.54 18.46 4.4 12.7 3.68 9.3 3.13 7.04 2.72 5.5 2.4 4.4 2.18 3.6 1.96 2.95 1.8 2.47 1.65 2.1 1.54 1.77 1.43 1.52 1.35 1.32 1.28 1.15 1.2 1 1.16.87 1.12.77 1.07.68 1.03.6 1 .53 1 .46.95.4.95.37.93.3.93.26.92.2.92.2.92.12.3.04" stroke="#635dff" stroke-width="5" stroke-linejoin="round" fill="none"/><path d="M-804.2-120.7l-.1 4.96-2.5-.05v-4.94zM-646.8 302.95v4.95h-2.58v-4.95z" stroke="#635dff" stroke-width=".05" fill="#635dff"/><path d="M-402.2 778.48h153.5v61.6h-153.5z" fill="none"/><use xlink:href="#o" transform="matrix(1,0,0,1,-382.2029720058756,801.4794057161871) translate(0 14.6)"/><path d="M-369 228.82h92.96v61.6H-369z" fill="none"/><use xlink:href="#p" transform="matrix(1,0,0,1,-349.00297200587556,251.81940571618748) translate(0 14.6)"/><path d="M-305.44-427.4h.36l2.73.18 2.64.28 2.53.37 2.48.47 2.42.57 2.36.66 2.34.76 2.3.85 2.3.96 2.28 1.1 2.3 1.2 2.32 1.33 2.36 1.5 2.4 1.67 2.48 1.88 2.56 2.12 2.68 2.42 2.84 2.77 3.03 3.23 3.32 3.84 3.7 4.7 4.4 6.06 5.73 8.65 30.98 50.8 4.4 6.05 3.72 4.7 3.32 3.86 3.04 3.22 2.83 2.78 2.7 2.4 2.55 2.13 2.48 1.88 2.4 1.7 2.36 1.48 2.3 1.34 2.3 1.2 2.3 1.08 2.3.97 2.3.86 2.33.75 2.37.66 2.4.57 2.48.48 2.55.38 2.63.27 2.74.17h.36" stroke="#635dff" stroke-width="5" stroke-linejoin="round" fill="none"/><path d="M-305.32-429.87l-.1 4.95-2.52-.06v-4.95zM-147.94-292.5v4.94h-2.57v-4.95z" stroke="#635dff" stroke-width=".05" fill="#635dff"/><path d="M-167.9 45.6h80.97v61.6h-80.96z" fill="none"/><use xlink:href="#q" transform="matrix(1,0,0,1,-147.89297200587544,68.59940571618745) translate(0 14.6)"/><path d="M-167.9-46h117.82v61.6h-117.8z" fill="none"/><use xlink:href="#r" transform="matrix(1,0,0,1,-147.89297200587544,-23.01059428381268) translate(0 14.6)"/><path d="M-1551.28 509.38h76.5v61.6h-76.5z" fill="none"/><use xlink:href="#s" transform="matrix(1,0,0,1,-1531.2829720058755,532.3750307161872) translate(0 14.6)"/><path d="M-1612.58 326.15h137.8v61.62h-137.8z" fill="none"/><use xlink:href="#t" transform="matrix(1,0,0,1,-1592.5829720058755,349.1550307161874) translate(0 14.6)"/><path d="M-135-229.23H1.78v61.6H-135z" fill="none"/><use xlink:href="#u" transform="matrix(1,0,0,1,-114.99297200587534,-206.2305942838126) translate(0 14.6)"/><use xlink:href="#v" transform="matrix(1,0,0,1,-114.99297200587534,-206.2305942838126) translate(79.85000000000001 14.6)"/><path d="M-190.2 1221.58l5.7.12 7.2.45 6.46.67 5.88.87 5.43 1.02 5.1 1.2 4.92 1.37 4.8 1.55 4.83 1.8 5.07 2.14 5.7 2.68 7.8 4.1 25 13.8 5.7 2.7 5.1 2.13 4.83 1.8 4.8 1.57 4.9 1.37 5.1 1.2 5.45 1.03 5.87.87 6.45.68 7.2.45 5.7.1" stroke="#fc9432" stroke-width="5" stroke-linejoin="round" fill="none"/><path d="M-190.08 1219.1l-.1 4.96-2.5-.05v-4.95zM-32.7 1264.86v4.95h-2.56v-4.94z" stroke="#fc9432" stroke-width=".05" fill="#fc9432"/><path d="M-795.7 1015.5l.14.02 1.3.13 1.27.2 1.28.23 1.26.3 1.26.35 1.27.42 1.28.47 1.3.54 1.3.62 1.34.7 1.35.8 1.4.88 1.46 1 1.5 1.15 1.57 1.3 1.63 1.47 1.72 1.7 1.82 1.93 1.94 2.24 2.08 2.63 2.24 3.1 2.45 3.68 2.7 4.46 3 5.5 3.44 6.92 3.98 9 4.84 12.27 6.33 18.26 10.7 35.9 27.37 97.12 6.33 18.28 4.84 12.27 4 9 3.4 6.9 3.03 5.5 2.7 4.47 2.44 3.7 2.25 3.08 2.07 2.62 1.93 2.25 1.82 1.94 1.72 1.67 1.64 1.47 1.57 1.3 1.5 1.14 1.45 1 1.4.9 1.37.8 1.32.7 1.3.6 1.3.54 1.28.48 1.27.4 1.26.37 1.27.3 1.27.23 1.27.2 1.3.13h.15" stroke="#fc9432" stroke-width="5" stroke-linejoin="round" fill="none"/><path d="M-795.6 1013l-.1 4.93-2.5-.05v-4.95zM-638.2 1310.66v4.95h-2.58v-4.94z" stroke="#fc9432" stroke-width=".05" fill="#fc9432"/><path d="M-74.43-564.8l1.74.02 3.98.25 3.73.4 3.56.52 3.4.63 3.26.77 3.15.88 3.07 1 3 1.12 3 1.25 2.94 1.4 2.96 1.54 3 1.72 3.06 1.94 3.18 2.2 3.35 2.55 3.6 3 4.05 3.65 4.86 4.77 7.17 7.67 22.1 24.56 4.85 4.77 4.05 3.65 3.6 3 3.36 2.53 3.17 2.22 3.06 1.94 3 1.73 2.95 1.54 2.96 1.4 2.98 1.24 3 1.12 3.08 1 3.16.88 3.26.77 3.4.64 3.54.5 3.74.4 3.97.26 1.74.03" stroke="#635dff" stroke-width="5" stroke-linejoin="round" fill="none"/><path d="M-74.32-567.3l-.1 4.96-2.5-.05v-4.94zM83.07-475.73v4.95H80.5v-4.95z" stroke="#635dff" stroke-width=".05" fill="#635dff"/><path d="M-409.85-.2h81.96v61.6h-81.95z" fill="none"/><use xlink:href="#w" transform="matrix(1,0,0,1,-389.8529720058755,22.794405716187384) translate(0 14.6)"/><path d="M-420.8-687.28h75.9v61.6h-75.9z" fill="none"/><use xlink:href="#x" transform="matrix(1,0,0,1,-400.8029720058755,-664.2805942838125) translate(0 14.6)"/><path d="M-559.7 717.73l1.74.03 3.97.25 3.75.4 3.54.53 3.4.64 3.25.77 3.15.88 3.07 1 3 1.12 3 1.25 2.94 1.38 2.97 1.55 3 1.73 3.06 1.94 3.18 2.2 3.36 2.55 3.6 3 4.05 3.64 4.87 4.76 7.17 7.67 22.08 24.57 4.86 4.77 4.05 3.65 3.6 3 3.36 2.53 3.16 2.2 3.06 1.95 3 1.73 2.96 1.55 2.96 1.4 2.97 1.24 3.02 1.12 3.07 1 3.15.88 3.26.76 3.4.65 3.55.52 3.74.4 3.96.25 1.74.03" stroke="#fc9432" stroke-width="5" stroke-linejoin="round" fill="none"/><path d="M-559.6 715.25l-.1 4.95-2.5-.05v-4.95zM-402.2 806.8v4.96h-2.57v-4.95z" stroke="#fc9432" stroke-width=".05" fill="#fc9432"/><path d="M-1317.28 494.43h-.35l-2.74.18-2.63.28-2.55.38-2.47.47-2.4.57-2.38.66-2.33.75-2.3.87-2.3.97-2.3 1.07-2.3 1.22-2.3 1.34-2.37 1.5-2.4 1.67-2.48 1.88-2.56 2.13-2.68 2.4-2.83 2.8-3.04 3.22-3.3 3.85-3.73 4.7-4.4 6.06-5.7 8.64-31 50.8-4.4 6.06-3.7 4.7-3.33 3.85-3.03 3.25-2.83 2.77-2.68 2.42-2.57 2.12-2.47 1.88-2.4 1.67-2.37 1.5-2.33 1.35-2.3 1.2-2.3 1.08-2.28.96-2.32.85-2.33.76-2.36.67-2.43.56-2.47.48-2.54.38-2.64.28-2.73.17h-.37" stroke="#008a0e" stroke-width="5" stroke-linejoin="round" fill="none"/><path d="M-1314.77 494.38l.2 2.47-2.72.05-.1-4.95 2.82-.06zM-1472.2 634.26h-2.57v-4.94h2.56z" stroke="#008a0e" stroke-width=".05" fill="#008a0e"/><path d="M-646.8 274.62H-529v61.6h-117.8z" fill="none"/><use xlink:href="#y" transform="matrix(1,0,0,1,-626.8129720058755,297.62440571618754) translate(0 14.6)"/><path d="M-292.5-152.57l5.7.12 7.2.45 6.46.67 5.88.87 5.43 1.03 5.1 1.2 4.92 1.37 4.8 1.56 4.83 1.8 5.07 2.14 5.7 2.7 7.8 4.08 25 13.8 5.7 2.7 5.1 2.14 4.83 1.8 4.8 1.56 4.9 1.37 5.12 1.2 5.43 1.02 5.87.87 6.45.67 7.2.45 5.7.1" stroke="#635dff" stroke-width="5" stroke-linejoin="round" fill="none"/><path d="M-292.38-155.04l-.1 4.95-2.5-.05v-4.95zM-135-109.3v4.96h-2.56v-4.95z" stroke="#635dff" stroke-width=".05" fill="#635dff"/><path d="M-420.8-458.26h112.86v61.6H-420.8z" fill="none"/><use xlink:href="#z" transform="matrix(1,0,0,1,-400.8029720058755,-435.25559428381257) translate(0 14.6)"/><path d="M-149.44 1053.3h117.5v61.62h-117.5z" fill="none"/><use xlink:href="#A" transform="matrix(1,0,0,1,-129.44297200587562,1076.3094057161875) translate(0 14.6)"/><use xlink:href="#B" transform="matrix(1,0,0,1,-129.44297200587562,1076.3094057161875) translate(40.550000000000004 14.6)"/><path d="M-115.1 412.04H15.68v61.6H-115.1z" fill="none"/><use xlink:href="#C" transform="matrix(1,0,0,1,-95.09297200587548,435.0394057161875) translate(0 14.6)"/><path d="M-1314.77 494.38a40 40 0 0 1 40-40h160a40 40 0 0 1 40 40 40 40 0 0 1-40 40h-160a40 40 0 0 1-40-40z" fill="#fff"/><use xlink:href="#D" transform="matrix(1,0,0,1,-1314.7729720058755,454.3750307161873) translate(51.27777777777777 44)"/><use xlink:href="#E" transform="matrix(1,0,0,1,-1314.7729720058755,454.3750307161873) translate(143.38888888888889 44)"/><path d="M-130.34 686.87h88.6v61.6h-88.6z" fill="none"/><use xlink:href="#F" transform="matrix(1,0,0,1,-110.34297200587571,709.8694057161874) translate(0 14.6)"/><path d="M-638.2 1076.2h75.9v61.62h-75.9z" fill="none"/><use xlink:href="#G" transform="matrix(1,0,0,1,-618.2129720058756,1099.2119057161872) translate(0 14.6)"/><path d="M-526.5 305.48l5.7.12 7.2.45 6.45.67 5.88.87 5.43 1.02 5.1 1.2 4.92 1.37 4.8 1.55 4.84 1.8 5.07 2.14 5.7 2.68 7.8 4.1 25 13.8 5.7 2.7 5.08 2.13 4.83 1.8 4.82 1.57 4.9 1.37 5.1 1.2 5.45 1.03 5.87.87 6.46.68 7.2.45 5.7.1" stroke="#635dff" stroke-width="5" stroke-linejoin="round" fill="none"/><path d="M-526.4 303l-.1 4.96-2.5-.06v-4.95zM-369 348.76v4.95h-2.57v-4.94z" stroke="#635dff" stroke-width=".05" fill="#635dff"/><path d="M-1596.53 601h121.76v61.6h-121.76z" fill="none"/><use xlink:href="#H" transform="matrix(1,0,0,1,-1576.5329720058755,623.9850307161873) translate(0 14.6)"/><path d="M-115.1 320.43H57.63v61.6h-172.7z" fill="none"/><use xlink:href="#I" transform="matrix(1,0,0,1,-95.09297200587548,343.4294057161874) translate(0 14.6)"/><use xlink:href="#J" transform="matrix(1,0,0,1,-95.09297200587548,343.4294057161874) translate(110.80000000000001 14.6)"/><path d="M-402.3 961.7h92.86v61.6h-92.86z" fill="none"/><use xlink:href="#K" transform="matrix(1,0,0,1,-382.30297200587574,984.6994057161874) translate(0 14.6)"/><path d="M-149.44 870.1h100.86v61.6h-100.86z" fill="none"/><use xlink:href="#L" transform="matrix(1,0,0,1,-129.44297200587562,893.0894057161872) translate(0 14.6)"/><path d="M-149.44 961.7h106.96v61.6h-106.96z" fill="none"/><use xlink:href="#M" transform="matrix(1,0,0,1,-129.44297200587562,984.6994057161874) translate(0 14.6)"/><path d="M-409.85 137.2h84.9v61.62h-84.9z" fill="none"/><use xlink:href="#N" transform="matrix(1,0,0,1,-389.8529720058755,160.20940571618758) translate(0 14.6)"/><path d="M-914.77-149.07h107.96v61.6h-107.97z" fill="none"/><use xlink:href="#O" transform="matrix(1,0,0,1,-894.7729720058755,-126.07184428381242) translate(0 14.6)"/><use xlink:href="#P" transform="matrix(1,0,0,1,-894.7729720058755,-126.07184428381242) translate(41.95 14.6)"/><path d="M-130.34 503.65H-6.78v61.6h-123.56z" fill="none"/><use xlink:href="#Q" transform="matrix(1,0,0,1,-110.34297200587571,526.6494057161872) translate(0 14.6)"/><path d="M-115.1 228.82H40.63v61.6h-155.7z" fill="none"/><use xlink:href="#R" transform="matrix(1,0,0,1,-95.09297200587548,251.81940571618748) translate(0 14.6)"/><use xlink:href="#S" transform="matrix(1,0,0,1,-95.09297200587548,251.81940571618748) translate(93.80000000000001 14.6)"/><path d="M-578.3-541.9h.9l3.25.2 3.1.34 2.96.43 2.87.55 2.77.65 2.7.75 2.65.86 2.6.98 2.6 1.08 2.56 1.2 2.58 1.36 2.6 1.5 2.63 1.68 2.7 1.87 2.8 2.12 2.9 2.4 3.1 2.8 3.32 3.26 3.7 3.94 4.3 5 5.52 6.98 30.3 41.48 4.28 5 3.7 3.93 3.33 3.26 3.1 2.78 2.9 2.4 2.8 2.13 2.7 1.88 2.63 1.7 2.6 1.5 2.58 1.33 2.57 1.22 2.6 1.08 2.6.97 2.65.86 2.7.76 2.78.65 2.86.54 2.95.45 3.1.32 3.23.2.92.03" stroke="#635dff" stroke-width="5" stroke-linejoin="round" fill="none"/><path d="M-578.2-544.38l-.1 4.95-2.5-.06v-4.94zM-420.8-429.93v4.95h-2.57v-4.95z" stroke="#635dff" stroke-width=".05" fill="#635dff"/><path d="M-559.8 1107.07l.9.02 3.25.2 3.1.32 2.96.43 2.87.55 2.77.65 2.7.75 2.65.86 2.6.98 2.6 1.08 2.56 1.2 2.58 1.36 2.6 1.5 2.63 1.68 2.7 1.87 2.8 2.12 2.9 2.4 3.1 2.8 3.32 3.26 3.7 3.95 4.3 5 5.52 6.98 30.3 41.48 4.28 5 3.7 3.94 3.33 3.26 3.1 2.78 2.9 2.4 2.8 2.13 2.7 1.9 2.63 1.66 2.6 1.5 2.58 1.36 2.57 1.2 2.6 1.1 2.6.96 2.65.86 2.7.76 2.78.65 2.86.54 2.95.43 3.1.33 3.23.2.92.02" stroke="#fc9432" stroke-width="5" stroke-linejoin="round" fill="none"/><path d="M-559.7 1104.6l-.1 4.95-2.5-.06v-4.96zM-402.3 1219.05v4.95h-2.57v-4.95z" stroke="#fc9432" stroke-width=".05" fill="#fc9432"/><path d="M-369 320.43h93.9v61.6H-369z" fill="none"/><use xlink:href="#T" transform="matrix(1,0,0,1,-349.00297200587556,343.4294057161874) translate(0 14.6)"/><path d="M-914.77 984.6h116.56v61.6h-116.57z" fill="none"/><use xlink:href="#A" transform="matrix(1,0,0,1,-894.7729720058755,1007.601905716187) translate(0 14.6)"/><use xlink:href="#U" transform="matrix(1,0,0,1,-894.7729720058755,1007.601905716187) translate(40.550000000000004 14.6)"/><path d="M-1557.78 417.76h83v61.62h-83z" fill="none"/><use xlink:href="#V" transform="matrix(1,0,0,1,-1537.7829720058755,440.7650307161871) translate(0 14.6)"/><path d="M-567.35 7.75l2.33.15 2.3.24 2.22.33 2.18.4 2.13.5 2.12.6 2.08.68 2.07.77 2.06.86 2.07.98 2.08 1.1 2.1 1.2 2.14 1.36 2.2 1.52 2.24 1.7 2.32 1.93 2.42 2.18 2.55 2.5 2.7 2.87 2.9 3.36 3.14 3.98 3.5 4.85 4.07 6.13 5 8.28 7.36 13.47 25.8 49.83 5 8.28 4.05 6.12 3.52 4.85 3.16 4 2.9 3.34 2.7 2.87 2.53 2.5 2.4 2.17 2.34 1.92 2.24 1.7 2.2 1.53 2.13 1.35 2.12 1.22 2.08 1.08 2.06.98 2.07.86 2.07.76 2.08.68 2.1.6 2.14.5 2.17.4 2.22.33 2.3.24 2.33.16" stroke="#635dff" stroke-width="5" stroke-linejoin="round" fill="none"/><path d="M-567.24 5.28l-.1 4.94-2.5-.05V5.22zM-409.85 165.54v4.95h-2.57v-4.96z" stroke="#635dff" stroke-width=".05" fill="#635dff"/><path d="M-147.94-412.45h77.9v61.6h-77.9z" fill="none"/><use xlink:href="#W" transform="matrix(1,0,0,1,-127.94297200587562,-389.4505942838126) translate(0 14.6)"/><path d="M-147.94-320.84h96.9v61.6h-96.9z" fill="none"/><use xlink:href="#X" transform="matrix(1,0,0,1,-127.94297200587562,-297.8405942838125) translate(0 14.6)"/><path d="M-32.7 1144.92h84.87v61.6H-32.7z" fill="none"/><use xlink:href="#Y" transform="matrix(1,0,0,1,-12.692972005875617,1167.9194057161872) translate(0 14.6)"/><path d="M-272.6 351.3l1.75.02 3.97.25 3.74.4 3.54.52 3.4.63 3.26.77 3.15.88 3.08 1 3 1.12 3 1.25 2.94 1.4 2.96 1.54 3 1.72 3.06 1.94 3.18 2.2 3.34 2.55 3.62 3 4.04 3.65 4.86 4.77 7.17 7.67 22.08 24.56 4.86 4.77 4.04 3.65 3.6 3 3.36 2.53 3.17 2.22 3.06 1.94 3 1.73 2.96 1.54 2.95 1.4 2.97 1.24 3 1.12 3.08 1 3.16.88 3.26.76 3.4.65 3.54.5 3.74.4 3.97.26 1.74.03" stroke="#635dff" stroke-width="5" stroke-linejoin="round" fill="none"/><path d="M-272.48 348.8l-.1 4.96-2.5-.05v-4.94zM-115.1 440.37v4.95h-2.56v-4.95z" stroke="#635dff" stroke-width=".05" fill="#635dff"/><path d="M-409.85-183.43H-295v61.6h-114.85z" fill="none"/><use xlink:href="#Z" transform="matrix(1,0,0,1,-389.8529720058755,-160.42559428381253) translate(0 14.6)"/><path d="M-135-137.62H2.73v61.6h-137.7z" fill="none"/><use xlink:href="#u" transform="matrix(1,0,0,1,-114.99297200587534,-114.62059428381235) translate(0 14.6)"/><use xlink:href="#aa" transform="matrix(1,0,0,1,-114.99297200587534,-114.62059428381235) translate(79.85000000000001 14.6)"/><path d="M-646.8-572.77h66v61.6h-66z" fill="none"/><use xlink:href="#ab" transform="matrix(1,0,0,1,-626.8129720058755,-549.7680942838125) translate(0 14.6)"/><path d="M-147.94-595.67h71v61.6h-71z" fill="none"/><use xlink:href="#ac" transform="matrix(1,0,0,1,-127.94297200587562,-572.6705942838125) translate(0 14.6)"/><path d="M-32.7 1236.53H75.23v61.6h-107.9z" fill="none"/><use xlink:href="#ad" transform="matrix(1,0,0,1,-12.692972005875617,1259.5294057161873) translate(0 14.6)"/><path d="M-420.8-595.67h84.9v61.6h-84.9z" fill="none"/><use xlink:href="#ae" transform="matrix(1,0,0,1,-400.8029720058755,-572.6705942838125) translate(0 14.6)"/><path d="M-325.4 30.65l5.7.12 7.2.45 6.46.67 5.88.86 5.43 1.04 5.1 1.2 4.92 1.36 4.8 1.56 4.83 1.8 5.07 2.14 5.7 2.7 7.8 4.08 25 13.8 5.7 2.7 5.1 2.14 4.82 1.8 4.8 1.56 4.9 1.37 5.13 1.2 5.43 1.04 5.87.87 6.46.7 7.2.44 5.7.1" stroke="#635dff" stroke-width="5" stroke-linejoin="round" fill="none"/><path d="M-325.28 28.18l-.1 4.95-2.5-.05v-4.96zM-167.9 73.93v4.95h-2.56v-4.95z" stroke="#635dff" stroke-width=".05" fill="#635dff"/><path d="M-804.3-118.22l.6.02 2.97.18 2.84.3 2.75.4 2.65.5 2.58.62 2.53.7 2.5.8 2.43.92 2.43 1.02 2.42 1.14 2.43 1.27 2.46 1.42 2.5 1.57 2.53 1.77 2.6 2 2.72 2.25 2.86 2.57 3.04 2.98 3.3 3.5 3.67 4.27 4.27 5.42 5.5 7.57 31.33 47.07 4.3 5.42 3.66 4.26 3.3 3.5 3.04 3 2.85 2.56 2.72 2.25 2.6 2 2.55 1.76 2.5 1.56 2.44 1.42 2.43 1.27 2.4 1.14 2.44 1 2.45.92 2.47.8 2.52.7 2.57.62 2.65.5 2.74.4 2.85.3 2.97.2h.62" stroke="#635dff" stroke-width="5" stroke-linejoin="round" fill="none"/><path d="M-804.2-120.7l-.1 4.96-2.5-.05v-4.94zM-646.8 5.22v4.95h-2.58V5.22z" stroke="#635dff" stroke-width=".05" fill="#635dff"/><path d="M-306.94 992.5h155" stroke="#fc9432" stroke-width="5" stroke-linejoin="round" fill="none"/><path d="M-306.88 994.98h-2.56v-4.95h2.56zM-149.44 994.98H-152v-4.95h2.56z" stroke="#fc9432" stroke-width=".05" fill="#fc9432"/><path d="M-526.5 305.38l5.7-.12 7.2-.45 6.45-.67 5.88-.86 5.43-1.04 5.1-1.2 4.92-1.36 4.8-1.56 4.84-1.8 5.07-2.13 5.7-2.7 7.8-4.08 25-13.82 5.7-2.7 5.08-2.13 4.83-1.8 4.82-1.56 4.9-1.38 5.1-1.2 5.45-1.03 5.87-.88 6.46-.68 7.2-.45 5.7-.12" stroke="#635dff" stroke-width="5" stroke-linejoin="round" fill="none"/><path d="M-526.4 307.85l-2.6.05v-4.95l2.5-.05zM-369 262.1h-2.57v-4.95h2.57z" stroke="#635dff" stroke-width=".05" fill="#635dff"/><path d="M-567.35 7.75l12.88.26 12.2.76 10.23 1.08 9.15 1.34 8.85 1.7 9.95 2.34 38.45 10.2 8.83 1.7 9.15 1.34 10.25 1.07 12.2.76 12.87.25" stroke="#635dff" stroke-width="5" stroke-linejoin="round" fill="none"/><path d="M-567.24 5.27l-.1 4.95-2.5-.05V5.22zM-409.85 28.12v4.95h-2.57v-4.95z" stroke="#635dff" stroke-width=".05" fill="#635dff"/><path d="M-305.44-427.4l5.7.12 7.2.45 6.45.67 5.9.87 5.42 1.05 5.1 1.2 4.92 1.36 4.8 1.57 4.84 1.8 5.07 2.14 5.7 2.7 7.8 4.1 25 13.8 5.7 2.7 5.1 2.13 4.82 1.8 4.8 1.56 4.9 1.36 5.13 1.2 5.43 1.03 5.87.86 6.46.68 7.2.45 5.7.1" stroke="#635dff" stroke-width="5" stroke-linejoin="round" fill="none"/><path d="M-305.33-429.87l-.1 4.95-2.5-.06v-4.95zM-147.94-384.12v4.95h-2.57v-4.95z" stroke="#635dff" stroke-width=".05" fill="#635dff"/><path d="M-190.2 1221.48l5.7-.12 7.2-.45 6.46-.67 5.88-.86 5.43-1.04 5.1-1.2 4.92-1.36 4.8-1.56 4.83-1.8 5.07-2.13 5.7-2.7 7.8-4.08 25-13.82 5.7-2.7 5.1-2.13 4.83-1.8 4.8-1.56 4.9-1.38 5.1-1.2 5.45-1.04 5.87-.86 6.45-.68 7.2-.45 5.7-.12" stroke="#fc9432" stroke-width="5" stroke-linejoin="round" fill="none"/><path d="M-190.08 1223.95l-2.6.06v-4.95l2.5-.05zM-32.7 1178.2h-2.56v-4.95h2.57z" stroke="#fc9432" stroke-width=".05" fill="#fc9432"/><path d="M-1072.28 494.58h.1l.65.14.65.15.66.18.67.22.68.25.7.3.7.33.74.4.76.43.8.5.8.57.87.65.9.75.97.87 1.02 1 1.08 1.16 1.17 1.36 1.28 1.6 1.4 1.92 1.52 2.3 1.7 2.82 1.9 3.47 2.16 4.36 2.5 5.6 2.9 7.38 3.48 10.02 4.26 14.2 5.45 21.38 7.47 35.56 12.45 75.2 42.66 297.3 7.48 35.57 5.45 21.4 4.28 14.2 3.47 10 2.9 7.38 2.5 5.6 2.16 4.37 1.9 3.47 1.7 2.8 1.54 2.3 1.4 1.92 1.26 1.6 1.17 1.37 1.1 1.17 1 1 .97.87.9.75.87.64.83.58.8.5.75.43.73.4.73.32.7.3.67.25.67.22.66.18.65.15.65.13.1.02" stroke="#e81313" stroke-width="5" stroke-linejoin="round" fill="none"/><path d="M-1072.15 491.95l-.1 4.95-2.72-.05.2-2.48-.2-2.48zM-914.77 1104.54v4.95h-2.57v-4.96z" stroke="#e81313" stroke-width=".05" fill="#e81313"/><path d="M-559.8 1106.96h.9l3.25-.22 3.1-.32 2.96-.44 2.87-.55 2.77-.64 2.7-.77 2.65-.86 2.6-.97 2.6-1.1 2.56-1.2 2.58-1.35 2.6-1.5 2.63-1.67 2.7-1.88 2.8-2.12 2.9-2.4 3.1-2.8 3.32-3.26 3.7-3.94 4.3-5 5.52-6.98 30.3-41.47 4.28-5 3.7-3.93 3.33-3.27 3.1-2.78 2.9-2.4 2.8-2.13 2.7-1.88 2.63-1.67 2.6-1.5 2.58-1.35 2.57-1.2 2.6-1.1 2.6-.97 2.65-.86 2.7-.76 2.78-.65 2.86-.56 2.95-.44 3.1-.32 3.23-.2.92-.02" stroke="#fc9432" stroke-width="5" stroke-linejoin="round" fill="none"/><path d="M-559.7 1109.44l-2.6.05v-4.96l2.5-.05zM-402.3 994.98h-2.57v-4.95h2.57z" stroke="#fc9432" stroke-width=".05" fill="#fc9432"/><path d="M-272.6 351.23h155" stroke="#635dff" stroke-width="5" stroke-linejoin="round" fill="none"/><path d="M-272.53 353.7h-2.56v-4.94h2.57zM-115.1 353.7h-2.56v-4.94h2.57z" stroke="#635dff" stroke-width=".05" fill="#635dff"/><path d="M-74.43-564.87h155" stroke="#635dff" stroke-width="5" stroke-linejoin="round" fill="none"/><path d="M-74.37-562.4h-2.56v-4.94h2.56zM83.07-562.4H80.5v-4.94h2.57z" stroke="#635dff" stroke-width=".05" fill="#635dff"/><path d="M-795.7 1015.46l1.73.03 3.97.24 3.74.4 3.54.52 3.4.65 3.26.77 3.15.88 3.06 1 3 1.12 3 1.25 2.94 1.4 2.96 1.54 3 1.73 3.07 1.93 3.17 2.2 3.35 2.55 3.6 3 4.05 3.64 4.86 4.77 7.17 7.66 22.08 24.57 4.87 4.77 4.05 3.65 3.6 3 3.36 2.53 3.17 2.2 3.06 1.95 3 1.73 2.97 1.55 2.96 1.4 2.97 1.25 3 1.12 3.08 1 3.16.88 3.26.77 3.4.64 3.54.53 3.74.38 3.97.25 1.74.03" stroke="#fc9432" stroke-width="5" stroke-linejoin="round" fill="none"/><path d="M-795.6 1013l-.1 4.93-2.5-.05v-4.95zM-638.2 1104.54v4.95h-2.58v-4.96z" stroke="#fc9432" stroke-width=".05" fill="#fc9432"/><path d="M-578.3-542l12.88-.27 12.2-.76 10.23-1.07 9.16-1.35 8.84-1.7 9.96-2.33 38.44-10.2 8.84-1.7 9.14-1.35 10.25-1.07 12.2-.76 12.87-.26" stroke="#635dff" stroke-width="5" stroke-linejoin="round" fill="none"/><path d="M-578.2-539.54l-2.6.05v-4.94l2.5-.05zM-420.8-562.4h-2.57v-4.94h2.57z" stroke="#635dff" stroke-width=".05" fill="#635dff"/><path d="M-559.7 717.62l1.74-.03 3.97-.26 3.75-.4 3.54-.52 3.4-.64 3.25-.77 3.15-.87 3.07-1 3-1.12 3-1.24 2.94-1.4 2.97-1.54 3-1.73 3.06-1.95 3.18-2.2 3.36-2.55 3.6-3 4.05-3.64 4.87-4.77 7.17-7.68 22.08-24.57 4.86-4.77 4.05-3.65 3.6-3 3.36-2.53 3.16-2.2 3.06-1.95 3-1.73 2.96-1.55 2.96-1.4 2.97-1.24 3.02-1.12 3.07-1 3.15-.87 3.26-.77 3.4-.64 3.55-.53 3.74-.4 3.96-.25 1.74-.03" stroke="#fc9432" stroke-width="5" stroke-linejoin="round" fill="none"/><path d="M-559.6 720.1l-2.6.05v-4.95l2.5-.05zM-402.2 628.54h-2.57v-4.95h2.57z" stroke="#fc9432" stroke-width=".05" fill="#fc9432"/><path d="M-287.84 626.06h155" stroke="#fc9432" stroke-width="5" stroke-linejoin="round" fill="none"/><path d="M-287.78 628.54h-2.56v-4.95h2.56zM-130.34 628.54h-2.57v-4.95h2.56z" stroke="#fc9432" stroke-width=".05" fill="#fc9432"/><path d="M-292.5-152.67l5.7-.12 7.2-.44 6.46-.67 5.88-.88 5.43-1.04 5.1-1.2 4.92-1.36 4.8-1.56 4.83-1.8 5.07-2.14 5.7-2.7 7.8-4.08 25-13.8 5.7-2.7 5.1-2.14 4.83-1.8 4.8-1.56 4.9-1.37 5.12-1.2 5.43-1.03 5.87-.87 6.45-.68 7.2-.46 5.7-.1" stroke="#635dff" stroke-width="5" stroke-linejoin="round" fill="none"/><path d="M-292.38-150.2l-2.6.05v-4.95l2.5-.05zM-135-195.95h-2.56v-4.95h2.57z" stroke="#635dff" stroke-width=".05" fill="#635dff"/><path d="M-325.4 30.55l5.7-.12 7.2-.45 6.46-.68 5.88-.86 5.43-1.04 5.1-1.2 4.92-1.36 4.8-1.56 4.83-1.8 5.07-2.14 5.7-2.7 7.8-4.08 25-13.8 5.7-2.7 5.1-2.14 4.82-1.8 4.8-1.56 4.9-1.37 5.13-1.2 5.43-1.04 5.87-.87 6.46-.7 7.2-.44 5.7-.1" stroke="#635dff" stroke-width="5" stroke-linejoin="round" fill="none"/><path d="M-325.28 33.02l-2.6.05v-4.95l2.5-.05zM-167.9-12.73h-2.56v-4.95h2.57z" stroke="#635dff" stroke-width=".05" fill="#635dff"/><path d="M-272.6 351.18l1.75-.03 3.97-.25 3.74-.4 3.54-.52 3.4-.65 3.26-.76 3.15-.88 3.08-1 3-1.13 3-1.25 2.94-1.4 2.96-1.54 3-1.73 3.06-1.94 3.18-2.2 3.34-2.54 3.62-3 4.04-3.64 4.86-4.77 7.17-7.67 22.08-24.57 4.86-4.76 4.04-3.65 3.6-3 3.36-2.54 3.17-2.2 3.06-1.95 3-1.72 2.96-1.55 2.95-1.4 2.97-1.24 3-1.13 3.08-1 3.16-.88 3.26-.78 3.4-.64 3.54-.53 3.74-.4 3.97-.24 1.74-.02" stroke="#635dff" stroke-width="5" stroke-linejoin="round" fill="none"/><path d="M-272.48 353.66l-2.6.05v-4.94l2.5-.05zM-115.1 262.1h-2.56v-4.95h2.57z" stroke="#635dff" stroke-width=".05" fill="#635dff"/><path d="M-1072.28 494.55l.55.08.75.14.76.18.77.22.77.25.8.3.8.33.82.4.84.43.87.5.9.58.95.65.98.76 1.03.85 1.1 1 1.16 1.13 1.23 1.3 1.32 1.55 1.43 1.8 1.56 2.16 1.72 2.58 1.9 3.13 2.1 3.86 2.4 4.85 2.76 6.2 3.22 8.15 3.84 11.08 4.74 15.77 6.15 24.12 8.9 42.36 49.7 289.68 6.14 24.13 4.74 15.77 3.85 11.08 3.22 8.15 2.75 6.2 2.4 4.84 2.12 3.86 1.9 3.14 1.7 2.57 1.56 2.15 1.44 1.8 1.32 1.54 1.24 1.3 1.15 1.15 1.1.97 1.02.85 1 .75.93.66.9.57.87.5.85.45.82.38.8.34.8.3.77.25.77.2.76.2.76.13.53.08" stroke="#fc9432" stroke-width="5" stroke-linejoin="round" fill="none"/><path d="M-1072.15 491.95l-.1 4.95-2.72-.05.2-2.48-.2-2.48zM-914.77 1012.93v4.95h-2.57v-4.95z" stroke="#fc9432" stroke-width=".05" fill="#fc9432"/><path d="M-567.35 7.64l2.33-.14 2.3-.24 2.22-.33 2.18-.42 2.13-.5 2.12-.58 2.08-.67 2.07-.77 2.06-.87 2.07-.96 2.08-1.1 2.1-1.2 2.14-1.37 2.2-1.52 2.24-1.7 2.32-1.93 2.42-2.18 2.55-2.5 2.7-2.87 2.9-3.35 3.14-4 3.5-4.84 4.07-6.12 5-8.28 7.36-13.46 25.8-49.82 5-8.28 4.05-6.13 3.52-4.86 3.16-3.98 2.9-3.36 2.7-2.87 2.53-2.5 2.4-2.18 2.34-1.92 2.24-1.7 2.2-1.53 2.13-1.36 2.12-1.2 2.08-1.1 2.06-.97 2.07-.87 2.07-.77 2.08-.68 2.1-.58 2.14-.5 2.17-.42 2.22-.33 2.3-.24 2.33-.15" stroke="#635dff" stroke-width="5" stroke-linejoin="round" fill="none"/><path d="M-567.24 10.12l-2.6.05V5.22l2.5-.05zM-409.85-150.15h-2.57v-4.95h2.57z" stroke="#635dff" stroke-width=".05" fill="#635dff"/><path d="M-305.44-427.5h.36l2.73-.18 2.64-.28 2.53-.37 2.48-.48 2.42-.57 2.36-.66 2.34-.76 2.3-.85 2.3-.96 2.28-1.1 2.3-1.2 2.32-1.33 2.36-1.5 2.4-1.67 2.48-1.88 2.56-2.12 2.68-2.42 2.84-2.77 3.03-3.23 3.32-3.85 3.7-4.7 4.4-6.05 5.73-8.65 30.98-50.8 4.4-6.05 3.72-4.7 3.32-3.86 3.04-3.22 2.83-2.78 2.7-2.4 2.55-2.13 2.48-1.88 2.4-1.7 2.36-1.48 2.3-1.34 2.3-1.2 2.3-1.1 2.3-.95 2.3-.86 2.33-.75 2.37-.66 2.4-.57 2.48-.48 2.55-.38 2.63-.27 2.74-.18h.36" stroke="#635dff" stroke-width="5" stroke-linejoin="round" fill="none"/><path d="M-305.32-425.03l-2.62.05v-4.95l2.5-.05zM-147.94-562.4h-2.57v-4.94h2.56z" stroke="#635dff" stroke-width=".05" fill="#635dff"/><path d="M-795.7 1015.3h.14l1.3-.14 1.27-.2 1.28-.23 1.26-.3 1.26-.35 1.27-.4 1.28-.5 1.3-.53 1.3-.62 1.34-.7 1.35-.8 1.4-.88 1.46-1 1.5-1.14 1.57-1.3 1.63-1.46 1.72-1.7 1.82-1.92 1.94-2.25 2.08-2.62 2.24-3.1 2.45-3.68 2.7-4.47 3-5.5 3.44-6.9 3.98-9 4.84-12.27 6.33-18.28 10.7-35.9 27.37-97.12 6.33-18.28 4.84-12.27 4-9 3.4-6.9 3.03-5.5 2.7-4.46 2.44-3.7 2.25-3.08 2.07-2.63 1.93-2.23 1.82-1.94 1.72-1.7 1.64-1.46 1.57-1.3 1.5-1.13 1.45-1 1.4-.9 1.37-.8 1.32-.7 1.3-.6 1.3-.55 1.28-.5 1.27-.4 1.26-.35 1.27-.3 1.27-.24 1.27-.18 1.3-.13.15-.02" stroke="#fc9432" stroke-width="5" stroke-linejoin="round" fill="none"/><path d="M-795.6 1017.83l-2.6.05v-4.95l2.5-.05zM-638.2 720.15h-2.58v-4.95h2.57z" stroke="#fc9432" stroke-width=".05" fill="#fc9432"/><path d="M-74.43-564.92l1.74-.03 3.98-.25 3.73-.4 3.56-.52 3.4-.64 3.26-.77 3.15-.88 3.07-1 3-1.13 3-1.25 2.94-1.4 2.96-1.54 3-1.73 3.06-1.94 3.18-2.2 3.35-2.54 3.6-3 4.05-3.64 4.86-4.77 7.17-7.67 22.1-24.57 4.85-4.76 4.05-3.65 3.6-3 3.36-2.54 3.17-2.2 3.06-1.95 3-1.72 2.95-1.55 2.96-1.4 2.98-1.24 3-1.13 3.08-1 3.16-.88 3.26-.78 3.4-.64 3.54-.53 3.74-.4 3.97-.24 1.74-.02" stroke="#635dff" stroke-width="5" stroke-linejoin="round" fill="none"/><path d="M-74.32-562.44l-2.6.05v-4.94l2.5-.05zM83.07-654H80.5v-4.95h2.57z" stroke="#635dff" stroke-width=".05" fill="#635dff"/><path d="M-804.32-118.4l.3-.04.92-.14.92-.17.92-.22.92-.26.94-.3.94-.35.97-.4 1-.47 1-.53 1.03-.6 1.07-.67 1.1-.78 1.16-.87 1.22-1 1.27-1.16 1.35-1.32 1.43-1.53 1.54-1.8 1.65-2.07 1.8-2.48 1.96-2.95 2.16-3.6 2.42-4.4 2.73-5.5 3.12-7.04 3.66-9.28 4.4-12.72 5.56-18.47 7.64-30.03 16.23-78.52 24.6-122.64 7.64-30.02 5.54-18.47 4.4-12.7 3.68-9.3 3.13-7.03 2.72-5.5 2.4-4.4 2.18-3.6 1.96-2.95 1.8-2.48 1.65-2.08 1.54-1.78 1.43-1.53 1.35-1.32 1.28-1.15 1.2-1 1.16-.88 1.12-.78 1.07-.68 1.03-.6 1-.52 1-.46.95-.4.95-.36.93-.3.93-.26.92-.22.92-.17.92-.14.3-.02" stroke="#635dff" stroke-width="5" stroke-linejoin="round" fill="none"/><path d="M-804.2-115.85l-2.6.06v-4.94l2.5-.06zM-646.8-539.5h-2.58v-4.94h2.57z" stroke="#635dff" stroke-width=".05" fill="#635dff"/><path d="M-287.84 626l1.74-.02 3.97-.25 3.74-.4 3.55-.52 3.4-.63 3.26-.77 3.16-.88 3.07-1 3-1.12 3-1.25 2.94-1.4 2.96-1.54 3-1.72 3.06-1.94 3.17-2.2 3.34-2.55 3.63-3 4.04-3.65 4.86-4.77 7.17-7.67 22.08-24.56 4.86-4.77 4.05-3.65 3.6-3 3.34-2.53 3.18-2.22 3.06-1.94 3-1.73 2.96-1.54 2.96-1.4 2.97-1.24 3-1.12 3.08-1 3.16-.88 3.27-.77 3.4-.64 3.54-.52 3.75-.4 3.97-.24 1.74-.03" stroke="#fc9432" stroke-width="5" stroke-linejoin="round" fill="none"/><path d="M-287.73 628.5l-2.6.04v-4.95l2.5-.06zM-130.34 536.93h-2.57v-4.95h2.56z" stroke="#fc9432" stroke-width=".05" fill="#fc9432"/><path d="M-306.94 992.45l1.74-.03 3.96-.25 3.75-.4 3.56-.52 3.4-.64 3.25-.76 3.16-.88 3.07-1 3-1.12 3-1.25 2.94-1.4 2.96-1.55 3-1.73 3.06-1.94 3.17-2.2 3.35-2.55 3.6-3 4.05-3.64 4.86-4.78 7.17-7.67 22.08-24.57 4.86-4.77 4.05-3.64 3.6-3 3.34-2.53 3.18-2.2 3.06-1.95 3-1.73 2.96-1.55 2.96-1.4 2.97-1.24 3-1.12 3.08-1 3.16-.88 3.27-.77 3.4-.65 3.54-.53 3.75-.4 3.97-.24 1.74-.03" stroke="#fc9432" stroke-width="5" stroke-linejoin="round" fill="none"/><path d="M-306.83 994.93l-2.6.05v-4.95l2.5-.05zM-149.44 903.37H-152v-4.95h2.56z" stroke="#fc9432" stroke-width=".05" fill="#fc9432"/><path d="M-578.3-542l.9-.03 3.25-.2 3.1-.33 2.96-.44 2.87-.54 2.77-.66 2.7-.75 2.65-.86 2.6-.98 2.6-1.1 2.56-1.2 2.58-1.35 2.6-1.5 2.63-1.67 2.7-1.88 2.8-2.12 2.9-2.4 3.1-2.8 3.32-3.25 3.7-3.95 4.3-5 5.52-6.98 30.3-41.47 4.28-5 3.7-3.93 3.33-3.27 3.1-2.78 2.9-2.4 2.8-2.13 2.7-1.88 2.63-1.67 2.6-1.5 2.58-1.36 2.57-1.2 2.6-1.1 2.6-.97 2.65-.86 2.7-.74 2.78-.65 2.86-.54 2.95-.44 3.1-.32 3.23-.2.92-.02" stroke="#635dff" stroke-width="5" stroke-linejoin="round" fill="none"/><path d="M-578.2-539.54l-2.6.05v-4.94l2.5-.05zM-420.8-654h-2.57v-4.95h2.57z" stroke="#635dff" stroke-width=".05" fill="#635dff"/><path d="M-1317.28 494.43l-5.7.1-7.2.46-6.45.67-5.87.87-5.43 1.03-5.12 1.2-4.9 1.37-4.8 1.56-4.84 1.8-5.07 2.13-5.7 2.7-7.8 4.08-25 13.83-5.7 2.7-5.08 2.13-4.84 1.8-4.8 1.56-4.9 1.37-5.1 1.18-5.45 1.04-5.87.87-6.45.66-7.2.45-5.7.13" stroke="#fc9432" stroke-width="5" stroke-linejoin="round" fill="none"/><path d="M-1314.77 494.38l.2 2.47-2.72.05-.1-4.95 2.82-.06zM-1472.2 542.65h-2.57v-4.94h2.56z" stroke="#fc9432" stroke-width=".05" fill="#fc9432"/><path d="M-1317.28 494.32l-5.7-.1-7.2-.46-6.45-.68-5.87-.87-5.43-1.02-5.12-1.2-4.9-1.37-4.8-1.55-4.84-1.8-5.07-2.13-5.7-2.7-7.8-4.1-25-13.8-5.7-2.7-5.08-2.13-4.84-1.8-4.8-1.57-4.9-1.37-5.1-1.2-5.45-1.03-5.87-.87-6.45-.67-7.2-.46-5.7-.12" stroke="#d916a8" stroke-width="5" stroke-linejoin="round" fill="none"/><path d="M-1314.58 491.9l-.2 2.48.2 2.48-2.8-.06.1-4.95zM-1472.2 446.1v4.94h-2.57v-4.94z" stroke="#d916a8" stroke-width=".05" fill="#d916a8"/><path d="M-1317.28 494.32h-.35l-2.74-.18-2.63-.27-2.55-.38-2.47-.48-2.4-.57-2.38-.66-2.33-.76-2.3-.86-2.3-.97-2.3-1.06-2.3-1.2-2.3-1.35-2.37-1.5-2.4-1.68-2.48-1.88-2.56-2.12-2.68-2.4-2.83-2.8-3.04-3.22-3.3-3.85-3.73-4.7-4.4-6.06-5.7-8.65-31-50.8-4.4-6.06-3.7-4.7-3.33-3.86-3.03-3.24-2.83-2.77-2.68-2.42-2.57-2.1-2.47-1.9-2.4-1.66-2.37-1.5-2.33-1.34-2.3-1.2-2.3-1.08-2.28-.96-2.32-.86-2.33-.76-2.36-.66-2.43-.56-2.47-.48-2.54-.37-2.64-.28-2.73-.18h-.37" stroke="#ba23f6" stroke-width="5" stroke-linejoin="round" fill="none"/><path d="M-1314.58 491.9l-.2 2.48.2 2.48-2.8-.06.1-4.95zM-1472.2 354.5v4.94h-2.57v-4.95z" stroke="#ba23f6" stroke-width=".05" fill="#ba23f6"/><path d="M-1072.28 494.17h.1l.65-.14.65-.15.66-.18.67-.22.68-.25.7-.3.7-.33.74-.4.76-.43.8-.5.8-.57.87-.65.9-.75.97-.87 1.02-1 1.08-1.16 1.17-1.36 1.28-1.6 1.4-1.9 1.52-2.32 1.7-2.8 1.9-3.48 2.16-4.36 2.5-5.6 2.9-7.37 3.48-10.02 4.26-14.2 5.45-21.38 7.47-35.56 12.45-75.18L-967.22 1.8l7.48-35.56 5.45-21.4 4.28-14.2 3.47-10 2.9-7.37 2.5-5.6 2.16-4.36 1.9-3.47 1.7-2.8 1.54-2.3 1.4-1.92 1.26-1.6 1.17-1.36 1.1-1.17 1-1 .97-.86.9-.74.87-.65.83-.57.8-.5.75-.43.73-.4.73-.32.7-.3.67-.25.67-.22.66-.17.65-.16.65-.12h.1" stroke="#635dff" stroke-width="5" stroke-linejoin="round" fill="none"/><path d="M-1072.15 496.8l-2.82.06.2-2.5-.2-2.46 2.7-.05zM-914.77-115.8h-2.57v-4.94h2.57z" stroke="#635dff" stroke-width=".05" fill="#635dff"/><path d="M-646.8-23.1h76.95v61.6h-76.96z" fill="none"/><use xlink:href="#a" transform="matrix(1,0,0,1,-626.8129720058755,-0.10809428381253383) translate(0 14.6)"/><path d="M-287.84 626.12l1.74.03 3.97.25 3.74.4 3.55.52 3.4.64 3.26.77 3.16.88 3.07 1 3 1.13 3 1.25 2.94 1.4 2.96 1.54 3 1.73 3.06 1.94 3.17 2.2 3.34 2.54 3.63 3 4.04 3.64 4.86 4.77 7.17 7.67 22.08 24.57 4.86 4.76 4.05 3.65 3.6 3 3.34 2.54 3.18 2.2 3.06 1.95 3 1.72 2.96 1.55 2.96 1.4 2.97 1.24 3 1.13 3.08 1 3.16.88 3.27.77 3.4.65 3.54.53 3.75.4 3.97.24 1.74.02" stroke="#fc9432" stroke-width="5" stroke-linejoin="round" fill="none"/><path d="M-287.73 623.64l-.1 4.95-2.5-.06v-4.95zM-130.34 715.2v4.95h-2.57v-4.95z" stroke="#fc9432" stroke-width=".05" fill="#fc9432"/><path d="M-638.2 1282.33h95.85v61.6h-95.86z" fill="none"/><use xlink:href="#b" transform="matrix(1,0,0,1,-618.2129720058756,1305.3344057161871) translate(0 14.6)"/><path d="M-402.3 1190.72h209.6v61.6h-209.6z" fill="none"/><use xlink:href="#c" transform="matrix(1,0,0,1,-382.30297200587574,1213.7244057161874) translate(0 14.6)"/><use xlink:href="#d" transform="matrix(1,0,0,1,-382.30297200587574,1213.7244057161874) translate(107.80000000000001 14.6)"/><path d="M-638.2 686.87h76v61.6h-76z" fill="none"/><use xlink:href="#e" transform="matrix(1,0,0,1,-618.2129720058756,709.8694057161874) translate(0 14.6)"/><path d="M83.07-504.06h135.9v61.6H83.08z" fill="none"/><use xlink:href="#f" transform="matrix(1,0,0,1,103.06702799412437,-481.0605942838125) translate(0 14.6)"/><use xlink:href="#g" transform="matrix(1,0,0,1,103.06702799412437,-481.0605942838125) translate(64.9 14.6)"/><path d="M-914.77 1076.2h114.86v61.62h-114.87z" fill="none"/><use xlink:href="#h" transform="matrix(1,0,0,1,-894.7729720058755,1099.2119057161872) translate(0 14.6)"/><path d="M-130.34 595.26H6.56v61.6h-136.9z" fill="none"/><use xlink:href="#i" transform="matrix(1,0,0,1,-110.34297200587571,618.2594057161873) translate(0 14.6)"/><path d="M83.07-595.67h166.7v61.6H83.08z" fill="none"/><use xlink:href="#j" transform="matrix(1,0,0,1,103.06702799412437,-572.6705942838125) translate(0 14.6)"/><use xlink:href="#k" transform="matrix(1,0,0,1,103.06702799412437,-572.6705942838125) translate(77.85 14.6)"/><path d="M-306.94 992.56l1.74.03 3.96.24 3.75.4 3.56.52 3.4.64 3.25.77 3.16.88 3.07 1 3 1.12 3 1.25 2.94 1.4 2.96 1.54 3 1.73 3.06 1.93 3.17 2.2 3.35 2.55 3.6 3 4.05 3.64 4.86 4.77 7.17 7.66 22.08 24.57 4.86 4.77 4.05 3.65 3.6 3 3.34 2.53 3.18 2.2 3.06 1.95 3 1.73 2.96 1.55 2.96 1.4 2.97 1.25 3 1.12 3.08 1 3.16.88 3.27.76 3.4.66 3.54.53 3.75.38 3.97.25 1.74.03" stroke="#fc9432" stroke-width="5" stroke-linejoin="round" fill="none"/><path d="M-306.83 990.08l-.1 4.95-2.5-.05v-4.95zM-149.44 1081.64v4.95H-152v-4.96z" stroke="#fc9432" stroke-width=".05" fill="#fc9432"/><path d="M-402.2 595.26h111.86v61.6H-402.2z" fill="none"/><use xlink:href="#l" transform="matrix(1,0,0,1,-382.2029720058756,618.2594057161873) translate(0 14.6)"/><path d="M83.07-687.28h139.46v61.6H83.07z" fill="none"/><use xlink:href="#m" transform="matrix(1,0,0,1,103.06702799412437,-664.2805942838125) translate(0 14.6)"/><use xlink:href="#n" transform="matrix(1,0,0,1,103.06702799412437,-664.2805942838125) translate(36 14.6)"/><path d="M-804.32-118.12l.3.03.92.14.92.18.92.22.92.25.94.3.94.35.97.4 1 .47 1 .52 1.03.6 1.07.68 1.1.77 1.16.87 1.22 1 1.27 1.15 1.35 1.32 1.43 1.53 1.54 1.78 1.65 2.1 1.8 2.46 1.96 2.97 2.16 3.58 2.42 4.4 2.73 5.5 3.12 7.06 3.66 9.3 4.4 12.7 5.56 18.48L-747.22-7-731 71.5l24.6 122.66 7.64 30.03 5.54 18.46 4.4 12.7 3.68 9.3 3.13 7.04 2.72 5.5 2.4 4.4 2.18 3.6 1.96 2.95 1.8 2.47 1.65 2.1 1.54 1.77 1.43 1.52 1.35 1.32 1.28 1.15 1.2 1 1.16.87 1.12.77 1.07.68 1.03.6 1 .53 1 .46.95.4.95.37.93.3.93.26.92.2.92.2.92.12.3.04" stroke="#635dff" stroke-width="5" stroke-linejoin="round" fill="none"/><path d="M-804.2-120.7l-.1 4.96-2.5-.05v-4.94zM-646.8 302.95v4.95h-2.58v-4.95z" stroke="#635dff" stroke-width=".05" fill="#635dff"/><path d="M-402.2 778.48h153.5v61.6h-153.5z" fill="none"/><use xlink:href="#o" transform="matrix(1,0,0,1,-382.2029720058756,801.4794057161871) translate(0 14.6)"/><path d="M-369 228.82h92.96v61.6H-369z" fill="none"/><use xlink:href="#p" transform="matrix(1,0,0,1,-349.00297200587556,251.81940571618748) translate(0 14.6)"/><path d="M-305.44-427.4h.36l2.73.18 2.64.28 2.53.37 2.48.47 2.42.57 2.36.66 2.34.76 2.3.85 2.3.96 2.28 1.1 2.3 1.2 2.32 1.33 2.36 1.5 2.4 1.67 2.48 1.88 2.56 2.12 2.68 2.42 2.84 2.77 3.03 3.23 3.32 3.84 3.7 4.7 4.4 6.06 5.73 8.65 30.98 50.8 4.4 6.05 3.72 4.7 3.32 3.86 3.04 3.22 2.83 2.78 2.7 2.4 2.55 2.13 2.48 1.88 2.4 1.7 2.36 1.48 2.3 1.34 2.3 1.2 2.3 1.08 2.3.97 2.3.86 2.33.75 2.37.66 2.4.57 2.48.48 2.55.38 2.63.27 2.74.17h.36" stroke="#635dff" stroke-width="5" stroke-linejoin="round" fill="none"/><path d="M-305.32-429.87l-.1 4.95-2.52-.06v-4.95zM-147.94-292.5v4.94h-2.57v-4.95z" stroke="#635dff" stroke-width=".05" fill="#635dff"/><path d="M-167.9 45.6h80.97v61.6h-80.96z" fill="none"/><use xlink:href="#q" transform="matrix(1,0,0,1,-147.89297200587544,68.59940571618745) translate(0 14.6)"/><path d="M-167.9-46h117.82v61.6h-117.8z" fill="none"/><use xlink:href="#r" transform="matrix(1,0,0,1,-147.89297200587544,-23.01059428381268) translate(0 14.6)"/><path d="M-1551.28 509.38h76.5v61.6h-76.5z" fill="none"/><use xlink:href="#s" transform="matrix(1,0,0,1,-1531.2829720058755,532.3750307161872) translate(0 14.6)"/><path d="M-1612.58 326.15h137.8v61.62h-137.8z" fill="none"/><use xlink:href="#t" transform="matrix(1,0,0,1,-1592.5829720058755,349.1550307161874) translate(0 14.6)"/><path d="M-135-229.23H1.78v61.6H-135z" fill="none"/><use xlink:href="#u" transform="matrix(1,0,0,1,-114.99297200587534,-206.2305942838126) translate(0 14.6)"/><use xlink:href="#v" transform="matrix(1,0,0,1,-114.99297200587534,-206.2305942838126) translate(79.85000000000001 14.6)"/><path d="M-190.2 1221.58l5.7.12 7.2.45 6.46.67 5.88.87 5.43 1.02 5.1 1.2 4.92 1.37 4.8 1.55 4.83 1.8 5.07 2.14 5.7 2.68 7.8 4.1 25 13.8 5.7 2.7 5.1 2.13 4.83 1.8 4.8 1.57 4.9 1.37 5.1 1.2 5.45 1.03 5.87.87 6.45.68 7.2.45 5.7.1" stroke="#fc9432" stroke-width="5" stroke-linejoin="round" fill="none"/><path d="M-190.08 1219.1l-.1 4.96-2.5-.05v-4.95zM-32.7 1264.86v4.95h-2.56v-4.94z" stroke="#fc9432" stroke-width=".05" fill="#fc9432"/><path d="M-795.7 1015.5l.14.02 1.3.13 1.27.2 1.28.23 1.26.3 1.26.35 1.27.42 1.28.47 1.3.54 1.3.62 1.34.7 1.35.8 1.4.88 1.46 1 1.5 1.15 1.57 1.3 1.63 1.47 1.72 1.7 1.82 1.93 1.94 2.24 2.08 2.63 2.24 3.1 2.45 3.68 2.7 4.46 3 5.5 3.44 6.92 3.98 9 4.84 12.27 6.33 18.26 10.7 35.9 27.37 97.12 6.33 18.28 4.84 12.27 4 9 3.4 6.9 3.03 5.5 2.7 4.47 2.44 3.7 2.25 3.08 2.07 2.62 1.93 2.25 1.82 1.94 1.72 1.67 1.64 1.47 1.57 1.3 1.5 1.14 1.45 1 1.4.9 1.37.8 1.32.7 1.3.6 1.3.54 1.28.48 1.27.4 1.26.37 1.27.3 1.27.23 1.27.2 1.3.13h.15" stroke="#fc9432" stroke-width="5" stroke-linejoin="round" fill="none"/><path d="M-795.6 1013l-.1 4.93-2.5-.05v-4.95zM-638.2 1310.66v4.95h-2.58v-4.94z" stroke="#fc9432" stroke-width=".05" fill="#fc9432"/><path d="M-74.43-564.8l1.74.02 3.98.25 3.73.4 3.56.52 3.4.63 3.26.77 3.15.88 3.07 1 3 1.12 3 1.25 2.94 1.4 2.96 1.54 3 1.72 3.06 1.94 3.18 2.2 3.35 2.55 3.6 3 4.05 3.65 4.86 4.77 7.17 7.67 22.1 24.56 4.85 4.77 4.05 3.65 3.6 3 3.36 2.53 3.17 2.22 3.06 1.94 3 1.73 2.95 1.54 2.96 1.4 2.98 1.24 3 1.12 3.08 1 3.16.88 3.26.77 3.4.64 3.54.5 3.74.4 3.97.26 1.74.03" stroke="#635dff" stroke-width="5" stroke-linejoin="round" fill="none"/><path d="M-74.32-567.3l-.1 4.96-2.5-.05v-4.94zM83.07-475.73v4.95H80.5v-4.95z" stroke="#635dff" stroke-width=".05" fill="#635dff"/><path d="M-409.85-.2h81.96v61.6h-81.95z" fill="none"/><use xlink:href="#w" transform="matrix(1,0,0,1,-389.8529720058755,22.794405716187384) translate(0 14.6)"/><path d="M-420.8-687.28h75.9v61.6h-75.9z" fill="none"/><use xlink:href="#x" transform="matrix(1,0,0,1,-400.8029720058755,-664.2805942838125) translate(0 14.6)"/><path d="M-559.7 717.73l1.74.03 3.97.25 3.75.4 3.54.53 3.4.64 3.25.77 3.15.88 3.07 1 3 1.12 3 1.25 2.94 1.38 2.97 1.55 3 1.73 3.06 1.94 3.18 2.2 3.36 2.55 3.6 3 4.05 3.64 4.87 4.76 7.17 7.67 22.08 24.57 4.86 4.77 4.05 3.65 3.6 3 3.36 2.53 3.16 2.2 3.06 1.95 3 1.73 2.96 1.55 2.96 1.4 2.97 1.24 3.02 1.12 3.07 1 3.15.88 3.26.76 3.4.65 3.55.52 3.74.4 3.96.25 1.74.03" stroke="#fc9432" stroke-width="5" stroke-linejoin="round" fill="none"/><path d="M-559.6 715.25l-.1 4.95-2.5-.05v-4.95zM-402.2 806.8v4.96h-2.57v-4.95z" stroke="#fc9432" stroke-width=".05" fill="#fc9432"/><path d="M-1317.28 494.43h-.35l-2.74.18-2.63.28-2.55.38-2.47.47-2.4.57-2.38.66-2.33.75-2.3.87-2.3.97-2.3 1.07-2.3 1.22-2.3 1.34-2.37 1.5-2.4 1.67-2.48 1.88-2.56 2.13-2.68 2.4-2.83 2.8-3.04 3.22-3.3 3.85-3.73 4.7-4.4 6.06-5.7 8.64-31 50.8-4.4 6.06-3.7 4.7-3.33 3.85-3.03 3.25-2.83 2.77-2.68 2.42-2.57 2.12-2.47 1.88-2.4 1.67-2.37 1.5-2.33 1.35-2.3 1.2-2.3 1.08-2.28.96-2.32.85-2.33.76-2.36.67-2.43.56-2.47.48-2.54.38-2.64.28-2.73.17h-.37" stroke="#008a0e" stroke-width="5" stroke-linejoin="round" fill="none"/><path d="M-1314.77 494.38l.2 2.47-2.72.05-.1-4.95 2.82-.06zM-1472.2 634.26h-2.57v-4.94h2.56z" stroke="#008a0e" stroke-width=".05" fill="#008a0e"/><path d="M-646.8 274.62H-529v61.6h-117.8z" fill="none"/><use xlink:href="#y" transform="matrix(1,0,0,1,-626.8129720058755,297.62440571618754) translate(0 14.6)"/><path d="M-292.5-152.57l5.7.12 7.2.45 6.46.67 5.88.87 5.43 1.03 5.1 1.2 4.92 1.37 4.8 1.56 4.83 1.8 5.07 2.14 5.7 2.7 7.8 4.08 25 13.8 5.7 2.7 5.1 2.14 4.83 1.8 4.8 1.56 4.9 1.37 5.12 1.2 5.43 1.02 5.87.87 6.45.67 7.2.45 5.7.1" stroke="#635dff" stroke-width="5" stroke-linejoin="round" fill="none"/><path d="M-292.38-155.04l-.1 4.95-2.5-.05v-4.95zM-135-109.3v4.96h-2.56v-4.95z" stroke="#635dff" stroke-width=".05" fill="#635dff"/><path d="M-420.8-458.26h112.86v61.6H-420.8z" fill="none"/><use xlink:href="#z" transform="matrix(1,0,0,1,-400.8029720058755,-435.25559428381257) translate(0 14.6)"/><path d="M-149.44 1053.3h117.5v61.62h-117.5z" fill="none"/><use xlink:href="#A" transform="matrix(1,0,0,1,-129.44297200587562,1076.3094057161875) translate(0 14.6)"/><use xlink:href="#B" transform="matrix(1,0,0,1,-129.44297200587562,1076.3094057161875) translate(40.550000000000004 14.6)"/><path d="M-115.1 412.04H15.68v61.6H-115.1z" fill="none"/><use xlink:href="#C" transform="matrix(1,0,0,1,-95.09297200587548,435.0394057161875) translate(0 14.6)"/><path d="M-1314.77 494.38a40 40 0 0 1 40-40h160a40 40 0 0 1 40 40 40 40 0 0 1-40 40h-160a40 40 0 0 1-40-40z" fill="#fff"/><use xlink:href="#D" transform="matrix(1,0,0,1,-1314.7729720058755,454.3750307161873) translate(51.27777777777777 44)"/><use xlink:href="#E" transform="matrix(1,0,0,1,-1314.7729720058755,454.3750307161873) translate(143.38888888888889 44)"/><path d="M-130.34 686.87h88.6v61.6h-88.6z" fill="none"/><use xlink:href="#F" transform="matrix(1,0,0,1,-110.34297200587571,709.8694057161874) translate(0 14.6)"/><path d="M-638.2 1076.2h75.9v61.62h-75.9z" fill="none"/><use xlink:href="#G" transform="matrix(1,0,0,1,-618.2129720058756,1099.2119057161872) translate(0 14.6)"/><path d="M-526.5 305.48l5.7.12 7.2.45 6.45.67 5.88.87 5.43 1.02 5.1 1.2 4.92 1.37 4.8 1.55 4.84 1.8 5.07 2.14 5.7 2.68 7.8 4.1 25 13.8 5.7 2.7 5.08 2.13 4.83 1.8 4.82 1.57 4.9 1.37 5.1 1.2 5.45 1.03 5.87.87 6.46.68 7.2.45 5.7.1" stroke="#635dff" stroke-width="5" stroke-linejoin="round" fill="none"/><path d="M-526.4 303l-.1 4.96-2.5-.06v-4.95zM-369 348.76v4.95h-2.57v-4.94z" stroke="#635dff" stroke-width=".05" fill="#635dff"/><path d="M-1596.53 601h121.76v61.6h-121.76z" fill="none"/><use xlink:href="#H" transform="matrix(1,0,0,1,-1576.5329720058755,623.9850307161873) translate(0 14.6)"/><path d="M-115.1 320.43H57.63v61.6h-172.7z" fill="none"/><use xlink:href="#I" transform="matrix(1,0,0,1,-95.09297200587548,343.4294057161874) translate(0 14.6)"/><use xlink:href="#J" transform="matrix(1,0,0,1,-95.09297200587548,343.4294057161874) translate(110.80000000000001 14.6)"/><path d="M-402.3 961.7h92.86v61.6h-92.86z" fill="none"/><use xlink:href="#K" transform="matrix(1,0,0,1,-382.30297200587574,984.6994057161874) translate(0 14.6)"/><path d="M-149.44 870.1h100.86v61.6h-100.86z" fill="none"/><use xlink:href="#L" transform="matrix(1,0,0,1,-129.44297200587562,893.0894057161872) translate(0 14.6)"/><path d="M-149.44 961.7h106.96v61.6h-106.96z" fill="none"/><use xlink:href="#M" transform="matrix(1,0,0,1,-129.44297200587562,984.6994057161874) translate(0 14.6)"/><path d="M-409.85 137.2h84.9v61.62h-84.9z" fill="none"/><use xlink:href="#N" transform="matrix(1,0,0,1,-389.8529720058755,160.20940571618758) translate(0 14.6)"/><path d="M-914.77-149.07h107.96v61.6h-107.97z" fill="none"/><use xlink:href="#O" transform="matrix(1,0,0,1,-894.7729720058755,-126.07184428381242) translate(0 14.6)"/><use xlink:href="#P" transform="matrix(1,0,0,1,-894.7729720058755,-126.07184428381242) translate(41.95 14.6)"/><path d="M-130.34 503.65H-6.78v61.6h-123.56z" fill="none"/><use xlink:href="#Q" transform="matrix(1,0,0,1,-110.34297200587571,526.6494057161872) translate(0 14.6)"/><path d="M-115.1 228.82H40.63v61.6h-155.7z" fill="none"/><use xlink:href="#R" transform="matrix(1,0,0,1,-95.09297200587548,251.81940571618748) translate(0 14.6)"/><use xlink:href="#S" transform="matrix(1,0,0,1,-95.09297200587548,251.81940571618748) translate(93.80000000000001 14.6)"/><path d="M-578.3-541.9h.9l3.25.2 3.1.34 2.96.43 2.87.55 2.77.65 2.7.75 2.65.86 2.6.98 2.6 1.08 2.56 1.2 2.58 1.36 2.6 1.5 2.63 1.68 2.7 1.87 2.8 2.12 2.9 2.4 3.1 2.8 3.32 3.26 3.7 3.94 4.3 5 5.52 6.98 30.3 41.48 4.28 5 3.7 3.93 3.33 3.26 3.1 2.78 2.9 2.4 2.8 2.13 2.7 1.88 2.63 1.7 2.6 1.5 2.58 1.33 2.57 1.22 2.6 1.08 2.6.97 2.65.86 2.7.76 2.78.65 2.86.54 2.95.45 3.1.32 3.23.2.92.03" stroke="#635dff" stroke-width="5" stroke-linejoin="round" fill="none"/><path d="M-578.2-544.38l-.1 4.95-2.5-.06v-4.94zM-420.8-429.93v4.95h-2.57v-4.95z" stroke="#635dff" stroke-width=".05" fill="#635dff"/><path d="M-559.8 1107.07l.9.02 3.25.2 3.1.32 2.96.43 2.87.55 2.77.65 2.7.75 2.65.86 2.6.98 2.6 1.08 2.56 1.2 2.58 1.36 2.6 1.5 2.63 1.68 2.7 1.87 2.8 2.12 2.9 2.4 3.1 2.8 3.32 3.26 3.7 3.95 4.3 5 5.52 6.98 30.3 41.48 4.28 5 3.7 3.94 3.33 3.26 3.1 2.78 2.9 2.4 2.8 2.13 2.7 1.9 2.63 1.66 2.6 1.5 2.58 1.36 2.57 1.2 2.6 1.1 2.6.96 2.65.86 2.7.76 2.78.65 2.86.54 2.95.43 3.1.33 3.23.2.92.02" stroke="#fc9432" stroke-width="5" stroke-linejoin="round" fill="none"/><path d="M-559.7 1104.6l-.1 4.95-2.5-.06v-4.96zM-402.3 1219.05v4.95h-2.57v-4.95z" stroke="#fc9432" stroke-width=".05" fill="#fc9432"/><path d="M-369 320.43h93.9v61.6H-369z" fill="none"/><use xlink:href="#T" transform="matrix(1,0,0,1,-349.00297200587556,343.4294057161874) translate(0 14.6)"/><path d="M-914.77 984.6h116.56v61.6h-116.57z" fill="none"/><use xlink:href="#A" transform="matrix(1,0,0,1,-894.7729720058755,1007.601905716187) translate(0 14.6)"/><use xlink:href="#U" transform="matrix(1,0,0,1,-894.7729720058755,1007.601905716187) translate(40.550000000000004 14.6)"/><path d="M-1557.78 417.76h83v61.62h-83z" fill="none"/><use xlink:href="#V" transform="matrix(1,0,0,1,-1537.7829720058755,440.7650307161871) translate(0 14.6)"/><path d="M-567.35 7.75l2.33.15 2.3.24 2.22.33 2.18.4 2.13.5 2.12.6 2.08.68 2.07.77 2.06.86 2.07.98 2.08 1.1 2.1 1.2 2.14 1.36 2.2 1.52 2.24 1.7 2.32 1.93 2.42 2.18 2.55 2.5 2.7 2.87 2.9 3.36 3.14 3.98 3.5 4.85 4.07 6.13 5 8.28 7.36 13.47 25.8 49.83 5 8.28 4.05 6.12 3.52 4.85 3.16 4 2.9 3.34 2.7 2.87 2.53 2.5 2.4 2.17 2.34 1.92 2.24 1.7 2.2 1.53 2.13 1.35 2.12 1.22 2.08 1.08 2.06.98 2.07.86 2.07.76 2.08.68 2.1.6 2.14.5 2.17.4 2.22.33 2.3.24 2.33.16" stroke="#635dff" stroke-width="5" stroke-linejoin="round" fill="none"/><path d="M-567.24 5.28l-.1 4.94-2.5-.05V5.22zM-409.85 165.54v4.95h-2.57v-4.96z" stroke="#635dff" stroke-width=".05" fill="#635dff"/><path d="M-147.94-412.45h77.9v61.6h-77.9z" fill="none"/><use xlink:href="#W" transform="matrix(1,0,0,1,-127.94297200587562,-389.4505942838126) translate(0 14.6)"/><path d="M-147.94-320.84h96.9v61.6h-96.9z" fill="none"/><use xlink:href="#X" transform="matrix(1,0,0,1,-127.94297200587562,-297.8405942838125) translate(0 14.6)"/><path d="M-32.7 1144.92h84.87v61.6H-32.7z" fill="none"/><use xlink:href="#Y" transform="matrix(1,0,0,1,-12.692972005875617,1167.9194057161872) translate(0 14.6)"/><path d="M-272.6 351.3l1.75.02 3.97.25 3.74.4 3.54.52 3.4.63 3.26.77 3.15.88 3.08 1 3 1.12 3 1.25 2.94 1.4 2.96 1.54 3 1.72 3.06 1.94 3.18 2.2 3.34 2.55 3.62 3 4.04 3.65 4.86 4.77 7.17 7.67 22.08 24.56 4.86 4.77 4.04 3.65 3.6 3 3.36 2.53 3.17 2.22 3.06 1.94 3 1.73 2.96 1.54 2.95 1.4 2.97 1.24 3 1.12 3.08 1 3.16.88 3.26.76 3.4.65 3.54.5 3.74.4 3.97.26 1.74.03" stroke="#635dff" stroke-width="5" stroke-linejoin="round" fill="none"/><path d="M-272.48 348.8l-.1 4.96-2.5-.05v-4.94zM-115.1 440.37v4.95h-2.56v-4.95z" stroke="#635dff" stroke-width=".05" fill="#635dff"/><path d="M-409.85-183.43H-295v61.6h-114.85z" fill="none"/><use xlink:href="#Z" transform="matrix(1,0,0,1,-389.8529720058755,-160.42559428381253) translate(0 14.6)"/><path d="M-135-137.62H2.73v61.6h-137.7z" fill="none"/><use xlink:href="#u" transform="matrix(1,0,0,1,-114.99297200587534,-114.62059428381235) translate(0 14.6)"/><use xlink:href="#aa" transform="matrix(1,0,0,1,-114.99297200587534,-114.62059428381235) translate(79.85000000000001 14.6)"/><path d="M-646.8-572.77h66v61.6h-66z" fill="none"/><use xlink:href="#ab" transform="matrix(1,0,0,1,-626.8129720058755,-549.7680942838125) translate(0 14.6)"/><path d="M-147.94-595.67h71v61.6h-71z" fill="none"/><use xlink:href="#ac" transform="matrix(1,0,0,1,-127.94297200587562,-572.6705942838125) translate(0 14.6)"/><path d="M-32.7 1236.53H75.23v61.6h-107.9z" fill="none"/><use xlink:href="#ad" transform="matrix(1,0,0,1,-12.692972005875617,1259.5294057161873) translate(0 14.6)"/><path d="M-420.8-595.67h84.9v61.6h-84.9z" fill="none"/><use xlink:href="#ae" transform="matrix(1,0,0,1,-400.8029720058755,-572.6705942838125) translate(0 14.6)"/><path d="M-325.4 30.65l5.7.12 7.2.45 6.46.67 5.88.86 5.43 1.04 5.1 1.2 4.92 1.36 4.8 1.56 4.83 1.8 5.07 2.14 5.7 2.7 7.8 4.08 25 13.8 5.7 2.7 5.1 2.14 4.82 1.8 4.8 1.56 4.9 1.37 5.13 1.2 5.43 1.04 5.87.87 6.46.7 7.2.44 5.7.1" stroke="#635dff" stroke-width="5" stroke-linejoin="round" fill="none"/><path d="M-325.28 28.18l-.1 4.95-2.5-.05v-4.96zM-167.9 73.93v4.95h-2.56v-4.95z" stroke="#635dff" stroke-width=".05" fill="#635dff"/><path d="M-804.3-118.22l.6.02 2.97.18 2.84.3 2.75.4 2.65.5 2.58.62 2.53.7 2.5.8 2.43.92 2.43 1.02 2.42 1.14 2.43 1.27 2.46 1.42 2.5 1.57 2.53 1.77 2.6 2 2.72 2.25 2.86 2.57 3.04 2.98 3.3 3.5 3.67 4.27 4.27 5.42 5.5 7.57 31.33 47.07 4.3 5.42 3.66 4.26 3.3 3.5 3.04 3 2.85 2.56 2.72 2.25 2.6 2 2.55 1.76 2.5 1.56 2.44 1.42 2.43 1.27 2.4 1.14 2.44 1 2.45.92 2.47.8 2.52.7 2.57.62 2.65.5 2.74.4 2.85.3 2.97.2h.62" stroke="#635dff" stroke-width="5" stroke-linejoin="round" fill="none"/><path d="M-804.2-120.7l-.1 4.96-2.5-.05v-4.94zM-646.8 5.22v4.95h-2.58V5.22z" stroke="#635dff" stroke-width=".05" fill="#635dff"/><path d="M-306.94 992.5h155" stroke="#fc9432" stroke-width="5" stroke-linejoin="round" fill="none"/><path d="M-306.88 994.98h-2.56v-4.95h2.56zM-149.44 994.98H-152v-4.95h2.56z" stroke="#fc9432" stroke-width=".05" fill="#fc9432"/><path d="M-526.5 305.38l5.7-.12 7.2-.45 6.45-.67 5.88-.86 5.43-1.04 5.1-1.2 4.92-1.36 4.8-1.56 4.84-1.8 5.07-2.13 5.7-2.7 7.8-4.08 25-13.82 5.7-2.7 5.08-2.13 4.83-1.8 4.82-1.56 4.9-1.38 5.1-1.2 5.45-1.03 5.87-.88 6.46-.68 7.2-.45 5.7-.12" stroke="#635dff" stroke-width="5" stroke-linejoin="round" fill="none"/><path d="M-526.4 307.85l-2.6.05v-4.95l2.5-.05zM-369 262.1h-2.57v-4.95h2.57z" stroke="#635dff" stroke-width=".05" fill="#635dff"/><path d="M-567.35 7.75l12.88.26 12.2.76 10.23 1.08 9.15 1.34 8.85 1.7 9.95 2.34 38.45 10.2 8.83 1.7 9.15 1.34 10.25 1.07 12.2.76 12.87.25" stroke="#635dff" stroke-width="5" stroke-linejoin="round" fill="none"/><path d="M-567.24 5.27l-.1 4.95-2.5-.05V5.22zM-409.85 28.12v4.95h-2.57v-4.95z" stroke="#635dff" stroke-width=".05" fill="#635dff"/><path d="M-305.44-427.4l5.7.12 7.2.45 6.45.67 5.9.87 5.42 1.05 5.1 1.2 4.92 1.36 4.8 1.57 4.84 1.8 5.07 2.14 5.7 2.7 7.8 4.1 25 13.8 5.7 2.7 5.1 2.13 4.82 1.8 4.8 1.56 4.9 1.36 5.13 1.2 5.43 1.03 5.87.86 6.46.68 7.2.45 5.7.1" stroke="#635dff" stroke-width="5" stroke-linejoin="round" fill="none"/><path d="M-305.33-429.87l-.1 4.95-2.5-.06v-4.95zM-147.94-384.12v4.95h-2.57v-4.95z" stroke="#635dff" stroke-width=".05" fill="#635dff"/><path d="M-190.2 1221.48l5.7-.12 7.2-.45 6.46-.67 5.88-.86 5.43-1.04 5.1-1.2 4.92-1.36 4.8-1.56 4.83-1.8 5.07-2.13 5.7-2.7 7.8-4.08 25-13.82 5.7-2.7 5.1-2.13 4.83-1.8 4.8-1.56 4.9-1.38 5.1-1.2 5.45-1.04 5.87-.86 6.45-.68 7.2-.45 5.7-.12" stroke="#fc9432" stroke-width="5" stroke-linejoin="round" fill="none"/><path d="M-190.08 1223.95l-2.6.06v-4.95l2.5-.05zM-32.7 1178.2h-2.56v-4.95h2.57z" stroke="#fc9432" stroke-width=".05" fill="#fc9432"/><path d="M-1072.28 494.58h.1l.65.14.65.15.66.18.67.22.68.25.7.3.7.33.74.4.76.43.8.5.8.57.87.65.9.75.97.87 1.02 1 1.08 1.16 1.17 1.36 1.28 1.6 1.4 1.92 1.52 2.3 1.7 2.82 1.9 3.47 2.16 4.36 2.5 5.6 2.9 7.38 3.48 10.02 4.26 14.2 5.45 21.38 7.47 35.56 12.45 75.2 42.66 297.3 7.48 35.57 5.45 21.4 4.28 14.2 3.47 10 2.9 7.38 2.5 5.6 2.16 4.37 1.9 3.47 1.7 2.8 1.54 2.3 1.4 1.92 1.26 1.6 1.17 1.37 1.1 1.17 1 1 .97.87.9.75.87.64.83.58.8.5.75.43.73.4.73.32.7.3.67.25.67.22.66.18.65.15.65.13.1.02" stroke="#e81313" stroke-width="5" stroke-linejoin="round" fill="none"/><path d="M-1072.15 491.95l-.1 4.95-2.72-.05.2-2.48-.2-2.48zM-914.77 1104.54v4.95h-2.57v-4.96z" stroke="#e81313" stroke-width=".05" fill="#e81313"/><path d="M-559.8 1106.96h.9l3.25-.22 3.1-.32 2.96-.44 2.87-.55 2.77-.64 2.7-.77 2.65-.86 2.6-.97 2.6-1.1 2.56-1.2 2.58-1.35 2.6-1.5 2.63-1.67 2.7-1.88 2.8-2.12 2.9-2.4 3.1-2.8 3.32-3.26 3.7-3.94 4.3-5 5.52-6.98 30.3-41.47 4.28-5 3.7-3.93 3.33-3.27 3.1-2.78 2.9-2.4 2.8-2.13 2.7-1.88 2.63-1.67 2.6-1.5 2.58-1.35 2.57-1.2 2.6-1.1 2.6-.97 2.65-.86 2.7-.76 2.78-.65 2.86-.56 2.95-.44 3.1-.32 3.23-.2.92-.02" stroke="#fc9432" stroke-width="5" stroke-linejoin="round" fill="none"/><path d="M-559.7 1109.44l-2.6.05v-4.96l2.5-.05zM-402.3 994.98h-2.57v-4.95h2.57z" stroke="#fc9432" stroke-width=".05" fill="#fc9432"/><path d="M-272.6 351.23h155" stroke="#635dff" stroke-width="5" stroke-linejoin="round" fill="none"/><path d="M-272.53 353.7h-2.56v-4.94h2.57zM-115.1 353.7h-2.56v-4.94h2.57z" stroke="#635dff" stroke-width=".05" fill="#635dff"/><path d="M-74.43-564.87h155" stroke="#635dff" stroke-width="5" stroke-linejoin="round" fill="none"/><path d="M-74.37-562.4h-2.56v-4.94h2.56zM83.07-562.4H80.5v-4.94h2.57z" stroke="#635dff" stroke-width=".05" fill="#635dff"/><path d="M-795.7 1015.46l1.73.03 3.97.24 3.74.4 3.54.52 3.4.65 3.26.77 3.15.88 3.06 1 3 1.12 3 1.25 2.94 1.4 2.96 1.54 3 1.73 3.07 1.93 3.17 2.2 3.35 2.55 3.6 3 4.05 3.64 4.86 4.77 7.17 7.66 22.08 24.57 4.87 4.77 4.05 3.65 3.6 3 3.36 2.53 3.17 2.2 3.06 1.95 3 1.73 2.97 1.55 2.96 1.4 2.97 1.25 3 1.12 3.08 1 3.16.88 3.26.77 3.4.64 3.54.53 3.74.38 3.97.25 1.74.03" stroke="#fc9432" stroke-width="5" stroke-linejoin="round" fill="none"/><path d="M-795.6 1013l-.1 4.93-2.5-.05v-4.95zM-638.2 1104.54v4.95h-2.58v-4.96z" stroke="#fc9432" stroke-width=".05" fill="#fc9432"/><path d="M-578.3-542l12.88-.27 12.2-.76 10.23-1.07 9.16-1.35 8.84-1.7 9.96-2.33 38.44-10.2 8.84-1.7 9.14-1.35 10.25-1.07 12.2-.76 12.87-.26" stroke="#635dff" stroke-width="5" stroke-linejoin="round" fill="none"/><path d="M-578.2-539.54l-2.6.05v-4.94l2.5-.05zM-420.8-562.4h-2.57v-4.94h2.57z" stroke="#635dff" stroke-width=".05" fill="#635dff"/><path d="M-559.7 717.62l1.74-.03 3.97-.26 3.75-.4 3.54-.52 3.4-.64 3.25-.77 3.15-.87 3.07-1 3-1.12 3-1.24 2.94-1.4 2.97-1.54 3-1.73 3.06-1.95 3.18-2.2 3.36-2.55 3.6-3 4.05-3.64 4.87-4.77 7.17-7.68 22.08-24.57 4.86-4.77 4.05-3.65 3.6-3 3.36-2.53 3.16-2.2 3.06-1.95 3-1.73 2.96-1.55 2.96-1.4 2.97-1.24 3.02-1.12 3.07-1 3.15-.87 3.26-.77 3.4-.64 3.55-.53 3.74-.4 3.96-.25 1.74-.03" stroke="#fc9432" stroke-width="5" stroke-linejoin="round" fill="none"/><path d="M-559.6 720.1l-2.6.05v-4.95l2.5-.05zM-402.2 628.54h-2.57v-4.95h2.57z" stroke="#fc9432" stroke-width=".05" fill="#fc9432"/><path d="M-287.84 626.06h155" stroke="#fc9432" stroke-width="5" stroke-linejoin="round" fill="none"/><path d="M-287.78 628.54h-2.56v-4.95h2.56zM-130.34 628.54h-2.57v-4.95h2.56z" stroke="#fc9432" stroke-width=".05" fill="#fc9432"/><path d="M-292.5-152.67l5.7-.12 7.2-.44 6.46-.67 5.88-.88 5.43-1.04 5.1-1.2 4.92-1.36 4.8-1.56 4.83-1.8 5.07-2.14 5.7-2.7 7.8-4.08 25-13.8 5.7-2.7 5.1-2.14 4.83-1.8 4.8-1.56 4.9-1.37 5.12-1.2 5.43-1.03 5.87-.87 6.45-.68 7.2-.46 5.7-.1" stroke="#635dff" stroke-width="5" stroke-linejoin="round" fill="none"/><path d="M-292.38-150.2l-2.6.05v-4.95l2.5-.05zM-135-195.95h-2.56v-4.95h2.57z" stroke="#635dff" stroke-width=".05" fill="#635dff"/><path d="M-325.4 30.55l5.7-.12 7.2-.45 6.46-.68 5.88-.86 5.43-1.04 5.1-1.2 4.92-1.36 4.8-1.56 4.83-1.8 5.07-2.14 5.7-2.7 7.8-4.08 25-13.8 5.7-2.7 5.1-2.14 4.82-1.8 4.8-1.56 4.9-1.37 5.13-1.2 5.43-1.04 5.87-.87 6.46-.7 7.2-.44 5.7-.1" stroke="#635dff" stroke-width="5" stroke-linejoin="round" fill="none"/><path d="M-325.28 33.02l-2.6.05v-4.95l2.5-.05zM-167.9-12.73h-2.56v-4.95h2.57z" stroke="#635dff" stroke-width=".05" fill="#635dff"/><path d="M-272.6 351.18l1.75-.03 3.97-.25 3.74-.4 3.54-.52 3.4-.65 3.26-.76 3.15-.88 3.08-1 3-1.13 3-1.25 2.94-1.4 2.96-1.54 3-1.73 3.06-1.94 3.18-2.2 3.34-2.54 3.62-3 4.04-3.64 4.86-4.77 7.17-7.67 22.08-24.57 4.86-4.76 4.04-3.65 3.6-3 3.36-2.54 3.17-2.2 3.06-1.95 3-1.72 2.96-1.55 2.95-1.4 2.97-1.24 3-1.13 3.08-1 3.16-.88 3.26-.78 3.4-.64 3.54-.53 3.74-.4 3.97-.24 1.74-.02" stroke="#635dff" stroke-width="5" stroke-linejoin="round" fill="none"/><path d="M-272.48 353.66l-2.6.05v-4.94l2.5-.05zM-115.1 262.1h-2.56v-4.95h2.57z" stroke="#635dff" stroke-width=".05" fill="#635dff"/><path d="M-1072.28 494.55l.55.08.75.14.76.18.77.22.77.25.8.3.8.33.82.4.84.43.87.5.9.58.95.65.98.76 1.03.85 1.1 1 1.16 1.13 1.23 1.3 1.32 1.55 1.43 1.8 1.56 2.16 1.72 2.58 1.9 3.13 2.1 3.86 2.4 4.85 2.76 6.2 3.22 8.15 3.84 11.08 4.74 15.77 6.15 24.12 8.9 42.36 49.7 289.68 6.14 24.13 4.74 15.77 3.85 11.08 3.22 8.15 2.75 6.2 2.4 4.84 2.12 3.86 1.9 3.14 1.7 2.57 1.56 2.15 1.44 1.8 1.32 1.54 1.24 1.3 1.15 1.15 1.1.97 1.02.85 1 .75.93.66.9.57.87.5.85.45.82.38.8.34.8.3.77.25.77.2.76.2.76.13.53.08" stroke="#fc9432" stroke-width="5" stroke-linejoin="round" fill="none"/><path d="M-1072.15 491.95l-.1 4.95-2.72-.05.2-2.48-.2-2.48zM-914.77 1012.93v4.95h-2.57v-4.95z" stroke="#fc9432" stroke-width=".05" fill="#fc9432"/><path d="M-567.35 7.64l2.33-.14 2.3-.24 2.22-.33 2.18-.42 2.13-.5 2.12-.58 2.08-.67 2.07-.77 2.06-.87 2.07-.96 2.08-1.1 2.1-1.2 2.14-1.37 2.2-1.52 2.24-1.7 2.32-1.93 2.42-2.18 2.55-2.5 2.7-2.87 2.9-3.35 3.14-4 3.5-4.84 4.07-6.12 5-8.28 7.36-13.46 25.8-49.82 5-8.28 4.05-6.13 3.52-4.86 3.16-3.98 2.9-3.36 2.7-2.87 2.53-2.5 2.4-2.18 2.34-1.92 2.24-1.7 2.2-1.53 2.13-1.36 2.12-1.2 2.08-1.1 2.06-.97 2.07-.87 2.07-.77 2.08-.68 2.1-.58 2.14-.5 2.17-.42 2.22-.33 2.3-.24 2.33-.15" stroke="#635dff" stroke-width="5" stroke-linejoin="round" fill="none"/><path d="M-567.24 10.12l-2.6.05V5.22l2.5-.05zM-409.85-150.15h-2.57v-4.95h2.57z" stroke="#635dff" stroke-width=".05" fill="#635dff"/><path d="M-305.44-427.5h.36l2.73-.18 2.64-.28 2.53-.37 2.48-.48 2.42-.57 2.36-.66 2.34-.76 2.3-.85 2.3-.96 2.28-1.1 2.3-1.2 2.32-1.33 2.36-1.5 2.4-1.67 2.48-1.88 2.56-2.12 2.68-2.42 2.84-2.77 3.03-3.23 3.32-3.85 3.7-4.7 4.4-6.05 5.73-8.65 30.98-50.8 4.4-6.05 3.72-4.7 3.32-3.86 3.04-3.22 2.83-2.78 2.7-2.4 2.55-2.13 2.48-1.88 2.4-1.7 2.36-1.48 2.3-1.34 2.3-1.2 2.3-1.1 2.3-.95 2.3-.86 2.33-.75 2.37-.66 2.4-.57 2.48-.48 2.55-.38 2.63-.27 2.74-.18h.36" stroke="#635dff" stroke-width="5" stroke-linejoin="round" fill="none"/><path d="M-305.32-425.03l-2.62.05v-4.95l2.5-.05zM-147.94-562.4h-2.57v-4.94h2.56z" stroke="#635dff" stroke-width=".05" fill="#635dff"/><path d="M-795.7 1015.3h.14l1.3-.14 1.27-.2 1.28-.23 1.26-.3 1.26-.35 1.27-.4 1.28-.5 1.3-.53 1.3-.62 1.34-.7 1.35-.8 1.4-.88 1.46-1 1.5-1.14 1.57-1.3 1.63-1.46 1.72-1.7 1.82-1.92 1.94-2.25 2.08-2.62 2.24-3.1 2.45-3.68 2.7-4.47 3-5.5 3.44-6.9 3.98-9 4.84-12.27 6.33-18.28 10.7-35.9 27.37-97.12 6.33-18.28 4.84-12.27 4-9 3.4-6.9 3.03-5.5 2.7-4.46 2.44-3.7 2.25-3.08 2.07-2.63 1.93-2.23 1.82-1.94 1.72-1.7 1.64-1.46 1.57-1.3 1.5-1.13 1.45-1 1.4-.9 1.37-.8 1.32-.7 1.3-.6 1.3-.55 1.28-.5 1.27-.4 1.26-.35 1.27-.3 1.27-.24 1.27-.18 1.3-.13.15-.02" stroke="#fc9432" stroke-width="5" stroke-linejoin="round" fill="none"/><path d="M-795.6 1017.83l-2.6.05v-4.95l2.5-.05zM-638.2 720.15h-2.58v-4.95h2.57z" stroke="#fc9432" stroke-width=".05" fill="#fc9432"/><path d="M-74.43-564.92l1.74-.03 3.98-.25 3.73-.4 3.56-.52 3.4-.64 3.26-.77 3.15-.88 3.07-1 3-1.13 3-1.25 2.94-1.4 2.96-1.54 3-1.73 3.06-1.94 3.18-2.2 3.35-2.54 3.6-3 4.05-3.64 4.86-4.77 7.17-7.67 22.1-24.57 4.85-4.76 4.05-3.65 3.6-3 3.36-2.54 3.17-2.2 3.06-1.95 3-1.72 2.95-1.55 2.96-1.4 2.98-1.24 3-1.13 3.08-1 3.16-.88 3.26-.78 3.4-.64 3.54-.53 3.74-.4 3.97-.24 1.74-.02" stroke="#635dff" stroke-width="5" stroke-linejoin="round" fill="none"/><path d="M-74.32-562.44l-2.6.05v-4.94l2.5-.05zM83.07-654H80.5v-4.95h2.57z" stroke="#635dff" stroke-width=".05" fill="#635dff"/><path d="M-804.32-118.4l.3-.04.92-.14.92-.17.92-.22.92-.26.94-.3.94-.35.97-.4 1-.47 1-.53 1.03-.6 1.07-.67 1.1-.78 1.16-.87 1.22-1 1.27-1.16 1.35-1.32 1.43-1.53 1.54-1.8 1.65-2.07 1.8-2.48 1.96-2.95 2.16-3.6 2.42-4.4 2.73-5.5 3.12-7.04 3.66-9.28 4.4-12.72 5.56-18.47 7.64-30.03 16.23-78.52 24.6-122.64 7.64-30.02 5.54-18.47 4.4-12.7 3.68-9.3 3.13-7.03 2.72-5.5 2.4-4.4 2.18-3.6 1.96-2.95 1.8-2.48 1.65-2.08 1.54-1.78 1.43-1.53 1.35-1.32 1.28-1.15 1.2-1 1.16-.88 1.12-.78 1.07-.68 1.03-.6 1-.52 1-.46.95-.4.95-.36.93-.3.93-.26.92-.22.92-.17.92-.14.3-.02" stroke="#635dff" stroke-width="5" stroke-linejoin="round" fill="none"/><path d="M-804.2-115.85l-2.6.06v-4.94l2.5-.06zM-646.8-539.5h-2.58v-4.94h2.57z" stroke="#635dff" stroke-width=".05" fill="#635dff"/><path d="M-287.84 626l1.74-.02 3.97-.25 3.74-.4 3.55-.52 3.4-.63 3.26-.77 3.16-.88 3.07-1 3-1.12 3-1.25 2.94-1.4 2.96-1.54 3-1.72 3.06-1.94 3.17-2.2 3.34-2.55 3.63-3 4.04-3.65 4.86-4.77 7.17-7.67 22.08-24.56 4.86-4.77 4.05-3.65 3.6-3 3.34-2.53 3.18-2.22 3.06-1.94 3-1.73 2.96-1.54 2.96-1.4 2.97-1.24 3-1.12 3.08-1 3.16-.88 3.27-.77 3.4-.64 3.54-.52 3.75-.4 3.97-.24 1.74-.03" stroke="#fc9432" stroke-width="5" stroke-linejoin="round" fill="none"/><path d="M-287.73 628.5l-2.6.04v-4.95l2.5-.06zM-130.34 536.93h-2.57v-4.95h2.56z" stroke="#fc9432" stroke-width=".05" fill="#fc9432"/><path d="M-306.94 992.45l1.74-.03 3.96-.25 3.75-.4 3.56-.52 3.4-.64 3.25-.76 3.16-.88 3.07-1 3-1.12 3-1.25 2.94-1.4 2.96-1.55 3-1.73 3.06-1.94 3.17-2.2 3.35-2.55 3.6-3 4.05-3.64 4.86-4.78 7.17-7.67 22.08-24.57 4.86-4.77 4.05-3.64 3.6-3 3.34-2.53 3.18-2.2 3.06-1.95 3-1.73 2.96-1.55 2.96-1.4 2.97-1.24 3-1.12 3.08-1 3.16-.88 3.27-.77 3.4-.65 3.54-.53 3.75-.4 3.97-.24 1.74-.03" stroke="#fc9432" stroke-width="5" stroke-linejoin="round" fill="none"/><path d="M-306.83 994.93l-2.6.05v-4.95l2.5-.05zM-149.44 903.37H-152v-4.95h2.56z" stroke="#fc9432" stroke-width=".05" fill="#fc9432"/><path d="M-578.3-542l.9-.03 3.25-.2 3.1-.33 2.96-.44 2.87-.54 2.77-.66 2.7-.75 2.65-.86 2.6-.98 2.6-1.1 2.56-1.2 2.58-1.35 2.6-1.5 2.63-1.67 2.7-1.88 2.8-2.12 2.9-2.4 3.1-2.8 3.32-3.25 3.7-3.95 4.3-5 5.52-6.98 30.3-41.47 4.28-5 3.7-3.93 3.33-3.27 3.1-2.78 2.9-2.4 2.8-2.13 2.7-1.88 2.63-1.67 2.6-1.5 2.58-1.36 2.57-1.2 2.6-1.1 2.6-.97 2.65-.86 2.7-.74 2.78-.65 2.86-.54 2.95-.44 3.1-.32 3.23-.2.92-.02" stroke="#635dff" stroke-width="5" stroke-linejoin="round" fill="none"/><path d="M-578.2-539.54l-2.6.05v-4.94l2.5-.05zM-420.8-654h-2.57v-4.95h2.57z" stroke="#635dff" stroke-width=".05" fill="#635dff"/><path d="M-1317.28 494.43l-5.7.1-7.2.46-6.45.67-5.87.87-5.43 1.03-5.12 1.2-4.9 1.37-4.8 1.56-4.84 1.8-5.07 2.13-5.7 2.7-7.8 4.08-25 13.83-5.7 2.7-5.08 2.13-4.84 1.8-4.8 1.56-4.9 1.37-5.1 1.18-5.45 1.04-5.87.87-6.45.66-7.2.45-5.7.13" stroke="#fc9432" stroke-width="5" stroke-linejoin="round" fill="none"/><path d="M-1314.77 494.38l.2 2.47-2.72.05-.1-4.95 2.82-.06zM-1472.2 542.65h-2.57v-4.94h2.56z" stroke="#fc9432" stroke-width=".05" fill="#fc9432"/><path d="M-1317.28 494.32l-5.7-.1-7.2-.46-6.45-.68-5.87-.87-5.43-1.02-5.12-1.2-4.9-1.37-4.8-1.55-4.84-1.8-5.07-2.13-5.7-2.7-7.8-4.1-25-13.8-5.7-2.7-5.08-2.13-4.84-1.8-4.8-1.57-4.9-1.37-5.1-1.2-5.45-1.03-5.87-.87-6.45-.67-7.2-.46-5.7-.12" stroke="#d916a8" stroke-width="5" stroke-linejoin="round" fill="none"/><path d="M-1314.58 491.9l-.2 2.48.2 2.48-2.8-.06.1-4.95zM-1472.2 446.1v4.94h-2.57v-4.94z" stroke="#d916a8" stroke-width=".05" fill="#d916a8"/><path d="M-1317.28 494.32h-.35l-2.74-.18-2.63-.27-2.55-.38-2.47-.48-2.4-.57-2.38-.66-2.33-.76-2.3-.86-2.3-.97-2.3-1.06-2.3-1.2-2.3-1.35-2.37-1.5-2.4-1.68-2.48-1.88-2.56-2.12-2.68-2.4-2.83-2.8-3.04-3.22-3.3-3.85-3.73-4.7-4.4-6.06-5.7-8.65-31-50.8-4.4-6.06-3.7-4.7-3.33-3.86-3.03-3.24-2.83-2.77-2.68-2.42-2.57-2.1-2.47-1.9-2.4-1.66-2.37-1.5-2.33-1.34-2.3-1.2-2.3-1.08-2.28-.96-2.32-.86-2.33-.76-2.36-.66-2.43-.56-2.47-.48-2.54-.37-2.64-.28-2.73-.18h-.37" stroke="#ba23f6" stroke-width="5" stroke-linejoin="round" fill="none"/><path d="M-1314.58 491.9l-.2 2.48.2 2.48-2.8-.06.1-4.95zM-1472.2 354.5v4.94h-2.57v-4.95z" stroke="#ba23f6" stroke-width=".05" fill="#ba23f6"/><path d="M-1072.28 494.17h.1l.65-.14.65-.15.66-.18.67-.22.68-.25.7-.3.7-.33.74-.4.76-.43.8-.5.8-.57.87-.65.9-.75.97-.87 1.02-1 1.08-1.16 1.17-1.36 1.28-1.6 1.4-1.9 1.52-2.32 1.7-2.8 1.9-3.48 2.16-4.36 2.5-5.6 2.9-7.37 3.48-10.02 4.26-14.2 5.45-21.38 7.47-35.56 12.45-75.18L-967.22 1.8l7.48-35.56 5.45-21.4 4.28-14.2 3.47-10 2.9-7.37 2.5-5.6 2.16-4.36 1.9-3.47 1.7-2.8 1.54-2.3 1.4-1.92 1.26-1.6 1.17-1.36 1.1-1.17 1-1 .97-.86.9-.74.87-.65.83-.57.8-.5.75-.43.73-.4.73-.32.7-.3.67-.25.67-.22.66-.17.65-.16.65-.12h.1" stroke="#635dff" stroke-width="5" stroke-linejoin="round" fill="none"/><path d="M-1072.15 496.8l-2.82.06.2-2.5-.2-2.46 2.7-.05zM-914.77-115.8h-2.57v-4.94h2.57z" stroke="#635dff" stroke-width=".05" fill="#635dff"/><defs><path d="M30-248c118-7 216 8 213 122C240-48 200 0 122 0H30v-248zM63-27c89 8 146-16 146-99s-60-101-146-95v194" id="af"/><path d="M185-189c-5-48-123-54-124 2 14 75 158 14 163 119 3 78-121 87-175 55-17-10-28-26-33-46l33-7c5 56 141 63 141-1 0-78-155-14-162-118-5-82 145-84 179-34 5 7 8 16 11 25" id="ag"/><path d="M194 0L95-120 63-95V0H30v-248h33v124l119-124h40L117-140 236 0h-42" id="ah"/><g id="a"><use transform="matrix(0.05,0,0,0.05,0,0)" xlink:href="#af"/><use transform="matrix(0.05,0,0,0.05,12.950000000000001,0)" xlink:href="#ag"/><use transform="matrix(0.05,0,0,0.05,24.950000000000003,0)" xlink:href="#ah"/></g><path d="M212-179c-10-28-35-45-73-45-59 0-87 40-87 99 0 60 29 101 89 101 43 0 62-24 78-52l27 14C228-24 195 4 139 4 59 4 22-46 18-125c-6-104 99-153 187-111 19 9 31 26 39 46" id="ai"/><path d="M100-194c62-1 85 37 85 99 1 63-27 99-86 99S16-35 15-95c0-66 28-99 85-99zM99-20c44 1 53-31 53-75 0-43-8-75-51-75s-53 32-53 75 10 74 51 75" id="aj"/><path d="M115-194c55 1 70 41 70 98S169 2 115 4C84 4 66-9 55-30l1 105H24l-1-265h31l2 30c10-21 28-34 59-34zm-8 174c40 0 45-34 45-75s-6-73-45-74c-42 0-51 32-51 76 0 43 10 73 51 73" id="ak"/><path d="M24-231v-30h32v30H24zM24 0v-190h32V0H24" id="al"/><path d="M24 0v-261h32V0H24" id="am"/><path d="M59-47c-2 24 18 29 38 22v24C64 9 27 4 27-40v-127H5v-23h24l9-43h21v43h35v23H59v120" id="an"/><g id="b"><use transform="matrix(0.05,0,0,0.05,0,0)" xlink:href="#ai"/><use transform="matrix(0.05,0,0,0.05,12.950000000000001,0)" xlink:href="#aj"/><use transform="matrix(0.05,0,0,0.05,22.950000000000003,0)" xlink:href="#ak"/><use transform="matrix(0.05,0,0,0.05,32.95,0)" xlink:href="#al"/><use transform="matrix(0.05,0,0,0.05,36.900000000000006,0)" xlink:href="#am"/><use transform="matrix(0.05,0,0,0.05,40.85000000000001,0)" xlink:href="#aj"/><use transform="matrix(0.05,0,0,0.05,50.85000000000001,0)" xlink:href="#an"/></g><path d="M117-194c89-4 53 116 60 194h-32v-121c0-31-8-49-39-48C34-167 62-67 57 0H25l-1-190h30c1 10-1 24 2 32 11-22 29-35 61-36" id="ao"/><path d="M85-194c31 0 48 13 60 33l-1-100h32l1 261h-30c-2-10 0-23-3-31C134-8 116 4 85 4 32 4 16-35 15-94c0-66 23-100 70-100zm9 24c-40 0-46 34-46 75 0 40 6 74 45 74 42 0 51-32 51-76 0-42-9-74-50-73" id="ap"/><path d="M108 0H70L1-190h34L89-25l56-165h34" id="aq"/><path d="M135-143c-3-34-86-38-87 0 15 53 115 12 119 90S17 21 10-45l28-5c4 36 97 45 98 0-10-56-113-15-118-90-4-57 82-63 122-42 12 7 21 19 24 35" id="ar"/><path d="M100-194c63 0 86 42 84 106H49c0 40 14 67 53 68 26 1 43-12 49-29l28 8c-11 28-37 45-77 45C44 4 14-33 15-96c1-61 26-98 85-98zm52 81c6-60-76-77-97-28-3 7-6 17-6 28h103" id="as"/><g id="c"><use transform="matrix(0.05,0,0,0.05,0,0)" xlink:href="#ai"/><use transform="matrix(0.05,0,0,0.05,12.950000000000001,0)" xlink:href="#aj"/><use transform="matrix(0.05,0,0,0.05,22.950000000000003,0)" xlink:href="#ao"/><use transform="matrix(0.05,0,0,0.05,32.95,0)" xlink:href="#ap"/><use transform="matrix(0.05,0,0,0.05,42.95,0)" xlink:href="#al"/><use transform="matrix(0.05,0,0,0.05,46.900000000000006,0)" xlink:href="#aq"/><use transform="matrix(0.05,0,0,0.05,55.900000000000006,0)" xlink:href="#al"/><use transform="matrix(0.05,0,0,0.05,59.85,0)" xlink:href="#ar"/><use transform="matrix(0.05,0,0,0.05,68.85000000000001,0)" xlink:href="#al"/><use transform="matrix(0.05,0,0,0.05,72.80000000000001,0)" xlink:href="#aj"/><use transform="matrix(0.05,0,0,0.05,82.80000000000001,0)" xlink:href="#ao"/><use transform="matrix(0.05,0,0,0.05,92.80000000000001,0)" xlink:href="#as"/></g><path d="M141-36C126-15 110 5 73 4 37 3 15-17 15-53c-1-64 63-63 125-63 3-35-9-54-41-54-24 1-41 7-42 31l-33-3c5-37 33-52 76-52 45 0 72 20 72 64v82c-1 20 7 32 28 27v20c-31 9-61-2-59-35zM48-53c0 20 12 33 32 33 41-3 63-29 60-74-43 2-92-5-92 41" id="at"/><path d="M114-163C36-179 61-72 57 0H25l-1-190h30c1 12-1 29 2 39 6-27 23-49 58-41v29" id="au"/><g id="d"><use transform="matrix(0.05,0,0,0.05,0,0)" xlink:href="#ai"/><use transform="matrix(0.05,0,0,0.05,12.950000000000001,0)" xlink:href="#at"/><use transform="matrix(0.05,0,0,0.05,22.950000000000003,0)" xlink:href="#au"/><use transform="matrix(0.05,0,0,0.05,28.900000000000002,0)" xlink:href="#an"/><use transform="matrix(0.05,0,0,0.05,33.900000000000006,0)" xlink:href="#as"/><use transform="matrix(0.05,0,0,0.05,43.900000000000006,0)" xlink:href="#am"/><use transform="matrix(0.05,0,0,0.05,47.85000000000001,0)" xlink:href="#am"/><use transform="matrix(0.05,0,0,0.05,51.80000000000001,0)" xlink:href="#as"/></g><path d="M205 0l-28-72H64L36 0H1l101-248h38L239 0h-34zm-38-99l-47-123c-12 45-31 82-46 123h93" id="av"/><path d="M30-248c87 1 191-15 191 75 0 78-77 80-158 76V0H30v-248zm33 125c57 0 124 11 124-50 0-59-68-47-124-48v98" id="aw"/><g id="e"><use transform="matrix(0.05,0,0,0.05,0,0)" xlink:href="#av"/><use transform="matrix(0.05,0,0,0.05,12,0)" xlink:href="#aw"/><use transform="matrix(0.05,0,0,0.05,24,0)" xlink:href="#aw"/></g><path d="M96-169c-40 0-48 33-48 73s9 75 48 75c24 0 41-14 43-38l32 2c-6 37-31 61-74 61-59 0-76-41-82-99-10-93 101-131 147-64 4 7 5 14 7 22l-32 3c-4-21-16-35-41-35" id="ax"/><g id="f"><use transform="matrix(0.05,0,0,0.05,0,0)" xlink:href="#ag"/><use transform="matrix(0.05,0,0,0.05,12,0)" xlink:href="#ax"/><use transform="matrix(0.05,0,0,0.05,21,0)" xlink:href="#at"/><use transform="matrix(0.05,0,0,0.05,31,0)" xlink:href="#au"/><use transform="matrix(0.05,0,0,0.05,36.95,0)" xlink:href="#al"/><use transform="matrix(0.05,0,0,0.05,40.900000000000006,0)" xlink:href="#ax"/><use transform="matrix(0.05,0,0,0.05,49.900000000000006,0)" xlink:href="#at"/></g><path d="M33 0v-248h34V0H33" id="ay"/><path d="M140-251c81 0 123 46 123 126C263-46 219 4 140 4 59 4 17-45 17-125s42-126 123-126zm0 227c63 0 89-41 89-101s-29-99-89-99c-61 0-89 39-89 99S79-25 140-24" id="az"/><g id="g"><use transform="matrix(0.05,0,0,0.05,0,0)" xlink:href="#ay"/><use transform="matrix(0.05,0,0,0.05,5,0)" xlink:href="#ag"/><use transform="matrix(0.05,0,0,0.05,17,0)" xlink:href="#az"/></g><path d="M30 0v-248h187v28H63v79h144v27H63v87h162V0H30" id="aA"/><path d="M232-93c-1 65-40 97-104 97C67 4 28-28 28-90v-158h33c8 89-33 224 67 224 102 0 64-133 71-224h33v155" id="aB"/><path d="M233-177c-1 41-23 64-60 70L243 0h-38l-65-103H63V0H30v-248c88 3 205-21 203 71zM63-129c60-2 137 13 137-47 0-61-80-42-137-45v92" id="aC"/><g id="h"><use transform="matrix(0.05,0,0,0.05,0,0)" xlink:href="#ag"/><use transform="matrix(0.05,0,0,0.05,12,0)" xlink:href="#aA"/><use transform="matrix(0.05,0,0,0.05,24,0)" xlink:href="#ai"/><use transform="matrix(0.05,0,0,0.05,36.95,0)" xlink:href="#aB"/><use transform="matrix(0.05,0,0,0.05,49.900000000000006,0)" xlink:href="#aC"/><use transform="matrix(0.05,0,0,0.05,62.85,0)" xlink:href="#aA"/></g><path d="M143 4C61 4 22-44 18-125c-5-107 100-154 193-111 17 8 29 25 37 43l-32 9c-13-25-37-40-76-40-61 0-88 39-88 99 0 61 29 100 91 101 35 0 62-11 79-27v-45h-74v-28h105v86C228-13 192 4 143 4" id="aD"/><path d="M190 0L58-211 59 0H30v-248h39L202-35l-2-213h31V0h-41" id="aE"/><g id="i"><use transform="matrix(0.05,0,0,0.05,0,0)" xlink:href="#av"/><use transform="matrix(0.05,0,0,0.05,12,0)" xlink:href="#aD"/><use transform="matrix(0.05,0,0,0.05,26,0)" xlink:href="#aD"/><use transform="matrix(0.05,0,0,0.05,40,0)" xlink:href="#ay"/><use transform="matrix(0.05,0,0,0.05,45,0)" xlink:href="#az"/><use transform="matrix(0.05,0,0,0.05,59,0)" xlink:href="#aC"/><use transform="matrix(0.05,0,0,0.05,71.95,0)" xlink:href="#aE"/><use transform="matrix(0.05,0,0,0.05,84.9,0)" xlink:href="#av"/></g><path d="M266 0h-40l-56-210L115 0H75L2-248h35L96-30l15-64 43-154h32l59 218 59-218h35" id="aF"/><path d="M206 0h-36l-40-164L89 0H53L-1-190h32L70-26l43-164h34l41 164 42-164h31" id="aG"/><g id="j"><use transform="matrix(0.05,0,0,0.05,0,0)" xlink:href="#aF"/><use transform="matrix(0.05,0,0,0.05,16.95,0)" xlink:href="#al"/><use transform="matrix(0.05,0,0,0.05,20.9,0)" xlink:href="#ao"/><use transform="matrix(0.05,0,0,0.05,30.899999999999995,0)" xlink:href="#ap"/><use transform="matrix(0.05,0,0,0.05,40.9,0)" xlink:href="#aj"/><use transform="matrix(0.05,0,0,0.05,50.9,0)" xlink:href="#aG"/><use transform="matrix(0.05,0,0,0.05,63.85,0)" xlink:href="#ar"/></g><path d="M87 75C49 33 22-17 22-94c0-76 28-126 65-167h31c-38 41-64 92-64 168S80 34 118 75H87" id="aH"/><path d="M30 0v-248h33v221h125V0H30" id="aI"/><path d="M33-261c38 41 65 92 65 168S71 34 33 75H2C39 34 66-17 66-93S39-220 2-261h31" id="aJ"/><g id="k"><use transform="matrix(0.05,0,0,0.05,0,0)" xlink:href="#aH"/><use transform="matrix(0.05,0,0,0.05,5.95,0)" xlink:href="#az"/><use transform="matrix(0.05,0,0,0.05,19.95,0)" xlink:href="#aI"/><use transform="matrix(0.05,0,0,0.05,29.950000000000003,0)" xlink:href="#af"/><use transform="matrix(0.05,0,0,0.05,42.9,0)" xlink:href="#aJ"/></g><path d="M127-220V0H93v-220H8v-28h204v28h-85" id="aK"/><g id="l"><use transform="matrix(0.05,0,0,0.05,0,0)" xlink:href="#aF"/><use transform="matrix(0.05,0,0,0.05,16.95,0)" xlink:href="#ay"/><use transform="matrix(0.05,0,0,0.05,21.95,0)" xlink:href="#aE"/><use transform="matrix(0.05,0,0,0.05,34.9,0)" xlink:href="#aD"/><use transform="matrix(0.05,0,0,0.05,48.9,0)" xlink:href="#aA"/><use transform="matrix(0.05,0,0,0.05,60.900000000000006,0)" xlink:href="#aK"/></g><g id="m"><use transform="matrix(0.05,0,0,0.05,0,0)" xlink:href="#ay"/><use transform="matrix(0.05,0,0,0.05,5,0)" xlink:href="#ag"/><use transform="matrix(0.05,0,0,0.05,17,0)" xlink:href="#az"/></g><path d="M101-234c-31-9-42 10-38 44h38v23H63V0H32v-167H5v-23h27c-7-52 17-82 69-68v24" id="aL"/><g id="n"><use transform="matrix(0.05,0,0,0.05,0,0)" xlink:href="#aB"/><use transform="matrix(0.05,0,0,0.05,12.950000000000001,0)" xlink:href="#aL"/><use transform="matrix(0.05,0,0,0.05,17.6,0)" xlink:href="#aL"/><use transform="matrix(0.05,0,0,0.05,22.6,0)" xlink:href="#al"/><use transform="matrix(0.05,0,0,0.05,26.55,0)" xlink:href="#ax"/><use transform="matrix(0.05,0,0,0.05,35.55,0)" xlink:href="#al"/><use transform="matrix(0.05,0,0,0.05,39.5,0)" xlink:href="#at"/><use transform="matrix(0.05,0,0,0.05,49.5,0)" xlink:href="#am"/><use transform="matrix(0.05,0,0,0.05,53.45,0)" xlink:href="#as"/></g><g id="o"><use transform="matrix(0.05,0,0,0.05,0,0)" xlink:href="#af"/><use transform="matrix(0.05,0,0,0.05,12.950000000000001,0)" xlink:href="#ay"/><use transform="matrix(0.05,0,0,0.05,17.950000000000003,0)" xlink:href="#ag"/><use transform="matrix(0.05,0,0,0.05,29.950000000000003,0)" xlink:href="#ay"/><use transform="matrix(0.05,0,0,0.05,34.95,0)" xlink:href="#aE"/><use transform="matrix(0.05,0,0,0.05,47.900000000000006,0)" xlink:href="#ag"/><use transform="matrix(0.05,0,0,0.05,59.900000000000006,0)" xlink:href="#aK"/><use transform="matrix(0.05,0,0,0.05,69.5,0)" xlink:href="#av"/><use transform="matrix(0.05,0,0,0.05,81.5,0)" xlink:href="#aI"/><use transform="matrix(0.05,0,0,0.05,91.5,0)" xlink:href="#aI"/><use transform="matrix(0.05,0,0,0.05,101.5,0)" xlink:href="#av"/></g><path d="M141 0L90-78 38 0H4l68-98-65-92h35l48 74 47-74h35l-64 92 68 98h-35" id="aM"/><path d="M177-190C167-65 218 103 67 71c-23-6-38-20-44-43l32-5c15 47 100 32 89-28v-30C133-14 115 1 83 1 29 1 15-40 15-95c0-56 16-97 71-98 29-1 48 16 59 35 1-10 0-23 2-32h30zM94-22c36 0 50-32 50-73 0-42-14-75-50-75-39 0-46 34-46 75s6 73 46 73" id="aN"/><g id="p"><use transform="matrix(0.05,0,0,0.05,0,0)" xlink:href="#ap"/><use transform="matrix(0.05,0,0,0.05,10,0)" xlink:href="#aM"/><use transform="matrix(0.05,0,0,0.05,19,0)" xlink:href="#ap"/><use transform="matrix(0.05,0,0,0.05,29,0)" xlink:href="#al"/><use transform="matrix(0.05,0,0,0.05,32.95,0)" xlink:href="#at"/><use transform="matrix(0.05,0,0,0.05,42.95,0)" xlink:href="#aN"/></g><g id="q"><use transform="matrix(0.05,0,0,0.05,0,0)" xlink:href="#ap"/><use transform="matrix(0.05,0,0,0.05,10,0)" xlink:href="#aK"/><use transform="matrix(0.05,0,0,0.05,18.950000000000003,0)" xlink:href="#as"/><use transform="matrix(0.05,0,0,0.05,28.950000000000003,0)" xlink:href="#aw"/></g><path d="M210-169c-67 3-38 105-44 169h-31v-121c0-29-5-50-35-48C34-165 62-65 56 0H25l-1-190h30c1 10-1 24 2 32 10-44 99-50 107 0 11-21 27-35 58-36 85-2 47 119 55 194h-31v-121c0-29-5-49-35-48" id="aO"/><g id="r"><use transform="matrix(0.05,0,0,0.05,0,0)" xlink:href="#ai"/><use transform="matrix(0.05,0,0,0.05,12.950000000000001,0)" xlink:href="#am"/><use transform="matrix(0.05,0,0,0.05,16.900000000000002,0)" xlink:href="#as"/><use transform="matrix(0.05,0,0,0.05,26.900000000000002,0)" xlink:href="#at"/><use transform="matrix(0.05,0,0,0.05,36.900000000000006,0)" xlink:href="#ao"/><use transform="matrix(0.05,0,0,0.05,46.900000000000006,0)" xlink:href="#aO"/><use transform="matrix(0.05,0,0,0.05,61.85,0)" xlink:href="#aN"/><use transform="matrix(0.05,0,0,0.05,71.85000000000001,0)" xlink:href="#au"/></g><g id="s"><use transform="matrix(0.05,0,0,0.05,0,0)" xlink:href="#ai"/><use transform="matrix(0.05,0,0,0.05,12.950000000000001,0)" xlink:href="#aC"/><use transform="matrix(0.05,0,0,0.05,25.550000000000004,0)" xlink:href="#aK"/></g><path d="M9 0v-24l116-142H16v-24h144v24L44-24h123V0H9" id="aP"/><g id="t"><use transform="matrix(0.05,0,0,0.05,0,0)" xlink:href="#ay"/><use transform="matrix(0.05,0,0,0.05,5,0)" xlink:href="#ao"/><use transform="matrix(0.05,0,0,0.05,15,0)" xlink:href="#aL"/><use transform="matrix(0.05,0,0,0.05,20,0)" xlink:href="#aj"/><use transform="matrix(0.05,0,0,0.05,30,0)" xlink:href="#au"/><use transform="matrix(0.05,0,0,0.05,35.95,0)" xlink:href="#aO"/><use transform="matrix(0.05,0,0,0.05,50.900000000000006,0)" xlink:href="#at"/><use transform="matrix(0.05,0,0,0.05,60.900000000000006,0)" xlink:href="#aP"/><use transform="matrix(0.05,0,0,0.05,69.9,0)" xlink:href="#al"/><use transform="matrix(0.05,0,0,0.05,73.85000000000001,0)" xlink:href="#aj"/><use transform="matrix(0.05,0,0,0.05,83.85000000000001,0)" xlink:href="#ao"/><use transform="matrix(0.05,0,0,0.05,93.85000000000001,0)" xlink:href="#al"/></g><path d="M197 0v-115H63V0H30v-248h33v105h134v-105h34V0h-34" id="aQ"/><g id="u"><use transform="matrix(0.05,0,0,0.05,0,0)" xlink:href="#ai"/><use transform="matrix(0.05,0,0,0.05,12.950000000000001,0)" xlink:href="#aQ"/><use transform="matrix(0.05,0,0,0.05,25.900000000000002,0)" xlink:href="#ah"/><use transform="matrix(0.05,0,0,0.05,37.900000000000006,0)" xlink:href="#af"/><use transform="matrix(0.05,0,0,0.05,50.85000000000001,0)" xlink:href="#ag"/><use transform="matrix(0.05,0,0,0.05,62.85,0)" xlink:href="#ah"/></g><g id="v"><use transform="matrix(0.05,0,0,0.05,0,0)" xlink:href="#aH"/><use transform="matrix(0.05,0,0,0.05,5.95,0)" xlink:href="#aL"/><use transform="matrix(0.05,0,0,0.05,10.95,0)" xlink:href="#aJ"/></g><g id="w"><use transform="matrix(0.05,0,0,0.05,0,0)" xlink:href="#ai"/><use transform="matrix(0.05,0,0,0.05,12.950000000000001,0)" xlink:href="#at"/><use transform="matrix(0.05,0,0,0.05,22.950000000000003,0)" xlink:href="#ao"/><use transform="matrix(0.05,0,0,0.05,32.95,0)" xlink:href="#ax"/></g><path d="M63-220v92h138v28H63V0H30v-248h175v28H63" id="aR"/><g id="x"><use transform="matrix(0.05,0,0,0.05,0,0)" xlink:href="#ag"/><use transform="matrix(0.05,0,0,0.05,12,0)" xlink:href="#aR"/><use transform="matrix(0.05,0,0,0.05,22.950000000000003,0)" xlink:href="#ai"/></g><g id="y"><use transform="matrix(0.05,0,0,0.05,0,0)" xlink:href="#aQ"/><use transform="matrix(0.05,0,0,0.05,12.950000000000001,0)" xlink:href="#at"/><use transform="matrix(0.05,0,0,0.05,22.950000000000003,0)" xlink:href="#au"/><use transform="matrix(0.05,0,0,0.05,28.900000000000002,0)" xlink:href="#ap"/><use transform="matrix(0.05,0,0,0.05,38.900000000000006,0)" xlink:href="#aG"/><use transform="matrix(0.05,0,0,0.05,51.85,0)" xlink:href="#at"/><use transform="matrix(0.05,0,0,0.05,61.85,0)" xlink:href="#au"/><use transform="matrix(0.05,0,0,0.05,67.80000000000001,0)" xlink:href="#as"/></g><g id="z"><use transform="matrix(0.05,0,0,0.05,0,0)" xlink:href="#aF"/><use transform="matrix(0.05,0,0,0.05,16.95,0)" xlink:href="#al"/><use transform="matrix(0.05,0,0,0.05,20.9,0)" xlink:href="#ao"/><use transform="matrix(0.05,0,0,0.05,30.899999999999995,0)" xlink:href="#ap"/><use transform="matrix(0.05,0,0,0.05,40.9,0)" xlink:href="#aj"/><use transform="matrix(0.05,0,0,0.05,50.9,0)" xlink:href="#aG"/><use transform="matrix(0.05,0,0,0.05,63.85,0)" xlink:href="#ar"/></g><g id="A"><use transform="matrix(0.05,0,0,0.05,0,0)" xlink:href="#aE"/><use transform="matrix(0.05,0,0,0.05,12.950000000000001,0)" xlink:href="#aA"/><use transform="matrix(0.05,0,0,0.05,24.950000000000003,0)" xlink:href="#aK"/></g><g id="B"><use transform="matrix(0.05,0,0,0.05,0,0)" xlink:href="#aB"/><use transform="matrix(0.05,0,0,0.05,12.950000000000001,0)" xlink:href="#ag"/><use transform="matrix(0.05,0,0,0.05,24.950000000000003,0)" xlink:href="#aA"/></g><path d="M240 0l2-218c-23 76-54 145-80 218h-23L58-218 59 0H30v-248h44l77 211c21-75 51-140 76-211h43V0h-30" id="aS"/><g id="C"><use transform="matrix(0.05,0,0,0.05,0,0)" xlink:href="#aS"/><use transform="matrix(0.05,0,0,0.05,14.950000000000001,0)" xlink:href="#af"/><use transform="matrix(0.05,0,0,0.05,27.900000000000002,0)" xlink:href="#ag"/><use transform="matrix(0.05,0,0,0.05,39.900000000000006,0)" xlink:href="#ai"/><use transform="matrix(0.05,0,0,0.05,52.85,0)" xlink:href="#aQ"/><use transform="matrix(0.05,0,0,0.05,65.80000000000001,0)" xlink:href="#aA"/><use transform="matrix(0.05,0,0,0.05,77.80000000000001,0)" xlink:href="#af"/></g><path d="M169-182c-1-43-94-46-97-3 18 66 151 10 154 114 3 95-165 93-204 36-6-8-10-19-12-30l50-8c3 46 112 56 116 5-17-69-150-10-154-114-4-87 153-88 188-35 5 8 8 18 10 28" id="aT"/><path d="M146-102V0H94v-102L6-248h54l60 105 60-105h54" id="aU"/><path d="M67-125c0 53 21 87 73 88 37 1 54-22 65-47l45 17C233-25 199 4 140 4 58 4 20-42 15-125 8-235 124-281 211-232c18 10 29 29 36 50l-46 12c-8-25-30-41-62-41-52 0-71 34-72 86" id="aV"/><path d="M140-251c80 0 125 45 125 126S219 4 139 4C58 4 15-44 15-125s44-126 125-126zm-1 214c52 0 73-35 73-88 0-50-21-86-72-86-52 0-73 35-73 86s22 88 72 88" id="aW"/><path d="M230 0l2-204L168 0h-37L68-204 70 0H24v-248h70l56 185 57-185h69V0h-46" id="aX"/><g id="D"><use transform="matrix(0.05555555555555555,0,0,0.05555555555555555,0,0)" xlink:href="#aT"/><use transform="matrix(0.05555555555555555,0,0,0.05555555555555555,13.333333333333332,0)" xlink:href="#aU"/><use transform="matrix(0.05555555555555555,0,0,0.05555555555555555,26.666666666666664,0)" xlink:href="#aT"/><use transform="matrix(0.05555555555555555,0,0,0.05555555555555555,40,0)" xlink:href="#aV"/><use transform="matrix(0.05555555555555555,0,0,0.05555555555555555,54.388888888888886,0)" xlink:href="#aW"/><use transform="matrix(0.05555555555555555,0,0,0.05555555555555555,69.94444444444444,0)" xlink:href="#aX"/></g><path d="M67-93c0 74 22 123 53 168H70C40 30 18-18 18-93s22-123 52-168h50c-32 44-53 94-53 168" id="aY"/><path d="M24 0v-248h52v208h133V0H24" id="aZ"/><path d="M24 0v-248h52V0H24" id="ba"/><path d="M102-93c0 74-22 123-52 168H0C30 29 54-18 53-93c0-74-22-123-53-168h50c30 45 52 94 52 168" id="bb"/><g id="E"><use transform="matrix(0.05555555555555555,0,0,0.05555555555555555,0,0)" xlink:href="#aY"/><use transform="matrix(0.05555555555555555,0,0,0.05555555555555555,6.611111111111111,0)" xlink:href="#aV"/><use transform="matrix(0.05555555555555555,0,0,0.05555555555555555,21,0)" xlink:href="#aZ"/><use transform="matrix(0.05555555555555555,0,0,0.05555555555555555,33.166666666666664,0)" xlink:href="#ba"/><use transform="matrix(0.05555555555555555,0,0,0.05555555555555555,38.72222222222222,0)" xlink:href="#bb"/></g><g id="F"><use transform="matrix(0.05,0,0,0.05,0,0)" xlink:href="#aI"/><use transform="matrix(0.05,0,0,0.05,10,0)" xlink:href="#ay"/><use transform="matrix(0.05,0,0,0.05,15,0)" xlink:href="#ag"/><use transform="matrix(0.05,0,0,0.05,27,0)" xlink:href="#aK"/><use transform="matrix(0.05,0,0,0.05,36.6,0)" xlink:href="#av"/></g><g id="G"><use transform="matrix(0.05,0,0,0.05,0,0)" xlink:href="#aE"/><use transform="matrix(0.05,0,0,0.05,12.950000000000001,0)" xlink:href="#aA"/><use transform="matrix(0.05,0,0,0.05,24.950000000000003,0)" xlink:href="#aK"/></g><g id="H"><use transform="matrix(0.05,0,0,0.05,0,0)" xlink:href="#af"/><use transform="matrix(0.05,0,0,0.05,12.950000000000001,0)" xlink:href="#al"/><use transform="matrix(0.05,0,0,0.05,16.900000000000002,0)" xlink:href="#ar"/><use transform="matrix(0.05,0,0,0.05,25.900000000000002,0)" xlink:href="#al"/><use transform="matrix(0.05,0,0,0.05,29.85,0)" xlink:href="#ao"/><use transform="matrix(0.05,0,0,0.05,39.85,0)" xlink:href="#ar"/><use transform="matrix(0.05,0,0,0.05,48.85,0)" xlink:href="#an"/><use transform="matrix(0.05,0,0,0.05,53.85,0)" xlink:href="#at"/><use transform="matrix(0.05,0,0,0.05,63.85,0)" xlink:href="#am"/><use transform="matrix(0.05,0,0,0.05,67.8,0)" xlink:href="#am"/><use transform="matrix(0.05,0,0,0.05,71.75,0)" xlink:href="#at"/></g><g id="I"><use transform="matrix(0.05,0,0,0.05,0,0)" xlink:href="#aw"/><use transform="matrix(0.05,0,0,0.05,12,0)" xlink:href="#az"/><use transform="matrix(0.05,0,0,0.05,26,0)" xlink:href="#aF"/><use transform="matrix(0.05,0,0,0.05,42.95,0)" xlink:href="#aA"/><use transform="matrix(0.05,0,0,0.05,54.95,0)" xlink:href="#aC"/><use transform="matrix(0.05,0,0,0.05,67.9,0)" xlink:href="#ai"/><use transform="matrix(0.05,0,0,0.05,80.85000000000001,0)" xlink:href="#aR"/><use transform="matrix(0.05,0,0,0.05,91.80000000000001,0)" xlink:href="#aD"/></g><path d="M115-194c53 0 69 39 70 98 0 66-23 100-70 100C84 3 66-7 56-30L54 0H23l1-261h32v101c10-23 28-34 59-34zm-8 174c40 0 45-34 45-75 0-40-5-75-45-74-42 0-51 32-51 76 0 43 10 73 51 73" id="bc"/><g id="J"><use transform="matrix(0.05,0,0,0.05,0,0)" xlink:href="#aH"/><use transform="matrix(0.05,0,0,0.05,5.95,0)" xlink:href="#bc"/><use transform="matrix(0.05,0,0,0.05,15.949999999999998,0)" xlink:href="#aJ"/></g><path d="M84 4C-5 8 30-112 23-190h32v120c0 31 7 50 39 49 72-2 45-101 50-169h31l1 190h-30c-1-10 1-25-2-33-11 22-28 36-60 37" id="bd"/><g id="K"><use transform="matrix(0.05,0,0,0.05,0,0)" xlink:href="#aw"/><use transform="matrix(0.05,0,0,0.05,12,0)" xlink:href="#bd"/><use transform="matrix(0.05,0,0,0.05,22,0)" xlink:href="#am"/><use transform="matrix(0.05,0,0,0.05,25.950000000000003,0)" xlink:href="#al"/><use transform="matrix(0.05,0,0,0.05,29.899999999999995,0)" xlink:href="#aP"/><use transform="matrix(0.05,0,0,0.05,38.9,0)" xlink:href="#al"/><use transform="matrix(0.05,0,0,0.05,42.85,0)" xlink:href="#at"/></g><g id="L"><use transform="matrix(0.05,0,0,0.05,0,0)" xlink:href="#aE"/><use transform="matrix(0.05,0,0,0.05,12.950000000000001,0)" xlink:href="#aA"/><use transform="matrix(0.05,0,0,0.05,24.950000000000003,0)" xlink:href="#aK"/><use transform="matrix(0.05,0,0,0.05,35.900000000000006,0)" xlink:href="#ag"/><use transform="matrix(0.05,0,0,0.05,47.900000000000006,0)" xlink:href="#aQ"/></g><path d="M106-169C34-169 62-67 57 0H25v-261h32l-1 103c12-21 28-36 61-36 89 0 53 116 60 194h-32v-121c2-32-8-49-39-48" id="be"/><g id="M"><use transform="matrix(0.05,0,0,0.05,0,0)" xlink:href="#aL"/><use transform="matrix(0.05,0,0,0.05,5,0)" xlink:href="#am"/><use transform="matrix(0.05,0,0,0.05,8.95,0)" xlink:href="#bd"/><use transform="matrix(0.05,0,0,0.05,18.95,0)" xlink:href="#ar"/><use transform="matrix(0.05,0,0,0.05,27.950000000000003,0)" xlink:href="#be"/><use transform="matrix(0.05,0,0,0.05,37.95,0)" xlink:href="#ap"/><use transform="matrix(0.05,0,0,0.05,47.95,0)" xlink:href="#ao"/><use transform="matrix(0.05,0,0,0.05,57.95,0)" xlink:href="#ar"/></g><g id="N"><use transform="matrix(0.05,0,0,0.05,0,0)" xlink:href="#ap"/><use transform="matrix(0.05,0,0,0.05,10,0)" xlink:href="#aL"/><use transform="matrix(0.05,0,0,0.05,15,0)" xlink:href="#au"/><use transform="matrix(0.05,0,0,0.05,20.95,0)" xlink:href="#aN"/><use transform="matrix(0.05,0,0,0.05,30.950000000000003,0)" xlink:href="#bd"/><use transform="matrix(0.05,0,0,0.05,40.95,0)" xlink:href="#al"/></g><g id="O"><use transform="matrix(0.05,0,0,0.05,0,0)" xlink:href="#af"/><use transform="matrix(0.05,0,0,0.05,12.950000000000001,0)" xlink:href="#ag"/><use transform="matrix(0.05,0,0,0.05,24.950000000000003,0)" xlink:href="#ah"/></g><g id="P"><use transform="matrix(0.05,0,0,0.05,0,0)" xlink:href="#ag"/><use transform="matrix(0.05,0,0,0.05,12,0)" xlink:href="#az"/></g><g id="Q"><use transform="matrix(0.05,0,0,0.05,0,0)" xlink:href="#ay"/><use transform="matrix(0.05,0,0,0.05,5,0)" xlink:href="#aE"/><use transform="matrix(0.05,0,0,0.05,17.950000000000003,0)" xlink:href="#ag"/><use transform="matrix(0.05,0,0,0.05,29.950000000000003,0)" xlink:href="#aK"/><use transform="matrix(0.05,0,0,0.05,39.550000000000004,0)" xlink:href="#av"/><use transform="matrix(0.05,0,0,0.05,51.550000000000004,0)" xlink:href="#aI"/><use transform="matrix(0.05,0,0,0.05,61.550000000000004,0)" xlink:href="#aI"/><use transform="matrix(0.05,0,0,0.05,71.55000000000001,0)" xlink:href="#av"/></g><g id="R"><use transform="matrix(0.05,0,0,0.05,0,0)" xlink:href="#aw"/><use transform="matrix(0.05,0,0,0.05,12,0)" xlink:href="#aj"/><use transform="matrix(0.05,0,0,0.05,22,0)" xlink:href="#aG"/><use transform="matrix(0.05,0,0,0.05,34.95,0)" xlink:href="#as"/><use transform="matrix(0.05,0,0,0.05,44.95,0)" xlink:href="#au"/><use transform="matrix(0.05,0,0,0.05,50.900000000000006,0)" xlink:href="#ai"/><use transform="matrix(0.05,0,0,0.05,63.85,0)" xlink:href="#aR"/><use transform="matrix(0.05,0,0,0.05,74.80000000000001,0)" xlink:href="#aD"/></g><g id="S"><use transform="matrix(0.05,0,0,0.05,0,0)" xlink:href="#aH"/><use transform="matrix(0.05,0,0,0.05,5.95,0)" xlink:href="#as"/><use transform="matrix(0.05,0,0,0.05,15.949999999999998,0)" xlink:href="#aJ"/></g><g id="T"><use transform="matrix(0.05,0,0,0.05,0,0)" xlink:href="#aC"/><use transform="matrix(0.05,0,0,0.05,12.950000000000001,0)" xlink:href="#as"/><use transform="matrix(0.05,0,0,0.05,22.950000000000003,0)" xlink:href="#ak"/><use transform="matrix(0.05,0,0,0.05,32.95,0)" xlink:href="#aj"/><use transform="matrix(0.05,0,0,0.05,42.95,0)" xlink:href="#au"/><use transform="matrix(0.05,0,0,0.05,48.900000000000006,0)" xlink:href="#an"/></g><g id="U"><use transform="matrix(0.05,0,0,0.05,0,0)" xlink:href="#av"/><use transform="matrix(0.05,0,0,0.05,12,0)" xlink:href="#aw"/><use transform="matrix(0.05,0,0,0.05,24,0)" xlink:href="#aw"/></g><path d="M137 0h-34L2-248h35l83 218 83-218h36" id="bf"/><g id="V"><use transform="matrix(0.05,0,0,0.05,0,0)" xlink:href="#bf"/><use transform="matrix(0.05,0,0,0.05,12,0)" xlink:href="#ay"/><use transform="matrix(0.05,0,0,0.05,17,0)" xlink:href="#ag"/><use transform="matrix(0.05,0,0,0.05,29,0)" xlink:href="#az"/></g><g id="W"><use transform="matrix(0.05,0,0,0.05,0,0)" xlink:href="#aK"/><use transform="matrix(0.05,0,0,0.05,10.950000000000001,0)" xlink:href="#aw"/><use transform="matrix(0.05,0,0,0.05,22.950000000000003,0)" xlink:href="#aS"/></g><g id="X"><use transform="matrix(0.05,0,0,0.05,0,0)" xlink:href="#aD"/><use transform="matrix(0.05,0,0,0.05,14,0)" xlink:href="#aB"/><use transform="matrix(0.05,0,0,0.05,26.950000000000003,0)" xlink:href="#ay"/><use transform="matrix(0.05,0,0,0.05,31.950000000000003,0)" xlink:href="#af"/><use transform="matrix(0.05,0,0,0.05,44.900000000000006,0)" xlink:href="#av"/></g><g id="Y"><use transform="matrix(0.05,0,0,0.05,0,0)" xlink:href="#ay"/><use transform="matrix(0.05,0,0,0.05,5,0)" xlink:href="#ai"/><use transform="matrix(0.05,0,0,0.05,17.950000000000003,0)" xlink:href="#al"/><use transform="matrix(0.05,0,0,0.05,21.900000000000002,0)" xlink:href="#aC"/><use transform="matrix(0.05,0,0,0.05,34.85,0)" xlink:href="#at"/></g><g id="Z"><use transform="matrix(0.05,0,0,0.05,0,0)" xlink:href="#ai"/><use transform="matrix(0.05,0,0,0.05,12.950000000000001,0)" xlink:href="#aQ"/><use transform="matrix(0.05,0,0,0.05,25.900000000000002,0)" xlink:href="#ah"/><use transform="matrix(0.05,0,0,0.05,37.900000000000006,0)" xlink:href="#af"/><use transform="matrix(0.05,0,0,0.05,50.85000000000001,0)" xlink:href="#ag"/><use transform="matrix(0.05,0,0,0.05,62.85,0)" xlink:href="#ah"/></g><g id="aa"><use transform="matrix(0.05,0,0,0.05,0,0)" xlink:href="#aH"/><use transform="matrix(0.05,0,0,0.05,5.95,0)" xlink:href="#au"/><use transform="matrix(0.05,0,0,0.05,11.9,0)" xlink:href="#aJ"/></g><g id="ab"><use transform="matrix(0.05,0,0,0.05,0,0)" xlink:href="#ag"/><use transform="matrix(0.05,0,0,0.05,12,0)" xlink:href="#az"/></g><g id="ac"><use transform="matrix(0.05,0,0,0.05,0,0)" xlink:href="#ay"/><use transform="matrix(0.05,0,0,0.05,5,0)" xlink:href="#ag"/><use transform="matrix(0.05,0,0,0.05,17,0)" xlink:href="#az"/></g><g id="ad"><use transform="matrix(0.05,0,0,0.05,0,0)" xlink:href="#ar"/><use transform="matrix(0.05,0,0,0.05,9,0)" xlink:href="#be"/><use transform="matrix(0.05,0,0,0.05,19,0)" xlink:href="#au"/><use transform="matrix(0.05,0,0,0.05,24.95,0)" xlink:href="#ak"/><use transform="matrix(0.05,0,0,0.05,34.95,0)" xlink:href="#bd"/><use transform="matrix(0.05,0,0,0.05,44.95,0)" xlink:href="#bc"/><use transform="matrix(0.05,0,0,0.05,54.95,0)" xlink:href="#aG"/></g><g id="ae"><use transform="matrix(0.05,0,0,0.05,0,0)" xlink:href="#af"/><use transform="matrix(0.05,0,0,0.05,12.950000000000001,0)" xlink:href="#ay"/><use transform="matrix(0.05,0,0,0.05,17.950000000000003,0)" xlink:href="#ag"/><use transform="matrix(0.05,0,0,0.05,29.950000000000003,0)" xlink:href="#aS"/></g></defs></g></svg>