<?xml version="1.0" standalone="no"?>
<!DOCTYPE svg PUBLIC "-//W3C//DTD SVG 20010904//EN"
 "http://www.w3.org/TR/2001/REC-SVG-20010904/DTD/svg10.dtd">
<svg version="1.0" xmlns="http://www.w3.org/2000/svg"
 width="700.000000pt" height="700.000000pt" viewBox="0 0 700.000000 700.000000"
 preserveAspectRatio="xMidYMid meet">
<metadata>
Created by potrace 1.14, written by Peter Selinger 2001-2017
</metadata>
<g transform="translate(0.000000,700.000000) scale(0.100000,-0.100000)"
fill="#000000" stroke="none">
<path d="M818 6996 c-1 -2 -62 -7 -134 -10 -73 -4 -142 -9 -155 -11 -13 -2
-59 -6 -101 -10 -43 -3 -90 -8 -105 -10 -16 -2 -56 -6 -89 -10 -34 -3 -84 -9
-110 -13 l-49 -7 -7 -49 c-4 -27 -10 -76 -13 -110 -4 -33 -8 -74 -10 -91 -2
-16 -7 -66 -10 -110 -4 -44 -8 -91 -10 -104 -26 -160 -25 -831 0 -1046 2 -16
7 -57 11 -90 3 -33 8 -67 9 -76 2 -9 6 -40 10 -70 26 -214 125 -616 230 -939
69 -211 258 -714 275 -733 4 -5 0 -25 -11 -45 -10 -21 -32 -73 -49 -117 -18
-44 -36 -89 -40 -100 -57 -129 -172 -473 -164 -486 4 -7 3 -9 -3 -6 -6 4 -13
-3 -16 -16 -2 -12 -23 -80 -45 -152 -35 -112 -100 -356 -116 -435 -3 -14 -16
-81 -30 -150 -14 -69 -28 -152 -31 -185 -4 -33 -9 -73 -11 -90 -5 -30 -13 -92
-19 -150 -25 -237 -25 -861 0 -1017 2 -13 6 -63 10 -112 4 -49 8 -98 10 -110
2 -11 6 -50 10 -86 3 -36 8 -74 10 -85 2 -11 4 -34 4 -52 1 -35 8 -39 86 -48
28 -3 69 -7 93 -10 68 -8 123 -14 192 -20 36 -4 79 -8 95 -10 141 -18 710 -26
900 -13 167 12 246 21 251 29 2 4 11 6 18 3 12 -4 102 7 246 31 85 15 243 48
335 72 145 36 318 84 330 91 6 4 16 7 22 8 19 3 217 66 228 73 6 3 15 6 20 7
49 8 605 225 600 234 -2 4 2 7 10 7 8 0 15 -4 15 -8 0 -5 15 -12 33 -18 36
-10 132 -48 161 -63 11 -6 31 -14 45 -18 14 -5 58 -21 96 -35 102 -39 278
-102 375 -135 234 -78 605 -178 617 -166 4 3 11 1 18 -4 19 -16 269 -61 470
-85 28 -3 64 -8 80 -10 194 -26 791 -26 1050 0 22 2 76 7 120 10 44 3 92 8
107 11 15 2 49 6 75 9 120 12 158 17 165 23 3 4 9 36 12 72 3 36 8 76 10 90 2
14 7 59 11 100 3 41 8 89 10 105 26 182 39 774 21 989 -3 50 -9 117 -11 150
-3 34 -8 77 -11 96 -4 19 -8 52 -10 74 -2 21 -8 62 -13 90 -6 28 -12 67 -15
86 -5 34 -34 180 -57 287 -7 29 -16 53 -21 53 -5 0 -6 5 -3 10 3 6 -10 70 -30
143 -20 72 -38 137 -39 142 -2 6 -5 17 -8 25 -3 8 -32 96 -64 195 -52 161 -99
294 -135 380 -7 17 -13 35 -14 40 -3 11 -46 124 -70 180 -33 79 -55 138 -49
132 12 -12 169 396 269 698 140 422 223 788 269 1190 27 228 27 817 1 1055 -2
19 -6 69 -10 110 -3 41 -8 89 -10 105 -7 45 -14 113 -21 180 -3 33 -8 63 -12
67 -4 4 -36 10 -72 13 -36 3 -74 8 -85 10 -19 4 -67 9 -195 21 -30 2 -73 7
-95 9 -277 32 -919 26 -1165 -11 -19 -3 -54 -7 -76 -10 -23 -3 -52 -7 -65 -9
-13 -3 -41 -7 -64 -10 -146 -21 -452 -93 -665 -156 -347 -104 -909 -312 -938
-348 -8 -11 -11 -12 -10 -2 3 11 -93 60 -147 75 -5 2 -23 9 -40 15 -486 202
-1153 390 -1547 436 -25 3 -56 8 -68 10 -12 2 -58 7 -103 11 -45 3 -93 8 -107
11 -29 5 -656 13 -662 9z m2463 -3843 c13 -16 12 -17 -3 -4 -17 13 -22 21 -14
21 2 0 10 -8 17 -17z m-1871 -989 c0 -8 -19 -13 -24 -6 -3 5 1 9 9 9 8 0 15
-2 15 -3z m3400 -808 c0 -2 -8 -10 -17 -17 -16 -13 -17 -12 -4 4 13 16 21 21
21 13z m-1476 -794 c3 -5 -1 -9 -9 -9 -8 0 -12 4 -9 9 3 4 7 8 9 8 2 0 6 -4 9
-8z"/>
</g>
</svg>
